<svg xmlns="http://www.w3.org/2000/svg" version="1.1" width="463" height="144">
<path d="M 2.878906 13.319336 L 2.878906 6.412109 L 6.729980 6.412109 L 6.729980 7.335938 L 3.738281 7.335938 L 3.738281 13.319336 Z " fill="rgb(0, 0, 0)" fill-opacity="1.000000" />
<path d="M 2.878906 26.319336 L 2.878906 12.300781 L 3.738281 12.300781 L 3.738281 26.319336 Z " fill="rgb(0, 0, 0)" fill-opacity="1.000000" />
<path d="M 2.878906 33.335938 L 2.878906 25.300781 L 3.738281 25.300781 L 3.738281 32.412109 L 6.729980 32.412109 L 6.729980 33.335938 Z " fill="rgb(0, 0, 0)" fill-opacity="1.000000" />
<path d="M 160.015625 71.498047 L 160.015625 71.981445 L 155.734863 71.981445 L 155.734863 72.013672 Q 155.691895 73.243652 156.204834 73.780762 Q 156.717773 74.317871 157.652344 74.317871 Q 158.125000 74.317871 158.640625 74.167480 Q 159.156250 74.017090 159.741699 73.710938 L 159.741699 74.693848 Q 159.177734 74.924805 158.654053 75.040283 Q 158.130371 75.155762 157.641602 75.155762 Q 156.239746 75.155762 155.450195 74.315186 Q 154.660645 73.474609 154.660645 71.997559 Q 154.660645 70.558105 155.434082 69.698730 Q 156.207520 68.839355 157.496582 68.839355 Q 158.645996 68.839355 159.309326 69.618164 Q 159.972656 70.396973 160.015625 71.498047 Z M 159.027344 71.208008 Q 158.962891 70.584961 158.573486 70.131104 Q 158.184082 69.677246 157.453613 69.677246 Q 156.739258 69.677246 156.277344 70.149902 Q 155.815430 70.622559 155.772461 71.213379 Z " fill="rgb(0, 0, 0)" fill-opacity="1.000000" />
<path d="M 170.878906 117.319336 L 170.878906 110.412109 L 174.729980 110.412109 L 174.729980 111.335938 L 171.738281 111.335938 L 171.738281 117.319336 Z " fill="rgb(0, 0, 0)" fill-opacity="1.000000" />
<path d="M 170.878906 130.319336 L 170.878906 116.300781 L 171.738281 116.300781 L 171.738281 130.319336 Z " fill="rgb(0, 0, 0)" fill-opacity="1.000000" />
<path d="M 170.878906 137.335938 L 170.878906 129.300781 L 171.738281 129.300781 L 171.738281 136.412109 L 174.729980 136.412109 L 174.729980 137.335938 Z " fill="rgb(0, 0, 0)" fill-opacity="1.000000" />
<path d="M 174.892578 137.335938 L 174.892578 136.412109 L 181.729980 136.412109 L 181.729980 137.335938 Z " fill="rgb(0, 0, 0)" fill-opacity="1.000000" />
<path d="M 181.892578 137.335938 L 181.892578 136.412109 L 188.729980 136.412109 L 188.729980 137.335938 Z " fill="rgb(0, 0, 0)" fill-opacity="1.000000" />
<path d="M 188.892578 137.335938 L 188.892578 136.412109 L 195.729980 136.412109 L 195.729980 137.335938 Z " fill="rgb(0, 0, 0)" fill-opacity="1.000000" />
<path d="M 195.892578 137.335938 L 195.892578 136.412109 L 202.729980 136.412109 L 202.729980 137.335938 Z " fill="rgb(0, 0, 0)" fill-opacity="1.000000" />
<path d="M 202.892578 137.335938 L 202.892578 136.412109 L 209.729980 136.412109 L 209.729980 137.335938 Z " fill="rgb(0, 0, 0)" fill-opacity="1.000000" />
<path d="M 209.892578 137.335938 L 209.892578 136.412109 L 216.729980 136.412109 L 216.729980 137.335938 Z " fill="rgb(0, 0, 0)" fill-opacity="1.000000" />
<path d="M 216.892578 137.335938 L 216.892578 136.412109 L 223.729980 136.412109 L 223.729980 137.335938 Z " fill="rgb(0, 0, 0)" fill-opacity="1.000000" />
<path d="M 223.892578 137.335938 L 223.892578 136.412109 L 230.729980 136.412109 L 230.729980 137.335938 Z " fill="rgb(0, 0, 0)" fill-opacity="1.000000" />
<path d="M 230.892578 137.335938 L 230.892578 136.412109 L 237.729980 136.412109 L 237.729980 137.335938 Z " fill="rgb(0, 0, 0)" fill-opacity="1.000000" />
<path d="M 237.892578 137.335938 L 237.892578 136.412109 L 244.729980 136.412109 L 244.729980 137.335938 Z " fill="rgb(0, 0, 0)" fill-opacity="1.000000" />
<path d="M 244.892578 137.335938 L 244.892578 136.412109 L 251.729980 136.412109 L 251.729980 137.335938 Z " fill="rgb(0, 0, 0)" fill-opacity="1.000000" />
<path d="M 251.892578 137.335938 L 251.892578 136.412109 L 258.729980 136.412109 L 258.729980 137.335938 Z " fill="rgb(0, 0, 0)" fill-opacity="1.000000" />
<path d="M 258.892578 137.335938 L 258.892578 136.412109 L 265.729980 136.412109 L 265.729980 137.335938 Z " fill="rgb(0, 0, 0)" fill-opacity="1.000000" />
<path d="M 265.892578 137.335938 L 265.892578 136.412109 L 268.878906 136.412109 L 268.878906 129.300781 L 269.738281 129.300781 L 269.738281 137.335938 Z " fill="rgb(0, 0, 0)" fill-opacity="1.000000" />
<path d="M 359.878906 137.335938 L 359.878906 129.300781 L 360.738281 129.300781 L 360.738281 136.412109 L 363.729980 136.412109 L 363.729980 137.335938 Z " fill="rgb(0, 0, 0)" fill-opacity="1.000000" />
<path d="M 363.892578 137.335938 L 363.892578 136.412109 L 370.729980 136.412109 L 370.729980 137.335938 Z " fill="rgb(0, 0, 0)" fill-opacity="1.000000" />
<path d="M 370.892578 137.335938 L 370.892578 136.412109 L 377.729980 136.412109 L 377.729980 137.335938 Z " fill="rgb(0, 0, 0)" fill-opacity="1.000000" />
<path d="M 377.892578 137.335938 L 377.892578 136.412109 L 384.729980 136.412109 L 384.729980 137.335938 Z " fill="rgb(0, 0, 0)" fill-opacity="1.000000" />
<path d="M 384.892578 137.335938 L 384.892578 136.412109 L 391.729980 136.412109 L 391.729980 137.335938 Z " fill="rgb(0, 0, 0)" fill-opacity="1.000000" />
<path d="M 391.892578 137.335938 L 391.892578 136.412109 L 398.729980 136.412109 L 398.729980 137.335938 Z " fill="rgb(0, 0, 0)" fill-opacity="1.000000" />
<path d="M 398.892578 137.335938 L 398.892578 136.412109 L 405.729980 136.412109 L 405.729980 137.335938 Z " fill="rgb(0, 0, 0)" fill-opacity="1.000000" />
<path d="M 405.892578 137.335938 L 405.892578 136.412109 L 412.729980 136.412109 L 412.729980 137.335938 Z " fill="rgb(0, 0, 0)" fill-opacity="1.000000" />
<path d="M 412.892578 137.335938 L 412.892578 136.412109 L 419.729980 136.412109 L 419.729980 137.335938 Z " fill="rgb(0, 0, 0)" fill-opacity="1.000000" />
<path d="M 419.892578 137.335938 L 419.892578 136.412109 L 426.729980 136.412109 L 426.729980 137.335938 Z " fill="rgb(0, 0, 0)" fill-opacity="1.000000" />
<path d="M 426.892578 137.335938 L 426.892578 136.412109 L 433.729980 136.412109 L 433.729980 137.335938 Z " fill="rgb(0, 0, 0)" fill-opacity="1.000000" />
<path d="M 433.892578 137.335938 L 433.892578 136.412109 L 440.729980 136.412109 L 440.729980 137.335938 Z " fill="rgb(0, 0, 0)" fill-opacity="1.000000" />
<path d="M 440.892578 137.335938 L 440.892578 136.412109 L 447.729980 136.412109 L 447.729980 137.335938 Z " fill="rgb(0, 0, 0)" fill-opacity="1.000000" />
<path d="M 447.892578 137.335938 L 447.892578 136.412109 L 454.729980 136.412109 L 454.729980 137.335938 Z " fill="rgb(0, 0, 0)" fill-opacity="1.000000" />
<path d="M 454.892578 137.335938 L 454.892578 136.412109 L 457.878906 136.412109 L 457.878906 129.300781 L 458.738281 129.300781 L 458.738281 137.335938 Z " fill="rgb(0, 0, 0)" fill-opacity="1.000000" />
<path d="M 196.193359 119.007812 L 197.643555 119.007812 L 199.029297 123.079102 L 200.425781 119.007812 L 201.881348 119.007812 L 201.881348 127.000000 L 200.876953 127.000000 L 200.876953 119.937012 L 199.448242 124.147949 L 198.626465 124.147949 L 197.192383 119.937012 L 197.192383 127.000000 L 196.193359 127.000000 Z " fill="rgb(0, 0, 0)" fill-opacity="1.000000" />
<path d="M 206.770508 123.976074 L 206.442871 123.976074 Q 205.578125 123.976074 205.140381 124.279541 Q 204.702637 124.583008 204.702637 125.184570 Q 204.702637 125.727051 205.030273 126.027832 Q 205.357910 126.328613 205.937988 126.328613 Q 206.754395 126.328613 207.221680 125.761963 Q 207.688965 125.195312 207.694336 124.196289 L 207.694336 123.976074 Z M 208.687988 123.567871 L 208.687988 127.000000 L 207.694336 127.000000 L 207.694336 126.108398 Q 207.377441 126.645508 206.896729 126.900635 Q 206.416016 127.155762 205.728516 127.155762 Q 204.810059 127.155762 204.262207 126.637451 Q 203.714355 126.119141 203.714355 125.249023 Q 203.714355 124.244629 204.388428 123.723633 Q 205.062500 123.202637 206.367676 123.202637 L 207.694336 123.202637 L 207.694336 123.046875 Q 207.688965 122.327148 207.329102 122.002197 Q 206.969238 121.677246 206.179688 121.677246 Q 205.674805 121.677246 205.159180 121.822266 Q 204.643555 121.967285 204.154785 122.246582 L 204.154785 121.258301 Q 204.702637 121.048828 205.204834 120.944092 Q 205.707031 120.839355 206.179688 120.839355 Q 206.926270 120.839355 207.455322 121.059570 Q 207.984375 121.279785 208.312012 121.720215 Q 208.516113 121.988770 208.602051 122.383545 Q 208.687988 122.778320 208.687988 123.567871 Z " fill="rgb(0, 0, 0)" fill-opacity="1.000000" />
<path d="M 211.697266 121.005859 L 214.227051 121.005859 L 214.227051 126.231934 L 216.187500 126.231934 L 216.187500 127.000000 L 211.278320 127.000000 L 211.278320 126.231934 L 213.238770 126.231934 L 213.238770 121.773926 L 211.697266 121.773926 Z M 213.238770 118.669434 L 214.227051 118.669434 L 214.227051 119.915527 L 213.238770 119.915527 Z " fill="rgb(0, 0, 0)" fill-opacity="1.000000" />
<path d="M 220.861816 124.824707 Q 220.861816 125.490723 221.106201 125.829102 Q 221.350586 126.167480 221.828613 126.167480 L 222.983398 126.167480 L 222.983398 127.000000 L 221.731934 127.000000 Q 220.845703 127.000000 220.359619 126.433350 Q 219.873535 125.866699 219.873535 124.824707 L 219.873535 119.383789 L 218.289062 119.383789 L 218.289062 118.610352 L 220.861816 118.610352 Z " fill="rgb(0, 0, 0)" fill-opacity="1.000000" />
<path d="M 228.930664 123.997559 Q 228.930664 122.848145 228.565430 122.262695 Q 228.200195 121.677246 227.485840 121.677246 Q 226.766113 121.677246 226.395508 122.265381 Q 226.024902 122.853516 226.024902 123.997559 Q 226.024902 125.136230 226.395508 125.727051 Q 226.766113 126.317871 227.485840 126.317871 Q 228.200195 126.317871 228.565430 125.732422 Q 228.930664 125.146973 228.930664 123.997559 Z M 226.024902 121.752441 Q 226.261230 121.312012 226.677490 121.075684 Q 227.093750 120.839355 227.641602 120.839355 Q 228.726562 120.839355 229.349609 121.674561 Q 229.972656 122.509766 229.972656 123.976074 Q 229.972656 125.463867 229.346924 126.309814 Q 228.721191 127.155762 227.630859 127.155762 Q 227.093750 127.155762 226.682861 126.922119 Q 226.271973 126.688477 226.024902 126.242676 L 226.024902 127.000000 L 225.036621 127.000000 L 225.036621 118.642578 L 226.024902 118.642578 Z " fill="rgb(0, 0, 0)" fill-opacity="1.000000" />
<path d="M 234.308594 121.677246 Q 233.556641 121.677246 233.169922 122.262695 Q 232.783203 122.848145 232.783203 123.997559 Q 232.783203 125.141602 233.169922 125.729736 Q 233.556641 126.317871 234.308594 126.317871 Q 235.065918 126.317871 235.452637 125.729736 Q 235.839355 125.141602 235.839355 123.997559 Q 235.839355 122.848145 235.452637 122.262695 Q 235.065918 121.677246 234.308594 121.677246 Z M 234.308594 120.839355 Q 235.560059 120.839355 236.223389 121.650391 Q 236.886719 122.461426 236.886719 123.997559 Q 236.886719 125.539062 236.226074 126.347412 Q 235.565430 127.155762 234.308594 127.155762 Q 233.057129 127.155762 232.396484 126.347412 Q 231.735840 125.539062 231.735840 123.997559 Q 231.735840 122.461426 232.396484 121.650391 Q 233.057129 120.839355 234.308594 120.839355 Z " fill="rgb(0, 0, 0)" fill-opacity="1.000000" />
<path d="M 244.004883 120.984375 L 241.851074 123.863281 L 244.214355 127.000000 L 243.070312 127.000000 L 241.308594 124.588379 L 239.552246 127.000000 L 238.408203 127.000000 L 240.771484 123.863281 L 238.617676 120.984375 L 239.713379 120.984375 L 241.308594 123.159668 L 242.893066 120.984375 Z " fill="rgb(0, 0, 0)" fill-opacity="1.000000" />
<path d="M 268.878906 130.319336 L 268.878906 116.300781 L 269.738281 116.300781 L 269.738281 130.319336 Z " fill="rgb(0, 0, 0)" fill-opacity="1.000000" />
<path d="M 273.032227 124.142578 L 279.590332 120.866211 L 279.590332 127.418945 Z " fill="rgb(0, 0, 0)" fill-opacity="1.000000" />
<path d="M 279.892578 124.335938 L 279.892578 123.412109 L 286.729980 123.412109 L 286.729980 124.335938 Z " fill="rgb(0, 0, 0)" fill-opacity="1.000000" />
<path d="M 286.892578 124.335938 L 286.892578 123.412109 L 293.729980 123.412109 L 293.729980 124.335938 Z " fill="rgb(0, 0, 0)" fill-opacity="1.000000" />
<path d="M 293.892578 124.335938 L 293.892578 123.412109 L 300.729980 123.412109 L 300.729980 124.335938 Z " fill="rgb(0, 0, 0)" fill-opacity="1.000000" />
<path d="M 300.892578 124.335938 L 300.892578 123.412109 L 307.729980 123.412109 L 307.729980 124.335938 Z " fill="rgb(0, 0, 0)" fill-opacity="1.000000" />
<path d="M 307.892578 124.335938 L 307.892578 123.412109 L 314.729980 123.412109 L 314.729980 124.335938 Z " fill="rgb(0, 0, 0)" fill-opacity="1.000000" />
<path d="M 314.892578 124.335938 L 314.892578 123.412109 L 321.729980 123.412109 L 321.729980 124.335938 Z " fill="rgb(0, 0, 0)" fill-opacity="1.000000" />
<path d="M 321.892578 124.335938 L 321.892578 123.412109 L 328.729980 123.412109 L 328.729980 124.335938 Z " fill="rgb(0, 0, 0)" fill-opacity="1.000000" />
<path d="M 328.892578 124.335938 L 328.892578 123.412109 L 335.729980 123.412109 L 335.729980 124.335938 Z " fill="rgb(0, 0, 0)" fill-opacity="1.000000" />
<path d="M 335.892578 124.335938 L 335.892578 123.412109 L 342.729980 123.412109 L 342.729980 124.335938 Z " fill="rgb(0, 0, 0)" fill-opacity="1.000000" />
<path d="M 342.892578 124.335938 L 342.892578 123.412109 L 349.729980 123.412109 L 349.729980 124.335938 Z " fill="rgb(0, 0, 0)" fill-opacity="1.000000" />
<path d="M 349.892578 124.335938 L 349.892578 123.412109 L 356.729980 123.412109 L 356.729980 124.335938 Z " fill="rgb(0, 0, 0)" fill-opacity="1.000000" />
<path d="M 359.878906 130.319336 L 359.878906 116.300781 L 360.738281 116.300781 L 360.738281 130.319336 Z " fill="rgb(0, 0, 0)" fill-opacity="1.000000" />
<path d="M 373.341797 126.108398 Q 374.711426 126.108398 375.253906 125.434326 Q 375.796387 124.760254 375.796387 122.998535 Q 375.796387 121.220703 375.256592 120.546631 Q 374.716797 119.872559 373.341797 119.872559 L 372.826172 119.872559 L 372.826172 126.108398 Z M 373.363281 118.980957 Q 375.200195 118.980957 376.070312 119.958496 Q 376.940430 120.936035 376.940430 122.998535 Q 376.940430 125.050293 376.070312 126.025146 Q 375.200195 127.000000 373.363281 127.000000 L 371.735840 127.000000 L 371.735840 118.980957 Z " fill="rgb(0, 0, 0)" fill-opacity="1.000000" />
<path d="M 379.697266 121.005859 L 382.227051 121.005859 L 382.227051 126.231934 L 384.187500 126.231934 L 384.187500 127.000000 L 379.278320 127.000000 L 379.278320 126.231934 L 381.238770 126.231934 L 381.238770 121.773926 L 379.697266 121.773926 Z M 381.238770 118.669434 L 382.227051 118.669434 L 382.227051 119.915527 L 381.238770 119.915527 Z " fill="rgb(0, 0, 0)" fill-opacity="1.000000" />
<path d="M 390.226074 121.193848 L 390.226074 122.160645 Q 389.801758 121.913574 389.372070 121.790039 Q 388.942383 121.666504 388.496582 121.666504 Q 387.825195 121.666504 387.494873 121.884033 Q 387.164551 122.101562 387.164551 122.547363 Q 387.164551 122.950195 387.411621 123.148926 Q 387.658691 123.347656 388.641602 123.535645 L 389.039062 123.610840 Q 389.774902 123.750488 390.153564 124.169434 Q 390.532227 124.588379 390.532227 125.259766 Q 390.532227 126.151367 389.898438 126.653564 Q 389.264648 127.155762 388.136719 127.155762 Q 387.690918 127.155762 387.202148 127.061768 Q 386.713379 126.967773 386.144043 126.779785 L 386.144043 125.759277 Q 386.697266 126.043945 387.202148 126.186279 Q 387.707031 126.328613 388.158203 126.328613 Q 388.813477 126.328613 389.173340 126.062744 Q 389.533203 125.796875 389.533203 125.318848 Q 389.533203 124.631348 388.217285 124.368164 L 388.174316 124.357422 L 387.803711 124.282227 Q 386.949707 124.115723 386.557617 123.720947 Q 386.165527 123.326172 386.165527 122.644043 Q 386.165527 121.779297 386.750977 121.309326 Q 387.336426 120.839355 388.421387 120.839355 Q 388.904785 120.839355 389.350586 120.927979 Q 389.796387 121.016602 390.226074 121.193848 Z " fill="rgb(0, 0, 0)" fill-opacity="1.000000" />
<path d="M 394.014160 126.242676 L 394.014160 129.288086 L 393.020508 129.288086 L 393.020508 120.984375 L 394.014160 120.984375 L 394.014160 121.752441 Q 394.261230 121.306641 394.672119 121.072998 Q 395.083008 120.839355 395.620117 120.839355 Q 396.710449 120.839355 397.330811 121.682617 Q 397.951172 122.525879 397.951172 124.019043 Q 397.951172 125.485352 397.328125 126.320557 Q 396.705078 127.155762 395.620117 127.155762 Q 395.072266 127.155762 394.661377 126.922119 Q 394.250488 126.688477 394.014160 126.242676 Z M 396.914551 123.997559 Q 396.914551 122.848145 396.552002 122.262695 Q 396.189453 121.677246 395.475098 121.677246 Q 394.755371 121.677246 394.384766 122.265381 Q 394.014160 122.853516 394.014160 123.997559 Q 394.014160 125.136230 394.384766 125.727051 Q 394.755371 126.317871 395.475098 126.317871 Q 396.189453 126.317871 396.552002 125.732422 Q 396.914551 125.146973 396.914551 123.997559 Z " fill="rgb(0, 0, 0)" fill-opacity="1.000000" />
<path d="M 402.770508 123.976074 L 402.442871 123.976074 Q 401.578125 123.976074 401.140381 124.279541 Q 400.702637 124.583008 400.702637 125.184570 Q 400.702637 125.727051 401.030273 126.027832 Q 401.357910 126.328613 401.937988 126.328613 Q 402.754395 126.328613 403.221680 125.761963 Q 403.688965 125.195312 403.694336 124.196289 L 403.694336 123.976074 Z M 404.687988 123.567871 L 404.687988 127.000000 L 403.694336 127.000000 L 403.694336 126.108398 Q 403.377441 126.645508 402.896729 126.900635 Q 402.416016 127.155762 401.728516 127.155762 Q 400.810059 127.155762 400.262207 126.637451 Q 399.714355 126.119141 399.714355 125.249023 Q 399.714355 124.244629 400.388428 123.723633 Q 401.062500 123.202637 402.367676 123.202637 L 403.694336 123.202637 L 403.694336 123.046875 Q 403.688965 122.327148 403.329102 122.002197 Q 402.969238 121.677246 402.179688 121.677246 Q 401.674805 121.677246 401.159180 121.822266 Q 400.643555 121.967285 400.154785 122.246582 L 400.154785 121.258301 Q 400.702637 121.048828 401.204834 120.944092 Q 401.707031 120.839355 402.179688 120.839355 Q 402.926270 120.839355 403.455322 121.059570 Q 403.984375 121.279785 404.312012 121.720215 Q 404.516113 121.988770 404.602051 122.383545 Q 404.687988 122.778320 404.687988 123.567871 Z " fill="rgb(0, 0, 0)" fill-opacity="1.000000" />
<path d="M 409.297852 119.276367 L 409.297852 120.984375 L 411.542969 120.984375 L 411.542969 121.752441 L 409.297852 121.752441 L 409.297852 125.018066 Q 409.297852 125.684082 409.550293 125.947266 Q 409.802734 126.210449 410.431152 126.210449 L 411.542969 126.210449 L 411.542969 127.000000 L 410.334473 127.000000 Q 409.222656 127.000000 408.766113 126.554199 Q 408.309570 126.108398 408.309570 125.018066 L 408.309570 121.752441 L 406.703613 121.752441 L 406.703613 120.984375 L 408.309570 120.984375 L 408.309570 119.276367 Z " fill="rgb(0, 0, 0)" fill-opacity="1.000000" />
<path d="M 418.698730 126.693848 Q 418.301270 126.924805 417.879639 127.040283 Q 417.458008 127.155762 417.017578 127.155762 Q 415.621094 127.155762 414.834229 126.317871 Q 414.047363 125.479980 414.047363 123.997559 Q 414.047363 122.515137 414.834229 121.677246 Q 415.621094 120.839355 417.017578 120.839355 Q 417.452637 120.839355 417.866211 120.952148 Q 418.279785 121.064941 418.698730 121.301270 L 418.698730 122.337891 Q 418.306641 121.988770 417.911865 121.833008 Q 417.517090 121.677246 417.017578 121.677246 Q 416.088379 121.677246 415.588867 122.278809 Q 415.089355 122.880371 415.089355 123.997559 Q 415.089355 125.109375 415.591553 125.713623 Q 416.093750 126.317871 417.017578 126.317871 Q 417.533203 126.317871 417.941406 126.159424 Q 418.349609 126.000977 418.698730 125.667969 Z " fill="rgb(0, 0, 0)" fill-opacity="1.000000" />
<path d="M 425.645020 123.272461 L 425.645020 127.000000 L 424.651367 127.000000 L 424.651367 123.272461 Q 424.651367 122.461426 424.366699 122.080078 Q 424.082031 121.698730 423.475098 121.698730 Q 422.782227 121.698730 422.408936 122.190186 Q 422.035645 122.681641 422.035645 123.600098 L 422.035645 127.000000 L 421.047363 127.000000 L 421.047363 118.642578 L 422.035645 118.642578 L 422.035645 121.886719 Q 422.298828 121.371094 422.750000 121.105225 Q 423.201172 120.839355 423.818848 120.839355 Q 424.737305 120.839355 425.191162 121.443604 Q 425.645020 122.047852 425.645020 123.272461 Z " fill="rgb(0, 0, 0)" fill-opacity="1.000000" />
<path d="M 433.015625 123.498047 L 433.015625 123.981445 L 428.734863 123.981445 L 428.734863 124.013672 Q 428.691895 125.243652 429.204834 125.780762 Q 429.717773 126.317871 430.652344 126.317871 Q 431.125000 126.317871 431.640625 126.167480 Q 432.156250 126.017090 432.741699 125.710938 L 432.741699 126.693848 Q 432.177734 126.924805 431.654053 127.040283 Q 431.130371 127.155762 430.641602 127.155762 Q 429.239746 127.155762 428.450195 126.315186 Q 427.660645 125.474609 427.660645 123.997559 Q 427.660645 122.558105 428.434082 121.698730 Q 429.207520 120.839355 430.496582 120.839355 Q 431.645996 120.839355 432.309326 121.618164 Q 432.972656 122.396973 433.015625 123.498047 Z M 432.027344 123.208008 Q 431.962891 122.584961 431.573486 122.131104 Q 431.184082 121.677246 430.453613 121.677246 Q 429.739258 121.677246 429.277344 122.149902 Q 428.815430 122.622559 428.772461 123.213379 Z " fill="rgb(0, 0, 0)" fill-opacity="1.000000" />
<path d="M 440.203613 122.225098 Q 439.886719 121.978027 439.559082 121.865234 Q 439.231445 121.752441 438.839355 121.752441 Q 437.915527 121.752441 437.426758 122.332520 Q 436.937988 122.912598 436.937988 124.008301 L 436.937988 127.000000 L 435.944336 127.000000 L 435.944336 120.984375 L 436.937988 120.984375 L 436.937988 122.160645 Q 437.185059 121.521484 437.697998 121.180420 Q 438.210938 120.839355 438.914551 120.839355 Q 439.279785 120.839355 439.596680 120.930664 Q 439.913574 121.021973 440.203613 121.215332 Z " fill="rgb(0, 0, 0)" fill-opacity="1.000000" />
<path d="M 457.878906 130.319336 L 457.878906 116.300781 L 458.738281 116.300781 L 458.738281 130.319336 Z " fill="rgb(0, 0, 0)" fill-opacity="1.000000" />
<path d="M 174.892578 111.335938 L 174.892578 110.412109 L 181.729980 110.412109 L 181.729980 111.335938 Z " fill="rgb(0, 0, 0)" fill-opacity="1.000000" />
<path d="M 181.892578 111.335938 L 181.892578 110.412109 L 188.729980 110.412109 L 188.729980 111.335938 Z " fill="rgb(0, 0, 0)" fill-opacity="1.000000" />
<path d="M 188.892578 111.335938 L 188.892578 110.412109 L 195.729980 110.412109 L 195.729980 111.335938 Z " fill="rgb(0, 0, 0)" fill-opacity="1.000000" />
<path d="M 195.892578 111.335938 L 195.892578 110.412109 L 202.729980 110.412109 L 202.729980 111.335938 Z " fill="rgb(0, 0, 0)" fill-opacity="1.000000" />
<path d="M 202.892578 111.335938 L 202.892578 110.412109 L 209.729980 110.412109 L 209.729980 111.335938 Z " fill="rgb(0, 0, 0)" fill-opacity="1.000000" />
<path d="M 209.892578 111.335938 L 209.892578 110.412109 L 216.729980 110.412109 L 216.729980 111.335938 Z " fill="rgb(0, 0, 0)" fill-opacity="1.000000" />
<path d="M 216.892578 111.335938 L 216.892578 110.412109 L 223.729980 110.412109 L 223.729980 111.335938 Z " fill="rgb(0, 0, 0)" fill-opacity="1.000000" />
<path d="M 223.892578 111.335938 L 223.892578 110.412109 L 230.729980 110.412109 L 230.729980 111.335938 Z " fill="rgb(0, 0, 0)" fill-opacity="1.000000" />
<path d="M 230.892578 111.335938 L 230.892578 110.412109 L 237.729980 110.412109 L 237.729980 111.335938 Z " fill="rgb(0, 0, 0)" fill-opacity="1.000000" />
<path d="M 237.892578 111.335938 L 237.892578 110.412109 L 244.729980 110.412109 L 244.729980 111.335938 Z " fill="rgb(0, 0, 0)" fill-opacity="1.000000" />
<path d="M 244.892578 111.335938 L 244.892578 110.412109 L 251.729980 110.412109 L 251.729980 111.335938 Z " fill="rgb(0, 0, 0)" fill-opacity="1.000000" />
<path d="M 251.892578 111.335938 L 251.892578 110.412109 L 258.729980 110.412109 L 258.729980 111.335938 Z " fill="rgb(0, 0, 0)" fill-opacity="1.000000" />
<path d="M 258.892578 111.335938 L 258.892578 110.412109 L 265.729980 110.412109 L 265.729980 111.335938 Z " fill="rgb(0, 0, 0)" fill-opacity="1.000000" />
<path d="M 268.878906 117.319336 L 268.878906 111.335938 L 265.892578 111.335938 L 265.892578 110.412109 L 269.738281 110.412109 L 269.738281 117.319336 Z " fill="rgb(0, 0, 0)" fill-opacity="1.000000" />
<path d="M 292.226074 108.193848 L 292.226074 109.160645 Q 291.801758 108.913574 291.372070 108.790039 Q 290.942383 108.666504 290.496582 108.666504 Q 289.825195 108.666504 289.494873 108.884033 Q 289.164551 109.101562 289.164551 109.547363 Q 289.164551 109.950195 289.411621 110.148926 Q 289.658691 110.347656 290.641602 110.535645 L 291.039062 110.610840 Q 291.774902 110.750488 292.153564 111.169434 Q 292.532227 111.588379 292.532227 112.259766 Q 292.532227 113.151367 291.898438 113.653564 Q 291.264648 114.155762 290.136719 114.155762 Q 289.690918 114.155762 289.202148 114.061768 Q 288.713379 113.967773 288.144043 113.779785 L 288.144043 112.759277 Q 288.697266 113.043945 289.202148 113.186279 Q 289.707031 113.328613 290.158203 113.328613 Q 290.813477 113.328613 291.173340 113.062744 Q 291.533203 112.796875 291.533203 112.318848 Q 291.533203 111.631348 290.217285 111.368164 L 290.174316 111.357422 L 289.803711 111.282227 Q 288.949707 111.115723 288.557617 110.720947 Q 288.165527 110.326172 288.165527 109.644043 Q 288.165527 108.779297 288.750977 108.309326 Q 289.336426 107.839355 290.421387 107.839355 Q 290.904785 107.839355 291.350586 107.927979 Q 291.796387 108.016602 292.226074 108.193848 Z " fill="rgb(0, 0, 0)" fill-opacity="1.000000" />
<path d="M 299.698730 113.693848 Q 299.301270 113.924805 298.879639 114.040283 Q 298.458008 114.155762 298.017578 114.155762 Q 296.621094 114.155762 295.834229 113.317871 Q 295.047363 112.479980 295.047363 110.997559 Q 295.047363 109.515137 295.834229 108.677246 Q 296.621094 107.839355 298.017578 107.839355 Q 298.452637 107.839355 298.866211 107.952148 Q 299.279785 108.064941 299.698730 108.301270 L 299.698730 109.337891 Q 299.306641 108.988770 298.911865 108.833008 Q 298.517090 108.677246 298.017578 108.677246 Q 297.088379 108.677246 296.588867 109.278809 Q 296.089355 109.880371 296.089355 110.997559 Q 296.089355 112.109375 296.591553 112.713623 Q 297.093750 113.317871 298.017578 113.317871 Q 298.533203 113.317871 298.941406 113.159424 Q 299.349609 113.000977 299.698730 112.667969 Z " fill="rgb(0, 0, 0)" fill-opacity="1.000000" />
<path d="M 306.645020 110.272461 L 306.645020 114.000000 L 305.651367 114.000000 L 305.651367 110.272461 Q 305.651367 109.461426 305.366699 109.080078 Q 305.082031 108.698730 304.475098 108.698730 Q 303.782227 108.698730 303.408936 109.190186 Q 303.035645 109.681641 303.035645 110.600098 L 303.035645 114.000000 L 302.047363 114.000000 L 302.047363 105.642578 L 303.035645 105.642578 L 303.035645 108.886719 Q 303.298828 108.371094 303.750000 108.105225 Q 304.201172 107.839355 304.818848 107.839355 Q 305.737305 107.839355 306.191162 108.443604 Q 306.645020 109.047852 306.645020 110.272461 Z " fill="rgb(0, 0, 0)" fill-opacity="1.000000" />
<path d="M 314.015625 110.498047 L 314.015625 110.981445 L 309.734863 110.981445 L 309.734863 111.013672 Q 309.691895 112.243652 310.204834 112.780762 Q 310.717773 113.317871 311.652344 113.317871 Q 312.125000 113.317871 312.640625 113.167480 Q 313.156250 113.017090 313.741699 112.710938 L 313.741699 113.693848 Q 313.177734 113.924805 312.654053 114.040283 Q 312.130371 114.155762 311.641602 114.155762 Q 310.239746 114.155762 309.450195 113.315186 Q 308.660645 112.474609 308.660645 110.997559 Q 308.660645 109.558105 309.434082 108.698730 Q 310.207520 107.839355 311.496582 107.839355 Q 312.645996 107.839355 313.309326 108.618164 Q 313.972656 109.396973 314.015625 110.498047 Z M 313.027344 110.208008 Q 312.962891 109.584961 312.573486 109.131104 Q 312.184082 108.677246 311.453613 108.677246 Q 310.739258 108.677246 310.277344 109.149902 Q 309.815430 109.622559 309.772461 110.213379 Z " fill="rgb(0, 0, 0)" fill-opacity="1.000000" />
<path d="M 319.608398 108.752441 L 319.608398 105.642578 L 320.596680 105.642578 L 320.596680 114.000000 L 319.608398 114.000000 L 319.608398 113.242676 Q 319.361328 113.688477 318.950439 113.922119 Q 318.539551 114.155762 318.002441 114.155762 Q 316.912109 114.155762 316.286377 113.309814 Q 315.660645 112.463867 315.660645 110.976074 Q 315.660645 109.509766 316.289062 108.674561 Q 316.917480 107.839355 318.002441 107.839355 Q 318.544922 107.839355 318.958496 108.072998 Q 319.372070 108.306641 319.608398 108.752441 Z M 316.702637 110.997559 Q 316.702637 112.146973 317.067871 112.732422 Q 317.433105 113.317871 318.147461 113.317871 Q 318.861816 113.317871 319.235107 112.727051 Q 319.608398 112.136230 319.608398 110.997559 Q 319.608398 109.853516 319.235107 109.265381 Q 318.861816 108.677246 318.147461 108.677246 Q 317.433105 108.677246 317.067871 109.262695 Q 316.702637 109.848145 316.702637 110.997559 Z " fill="rgb(0, 0, 0)" fill-opacity="1.000000" />
<path d="M 323.047363 111.722656 L 323.047363 107.995117 L 324.035645 107.995117 L 324.035645 111.722656 Q 324.035645 112.533691 324.322998 112.915039 Q 324.610352 113.296387 325.211914 113.296387 Q 325.910156 113.296387 326.280762 112.804932 Q 326.651367 112.313477 326.651367 111.395020 L 326.651367 107.995117 L 327.645020 107.995117 L 327.645020 114.000000 L 326.651367 114.000000 L 326.651367 113.097656 Q 326.388184 113.618652 325.934326 113.887207 Q 325.480469 114.155762 324.873535 114.155762 Q 323.949707 114.155762 323.498535 113.551514 Q 323.047363 112.947266 323.047363 111.722656 Z " fill="rgb(0, 0, 0)" fill-opacity="1.000000" />
<path d="M 332.861816 111.824707 Q 332.861816 112.490723 333.106201 112.829102 Q 333.350586 113.167480 333.828613 113.167480 L 334.983398 113.167480 L 334.983398 114.000000 L 333.731934 114.000000 Q 332.845703 114.000000 332.359619 113.433350 Q 331.873535 112.866699 331.873535 111.824707 L 331.873535 106.383789 L 330.289062 106.383789 L 330.289062 105.610352 L 332.861816 105.610352 Z " fill="rgb(0, 0, 0)" fill-opacity="1.000000" />
<path d="M 342.015625 110.498047 L 342.015625 110.981445 L 337.734863 110.981445 L 337.734863 111.013672 Q 337.691895 112.243652 338.204834 112.780762 Q 338.717773 113.317871 339.652344 113.317871 Q 340.125000 113.317871 340.640625 113.167480 Q 341.156250 113.017090 341.741699 112.710938 L 341.741699 113.693848 Q 341.177734 113.924805 340.654053 114.040283 Q 340.130371 114.155762 339.641602 114.155762 Q 338.239746 114.155762 337.450195 113.315186 Q 336.660645 112.474609 336.660645 110.997559 Q 336.660645 109.558105 337.434082 108.698730 Q 338.207520 107.839355 339.496582 107.839355 Q 340.645996 107.839355 341.309326 108.618164 Q 341.972656 109.396973 342.015625 110.498047 Z M 341.027344 110.208008 Q 340.962891 109.584961 340.573486 109.131104 Q 340.184082 108.677246 339.453613 108.677246 Q 338.739258 108.677246 338.277344 109.149902 Q 337.815430 109.622559 337.772461 110.213379 Z " fill="rgb(0, 0, 0)" fill-opacity="1.000000" />
<path d="M 359.878906 117.319336 L 359.878906 110.412109 L 363.729980 110.412109 L 363.729980 111.335938 L 360.738281 111.335938 L 360.738281 117.319336 Z " fill="rgb(0, 0, 0)" fill-opacity="1.000000" />
<path d="M 363.892578 111.335938 L 363.892578 110.412109 L 370.729980 110.412109 L 370.729980 111.335938 Z " fill="rgb(0, 0, 0)" fill-opacity="1.000000" />
<path d="M 370.892578 111.335938 L 370.892578 110.412109 L 377.729980 110.412109 L 377.729980 111.335938 Z " fill="rgb(0, 0, 0)" fill-opacity="1.000000" />
<path d="M 377.892578 111.335938 L 377.892578 110.412109 L 384.729980 110.412109 L 384.729980 111.335938 Z " fill="rgb(0, 0, 0)" fill-opacity="1.000000" />
<path d="M 384.892578 111.335938 L 384.892578 110.412109 L 391.729980 110.412109 L 391.729980 111.335938 Z " fill="rgb(0, 0, 0)" fill-opacity="1.000000" />
<path d="M 391.892578 111.335938 L 391.892578 110.412109 L 398.729980 110.412109 L 398.729980 111.335938 Z " fill="rgb(0, 0, 0)" fill-opacity="1.000000" />
<path d="M 398.892578 111.335938 L 398.892578 110.412109 L 405.729980 110.412109 L 405.729980 111.335938 Z " fill="rgb(0, 0, 0)" fill-opacity="1.000000" />
<path d="M 405.892578 111.335938 L 405.892578 110.412109 L 412.729980 110.412109 L 412.729980 111.335938 Z " fill="rgb(0, 0, 0)" fill-opacity="1.000000" />
<path d="M 412.892578 111.335938 L 412.892578 110.412109 L 419.729980 110.412109 L 419.729980 111.335938 Z " fill="rgb(0, 0, 0)" fill-opacity="1.000000" />
<path d="M 419.892578 111.335938 L 419.892578 110.412109 L 426.729980 110.412109 L 426.729980 111.335938 Z " fill="rgb(0, 0, 0)" fill-opacity="1.000000" />
<path d="M 426.892578 111.335938 L 426.892578 110.412109 L 433.729980 110.412109 L 433.729980 111.335938 Z " fill="rgb(0, 0, 0)" fill-opacity="1.000000" />
<path d="M 433.892578 111.335938 L 433.892578 110.412109 L 440.729980 110.412109 L 440.729980 111.335938 Z " fill="rgb(0, 0, 0)" fill-opacity="1.000000" />
<path d="M 440.892578 111.335938 L 440.892578 110.412109 L 447.729980 110.412109 L 447.729980 111.335938 Z " fill="rgb(0, 0, 0)" fill-opacity="1.000000" />
<path d="M 447.892578 111.335938 L 447.892578 110.412109 L 454.729980 110.412109 L 454.729980 111.335938 Z " fill="rgb(0, 0, 0)" fill-opacity="1.000000" />
<path d="M 457.878906 117.319336 L 457.878906 111.335938 L 454.892578 111.335938 L 454.892578 110.412109 L 458.738281 110.412109 L 458.738281 117.319336 Z " fill="rgb(0, 0, 0)" fill-opacity="1.000000" />
<path d="M 219.878906 91.319336 L 219.878906 77.300781 L 220.738281 77.300781 L 220.738281 91.319336 Z " fill="rgb(0, 0, 0)" fill-opacity="1.000000" />
<path d="M 220.308594 101.418945 L 217.032227 94.866211 L 223.590332 94.866211 Z " fill="rgb(0, 0, 0)" fill-opacity="1.000000" />
<path d="M 247.878906 104.319336 L 247.878906 90.300781 L 248.738281 90.300781 L 248.738281 104.319336 Z " fill="rgb(0, 0, 0)" fill-opacity="1.000000" />
<path d="M 247.878906 91.319336 L 247.878906 77.300781 L 248.738281 77.300781 L 248.738281 91.319336 Z " fill="rgb(0, 0, 0)" fill-opacity="1.000000" />
<path d="M 166.645020 71.272461 L 166.645020 75.000000 L 165.651367 75.000000 L 165.651367 71.272461 Q 165.651367 70.461426 165.366699 70.080078 Q 165.082031 69.698730 164.475098 69.698730 Q 163.782227 69.698730 163.408936 70.190186 Q 163.035645 70.681641 163.035645 71.600098 L 163.035645 75.000000 L 162.047363 75.000000 L 162.047363 68.984375 L 163.035645 68.984375 L 163.035645 69.886719 Q 163.298828 69.371094 163.750000 69.105225 Q 164.201172 68.839355 164.818848 68.839355 Q 165.737305 68.839355 166.191162 69.443604 Q 166.645020 70.047852 166.645020 71.272461 Z " fill="rgb(0, 0, 0)" fill-opacity="1.000000" />
<path d="M 169.783203 72.019043 Q 169.783203 73.168457 170.145752 73.753906 Q 170.508301 74.339355 171.222656 74.339355 Q 171.937012 74.339355 172.304932 73.751221 Q 172.672852 73.163086 172.672852 72.019043 Q 172.672852 70.875000 172.304932 70.286865 Q 171.937012 69.698730 171.222656 69.698730 Q 170.508301 69.698730 170.145752 70.284180 Q 169.783203 70.869629 169.783203 72.019043 Z M 172.672852 74.253418 Q 172.431152 74.699219 172.020264 74.938232 Q 171.609375 75.177246 171.066895 75.177246 Q 169.987305 75.177246 169.361572 74.342041 Q 168.735840 73.506836 168.735840 72.040527 Q 168.735840 70.547363 169.358887 69.704102 Q 169.981934 68.860840 171.066895 68.860840 Q 171.604004 68.860840 172.014893 69.094482 Q 172.425781 69.328125 172.672852 69.773926 L 172.672852 69.005859 L 173.666504 69.005859 L 173.666504 77.309570 L 172.672852 77.309570 Z " fill="rgb(0, 0, 0)" fill-opacity="1.000000" />
<path d="M 176.047363 72.722656 L 176.047363 68.995117 L 177.035645 68.995117 L 177.035645 72.722656 Q 177.035645 73.533691 177.322998 73.915039 Q 177.610352 74.296387 178.211914 74.296387 Q 178.910156 74.296387 179.280762 73.804932 Q 179.651367 73.313477 179.651367 72.395020 L 179.651367 68.995117 L 180.645020 68.995117 L 180.645020 75.000000 L 179.651367 75.000000 L 179.651367 74.097656 Q 179.388184 74.618652 178.934326 74.887207 Q 178.480469 75.155762 177.873535 75.155762 Q 176.949707 75.155762 176.498535 74.551514 Q 176.047363 73.947266 176.047363 72.722656 Z " fill="rgb(0, 0, 0)" fill-opacity="1.000000" />
<path d="M 188.015625 71.498047 L 188.015625 71.981445 L 183.734863 71.981445 L 183.734863 72.013672 Q 183.691895 73.243652 184.204834 73.780762 Q 184.717773 74.317871 185.652344 74.317871 Q 186.125000 74.317871 186.640625 74.167480 Q 187.156250 74.017090 187.741699 73.710938 L 187.741699 74.693848 Q 187.177734 74.924805 186.654053 75.040283 Q 186.130371 75.155762 185.641602 75.155762 Q 184.239746 75.155762 183.450195 74.315186 Q 182.660645 73.474609 182.660645 71.997559 Q 182.660645 70.558105 183.434082 69.698730 Q 184.207520 68.839355 185.496582 68.839355 Q 186.645996 68.839355 187.309326 69.618164 Q 187.972656 70.396973 188.015625 71.498047 Z M 187.027344 71.208008 Q 186.962891 70.584961 186.573486 70.131104 Q 186.184082 69.677246 185.453613 69.677246 Q 184.739258 69.677246 184.277344 70.149902 Q 183.815430 70.622559 183.772461 71.213379 Z " fill="rgb(0, 0, 0)" fill-opacity="1.000000" />
<path d="M 190.047363 72.722656 L 190.047363 68.995117 L 191.035645 68.995117 L 191.035645 72.722656 Q 191.035645 73.533691 191.322998 73.915039 Q 191.610352 74.296387 192.211914 74.296387 Q 192.910156 74.296387 193.280762 73.804932 Q 193.651367 73.313477 193.651367 72.395020 L 193.651367 68.995117 L 194.645020 68.995117 L 194.645020 75.000000 L 193.651367 75.000000 L 193.651367 74.097656 Q 193.388184 74.618652 192.934326 74.887207 Q 192.480469 75.155762 191.873535 75.155762 Q 190.949707 75.155762 190.498535 74.551514 Q 190.047363 73.947266 190.047363 72.722656 Z " fill="rgb(0, 0, 0)" fill-opacity="1.000000" />
<path d="M 202.015625 71.498047 L 202.015625 71.981445 L 197.734863 71.981445 L 197.734863 72.013672 Q 197.691895 73.243652 198.204834 73.780762 Q 198.717773 74.317871 199.652344 74.317871 Q 200.125000 74.317871 200.640625 74.167480 Q 201.156250 74.017090 201.741699 73.710938 L 201.741699 74.693848 Q 201.177734 74.924805 200.654053 75.040283 Q 200.130371 75.155762 199.641602 75.155762 Q 198.239746 75.155762 197.450195 74.315186 Q 196.660645 73.474609 196.660645 71.997559 Q 196.660645 70.558105 197.434082 69.698730 Q 198.207520 68.839355 199.496582 68.839355 Q 200.645996 68.839355 201.309326 69.618164 Q 201.972656 70.396973 202.015625 71.498047 Z M 201.027344 71.208008 Q 200.962891 70.584961 200.573486 70.131104 Q 200.184082 69.677246 199.453613 69.677246 Q 198.739258 69.677246 198.277344 70.149902 Q 197.815430 70.622559 197.772461 71.213379 Z " fill="rgb(0, 0, 0)" fill-opacity="1.000000" />
<path d="M 219.878906 78.319336 L 219.878906 64.300781 L 220.738281 64.300781 L 220.738281 78.319336 Z " fill="rgb(0, 0, 0)" fill-opacity="1.000000" />
<path d="M 247.878906 78.319336 L 247.878906 71.412109 L 251.729980 71.412109 L 251.729980 72.335938 L 248.738281 72.335938 L 248.738281 78.319336 Z " fill="rgb(0, 0, 0)" fill-opacity="1.000000" />
<path d="M 251.892578 72.335938 L 251.892578 71.412109 L 258.729980 71.412109 L 258.729980 72.335938 Z " fill="rgb(0, 0, 0)" fill-opacity="1.000000" />
<path d="M 258.892578 72.335938 L 258.892578 71.412109 L 265.729980 71.412109 L 265.729980 72.335938 Z " fill="rgb(0, 0, 0)" fill-opacity="1.000000" />
<path d="M 265.892578 72.335938 L 265.892578 71.412109 L 272.729980 71.412109 L 272.729980 72.335938 Z " fill="rgb(0, 0, 0)" fill-opacity="1.000000" />
<path d="M 272.892578 72.335938 L 272.892578 71.412109 L 279.729980 71.412109 L 279.729980 72.335938 Z " fill="rgb(0, 0, 0)" fill-opacity="1.000000" />
<path d="M 279.892578 72.335938 L 279.892578 71.412109 L 286.729980 71.412109 L 286.729980 72.335938 Z " fill="rgb(0, 0, 0)" fill-opacity="1.000000" />
<path d="M 286.892578 72.335938 L 286.892578 71.412109 L 293.729980 71.412109 L 293.729980 72.335938 Z " fill="rgb(0, 0, 0)" fill-opacity="1.000000" />
<path d="M 293.892578 72.335938 L 293.892578 71.412109 L 300.729980 71.412109 L 300.729980 72.335938 Z " fill="rgb(0, 0, 0)" fill-opacity="1.000000" />
<path d="M 300.892578 72.335938 L 300.892578 71.412109 L 307.729980 71.412109 L 307.729980 72.335938 Z " fill="rgb(0, 0, 0)" fill-opacity="1.000000" />
<path d="M 307.892578 72.335938 L 307.892578 71.412109 L 314.729980 71.412109 L 314.729980 72.335938 Z " fill="rgb(0, 0, 0)" fill-opacity="1.000000" />
<path d="M 314.892578 72.335938 L 314.892578 71.412109 L 321.729980 71.412109 L 321.729980 72.335938 Z " fill="rgb(0, 0, 0)" fill-opacity="1.000000" />
<path d="M 321.892578 72.335938 L 321.892578 71.412109 L 328.729980 71.412109 L 328.729980 72.335938 Z " fill="rgb(0, 0, 0)" fill-opacity="1.000000" />
<path d="M 328.892578 72.335938 L 328.892578 71.412109 L 335.729980 71.412109 L 335.729980 72.335938 Z " fill="rgb(0, 0, 0)" fill-opacity="1.000000" />
<path d="M 335.892578 72.335938 L 335.892578 71.412109 L 342.729980 71.412109 L 342.729980 72.335938 Z " fill="rgb(0, 0, 0)" fill-opacity="1.000000" />
<path d="M 342.892578 72.335938 L 342.892578 71.412109 L 349.729980 71.412109 L 349.729980 72.335938 Z " fill="rgb(0, 0, 0)" fill-opacity="1.000000" />
<path d="M 349.892578 72.335938 L 349.892578 71.412109 L 356.729980 71.412109 L 356.729980 72.335938 Z " fill="rgb(0, 0, 0)" fill-opacity="1.000000" />
<path d="M 356.892578 72.335938 L 356.892578 71.412109 L 363.729980 71.412109 L 363.729980 72.335938 Z " fill="rgb(0, 0, 0)" fill-opacity="1.000000" />
<path d="M 363.892578 72.335938 L 363.892578 71.412109 L 370.729980 71.412109 L 370.729980 72.335938 Z " fill="rgb(0, 0, 0)" fill-opacity="1.000000" />
<path d="M 370.892578 72.335938 L 370.892578 71.412109 L 377.729980 71.412109 L 377.729980 72.335938 Z " fill="rgb(0, 0, 0)" fill-opacity="1.000000" />
<path d="M 377.892578 72.335938 L 377.892578 71.412109 L 384.729980 71.412109 L 384.729980 72.335938 Z " fill="rgb(0, 0, 0)" fill-opacity="1.000000" />
<path d="M 384.892578 72.335938 L 384.892578 71.412109 L 391.729980 71.412109 L 391.729980 72.335938 Z " fill="rgb(0, 0, 0)" fill-opacity="1.000000" />
<path d="M 391.892578 72.335938 L 391.892578 71.412109 L 398.729980 71.412109 L 398.729980 72.335938 Z " fill="rgb(0, 0, 0)" fill-opacity="1.000000" />
<path d="M 398.892578 72.335938 L 398.892578 71.412109 L 405.729980 71.412109 L 405.729980 72.335938 Z " fill="rgb(0, 0, 0)" fill-opacity="1.000000" />
<path d="M 405.892578 72.335938 L 405.892578 71.412109 L 408.878906 71.412109 L 408.878906 64.300781 L 409.738281 64.300781 L 409.738281 72.335938 Z " fill="rgb(0, 0, 0)" fill-opacity="1.000000" />
<path d="M 219.878906 52.319336 L 219.878906 38.300781 L 220.738281 38.300781 L 220.738281 52.319336 Z " fill="rgb(0, 0, 0)" fill-opacity="1.000000" />
<path d="M 219.878906 65.319336 L 219.878906 51.300781 L 220.738281 51.300781 L 220.738281 65.319336 Z " fill="rgb(0, 0, 0)" fill-opacity="1.000000" />
<path d="M 291.608398 56.752441 L 291.608398 53.642578 L 292.596680 53.642578 L 292.596680 62.000000 L 291.608398 62.000000 L 291.608398 61.242676 Q 291.361328 61.688477 290.950439 61.922119 Q 290.539551 62.155762 290.002441 62.155762 Q 288.912109 62.155762 288.286377 61.309814 Q 287.660645 60.463867 287.660645 58.976074 Q 287.660645 57.509766 288.289062 56.674561 Q 288.917480 55.839355 290.002441 55.839355 Q 290.544922 55.839355 290.958496 56.072998 Q 291.372070 56.306641 291.608398 56.752441 Z M 288.702637 58.997559 Q 288.702637 60.146973 289.067871 60.732422 Q 289.433105 61.317871 290.147461 61.317871 Q 290.861816 61.317871 291.235107 60.727051 Q 291.608398 60.136230 291.608398 58.997559 Q 291.608398 57.853516 291.235107 57.265381 Q 290.861816 56.677246 290.147461 56.677246 Q 289.433105 56.677246 289.067871 57.262695 Q 288.702637 57.848145 288.702637 58.997559 Z " fill="rgb(0, 0, 0)" fill-opacity="1.000000" />
<path d="M 300.015625 58.498047 L 300.015625 58.981445 L 295.734863 58.981445 L 295.734863 59.013672 Q 295.691895 60.243652 296.204834 60.780762 Q 296.717773 61.317871 297.652344 61.317871 Q 298.125000 61.317871 298.640625 61.167480 Q 299.156250 61.017090 299.741699 60.710938 L 299.741699 61.693848 Q 299.177734 61.924805 298.654053 62.040283 Q 298.130371 62.155762 297.641602 62.155762 Q 296.239746 62.155762 295.450195 61.315186 Q 294.660645 60.474609 294.660645 58.997559 Q 294.660645 57.558105 295.434082 56.698730 Q 296.207520 55.839355 297.496582 55.839355 Q 298.645996 55.839355 299.309326 56.618164 Q 299.972656 57.396973 300.015625 58.498047 Z M 299.027344 58.208008 Q 298.962891 57.584961 298.573486 57.131104 Q 298.184082 56.677246 297.453613 56.677246 Q 296.739258 56.677246 296.277344 57.149902 Q 295.815430 57.622559 295.772461 58.213379 Z " fill="rgb(0, 0, 0)" fill-opacity="1.000000" />
<path d="M 302.783203 59.019043 Q 302.783203 60.168457 303.145752 60.753906 Q 303.508301 61.339355 304.222656 61.339355 Q 304.937012 61.339355 305.304932 60.751221 Q 305.672852 60.163086 305.672852 59.019043 Q 305.672852 57.875000 305.304932 57.286865 Q 304.937012 56.698730 304.222656 56.698730 Q 303.508301 56.698730 303.145752 57.284180 Q 302.783203 57.869629 302.783203 59.019043 Z M 305.672852 61.253418 Q 305.431152 61.699219 305.020264 61.938232 Q 304.609375 62.177246 304.066895 62.177246 Q 302.987305 62.177246 302.361572 61.342041 Q 301.735840 60.506836 301.735840 59.040527 Q 301.735840 57.547363 302.358887 56.704102 Q 302.981934 55.860840 304.066895 55.860840 Q 304.604004 55.860840 305.014893 56.094482 Q 305.425781 56.328125 305.672852 56.773926 L 305.672852 56.005859 L 306.666504 56.005859 L 306.666504 64.309570 L 305.672852 64.309570 Z " fill="rgb(0, 0, 0)" fill-opacity="1.000000" />
<path d="M 309.047363 59.722656 L 309.047363 55.995117 L 310.035645 55.995117 L 310.035645 59.722656 Q 310.035645 60.533691 310.322998 60.915039 Q 310.610352 61.296387 311.211914 61.296387 Q 311.910156 61.296387 312.280762 60.804932 Q 312.651367 60.313477 312.651367 59.395020 L 312.651367 55.995117 L 313.645020 55.995117 L 313.645020 62.000000 L 312.651367 62.000000 L 312.651367 61.097656 Q 312.388184 61.618652 311.934326 61.887207 Q 311.480469 62.155762 310.873535 62.155762 Q 309.949707 62.155762 309.498535 61.551514 Q 309.047363 60.947266 309.047363 59.722656 Z " fill="rgb(0, 0, 0)" fill-opacity="1.000000" />
<path d="M 321.015625 58.498047 L 321.015625 58.981445 L 316.734863 58.981445 L 316.734863 59.013672 Q 316.691895 60.243652 317.204834 60.780762 Q 317.717773 61.317871 318.652344 61.317871 Q 319.125000 61.317871 319.640625 61.167480 Q 320.156250 61.017090 320.741699 60.710938 L 320.741699 61.693848 Q 320.177734 61.924805 319.654053 62.040283 Q 319.130371 62.155762 318.641602 62.155762 Q 317.239746 62.155762 316.450195 61.315186 Q 315.660645 60.474609 315.660645 58.997559 Q 315.660645 57.558105 316.434082 56.698730 Q 317.207520 55.839355 318.496582 55.839355 Q 319.645996 55.839355 320.309326 56.618164 Q 320.972656 57.396973 321.015625 58.498047 Z M 320.027344 58.208008 Q 319.962891 57.584961 319.573486 57.131104 Q 319.184082 56.677246 318.453613 56.677246 Q 317.739258 56.677246 317.277344 57.149902 Q 316.815430 57.622559 316.772461 58.213379 Z " fill="rgb(0, 0, 0)" fill-opacity="1.000000" />
<path d="M 323.047363 59.722656 L 323.047363 55.995117 L 324.035645 55.995117 L 324.035645 59.722656 Q 324.035645 60.533691 324.322998 60.915039 Q 324.610352 61.296387 325.211914 61.296387 Q 325.910156 61.296387 326.280762 60.804932 Q 326.651367 60.313477 326.651367 59.395020 L 326.651367 55.995117 L 327.645020 55.995117 L 327.645020 62.000000 L 326.651367 62.000000 L 326.651367 61.097656 Q 326.388184 61.618652 325.934326 61.887207 Q 325.480469 62.155762 324.873535 62.155762 Q 323.949707 62.155762 323.498535 61.551514 Q 323.047363 60.947266 323.047363 59.722656 Z " fill="rgb(0, 0, 0)" fill-opacity="1.000000" />
<path d="M 335.015625 58.498047 L 335.015625 58.981445 L 330.734863 58.981445 L 330.734863 59.013672 Q 330.691895 60.243652 331.204834 60.780762 Q 331.717773 61.317871 332.652344 61.317871 Q 333.125000 61.317871 333.640625 61.167480 Q 334.156250 61.017090 334.741699 60.710938 L 334.741699 61.693848 Q 334.177734 61.924805 333.654053 62.040283 Q 333.130371 62.155762 332.641602 62.155762 Q 331.239746 62.155762 330.450195 61.315186 Q 329.660645 60.474609 329.660645 58.997559 Q 329.660645 57.558105 330.434082 56.698730 Q 331.207520 55.839355 332.496582 55.839355 Q 333.645996 55.839355 334.309326 56.618164 Q 334.972656 57.396973 335.015625 58.498047 Z M 334.027344 58.208008 Q 333.962891 57.584961 333.573486 57.131104 Q 333.184082 56.677246 332.453613 56.677246 Q 331.739258 56.677246 331.277344 57.149902 Q 330.815430 57.622559 330.772461 58.213379 Z " fill="rgb(0, 0, 0)" fill-opacity="1.000000" />
<path d="M 408.878906 65.319336 L 408.878906 51.300781 L 409.738281 51.300781 L 409.738281 65.319336 Z " fill="rgb(0, 0, 0)" fill-opacity="1.000000" />
<path d="M 406.032227 49.418945 L 409.308594 42.866211 L 412.590332 49.418945 Z " fill="rgb(0, 0, 0)" fill-opacity="1.000000" />
<path d="M 6.892578 33.335938 L 6.892578 32.412109 L 13.729980 32.412109 L 13.729980 33.335938 Z " fill="rgb(0, 0, 0)" fill-opacity="1.000000" />
<path d="M 13.892578 33.335938 L 13.892578 32.412109 L 20.729980 32.412109 L 20.729980 33.335938 Z " fill="rgb(0, 0, 0)" fill-opacity="1.000000" />
<path d="M 20.892578 33.335938 L 20.892578 32.412109 L 27.729980 32.412109 L 27.729980 33.335938 Z " fill="rgb(0, 0, 0)" fill-opacity="1.000000" />
<path d="M 27.892578 33.335938 L 27.892578 32.412109 L 34.729980 32.412109 L 34.729980 33.335938 Z " fill="rgb(0, 0, 0)" fill-opacity="1.000000" />
<path d="M 34.892578 33.335938 L 34.892578 32.412109 L 41.729980 32.412109 L 41.729980 33.335938 Z " fill="rgb(0, 0, 0)" fill-opacity="1.000000" />
<path d="M 41.892578 33.335938 L 41.892578 32.412109 L 48.729980 32.412109 L 48.729980 33.335938 Z " fill="rgb(0, 0, 0)" fill-opacity="1.000000" />
<path d="M 48.892578 33.335938 L 48.892578 32.412109 L 55.729980 32.412109 L 55.729980 33.335938 Z " fill="rgb(0, 0, 0)" fill-opacity="1.000000" />
<path d="M 55.892578 33.335938 L 55.892578 32.412109 L 62.729980 32.412109 L 62.729980 33.335938 Z " fill="rgb(0, 0, 0)" fill-opacity="1.000000" />
<path d="M 62.892578 33.335938 L 62.892578 32.412109 L 69.729980 32.412109 L 69.729980 33.335938 Z " fill="rgb(0, 0, 0)" fill-opacity="1.000000" />
<path d="M 69.892578 33.335938 L 69.892578 32.412109 L 76.729980 32.412109 L 76.729980 33.335938 Z " fill="rgb(0, 0, 0)" fill-opacity="1.000000" />
<path d="M 76.892578 33.335938 L 76.892578 32.412109 L 83.729980 32.412109 L 83.729980 33.335938 Z " fill="rgb(0, 0, 0)" fill-opacity="1.000000" />
<path d="M 83.892578 33.335938 L 83.892578 32.412109 L 90.729980 32.412109 L 90.729980 33.335938 Z " fill="rgb(0, 0, 0)" fill-opacity="1.000000" />
<path d="M 90.892578 33.335938 L 90.892578 32.412109 L 97.729980 32.412109 L 97.729980 33.335938 Z " fill="rgb(0, 0, 0)" fill-opacity="1.000000" />
<path d="M 97.892578 33.335938 L 97.892578 32.412109 L 100.878906 32.412109 L 100.878906 25.300781 L 101.738281 25.300781 L 101.738281 33.335938 Z " fill="rgb(0, 0, 0)" fill-opacity="1.000000" />
<path d="M 170.878906 33.335938 L 170.878906 25.300781 L 171.738281 25.300781 L 171.738281 32.412109 L 174.729980 32.412109 L 174.729980 33.335938 Z " fill="rgb(0, 0, 0)" fill-opacity="1.000000" />
<path d="M 174.892578 33.335938 L 174.892578 32.412109 L 181.729980 32.412109 L 181.729980 33.335938 Z " fill="rgb(0, 0, 0)" fill-opacity="1.000000" />
<path d="M 181.892578 33.335938 L 181.892578 32.412109 L 188.729980 32.412109 L 188.729980 33.335938 Z " fill="rgb(0, 0, 0)" fill-opacity="1.000000" />
<path d="M 188.892578 33.335938 L 188.892578 32.412109 L 195.729980 32.412109 L 195.729980 33.335938 Z " fill="rgb(0, 0, 0)" fill-opacity="1.000000" />
<path d="M 195.892578 33.335938 L 195.892578 32.412109 L 202.729980 32.412109 L 202.729980 33.335938 Z " fill="rgb(0, 0, 0)" fill-opacity="1.000000" />
<path d="M 202.892578 33.335938 L 202.892578 32.412109 L 209.729980 32.412109 L 209.729980 33.335938 Z " fill="rgb(0, 0, 0)" fill-opacity="1.000000" />
<path d="M 209.892578 33.335938 L 209.892578 32.412109 L 216.729980 32.412109 L 216.729980 33.335938 Z " fill="rgb(0, 0, 0)" fill-opacity="1.000000" />
<path d="M 216.892578 33.335938 L 216.892578 32.412109 L 223.729980 32.412109 L 223.729980 33.335938 Z " fill="rgb(0, 0, 0)" fill-opacity="1.000000" />
<path d="M 223.892578 33.335938 L 223.892578 32.412109 L 230.729980 32.412109 L 230.729980 33.335938 Z " fill="rgb(0, 0, 0)" fill-opacity="1.000000" />
<path d="M 230.892578 33.335938 L 230.892578 32.412109 L 237.729980 32.412109 L 237.729980 33.335938 Z " fill="rgb(0, 0, 0)" fill-opacity="1.000000" />
<path d="M 237.892578 33.335938 L 237.892578 32.412109 L 244.729980 32.412109 L 244.729980 33.335938 Z " fill="rgb(0, 0, 0)" fill-opacity="1.000000" />
<path d="M 244.892578 33.335938 L 244.892578 32.412109 L 251.729980 32.412109 L 251.729980 33.335938 Z " fill="rgb(0, 0, 0)" fill-opacity="1.000000" />
<path d="M 251.892578 33.335938 L 251.892578 32.412109 L 258.729980 32.412109 L 258.729980 33.335938 Z " fill="rgb(0, 0, 0)" fill-opacity="1.000000" />
<path d="M 258.892578 33.335938 L 258.892578 32.412109 L 265.729980 32.412109 L 265.729980 33.335938 Z " fill="rgb(0, 0, 0)" fill-opacity="1.000000" />
<path d="M 265.892578 33.335938 L 265.892578 32.412109 L 268.878906 32.412109 L 268.878906 25.300781 L 269.738281 25.300781 L 269.738281 33.335938 Z " fill="rgb(0, 0, 0)" fill-opacity="1.000000" />
<path d="M 359.878906 33.335938 L 359.878906 25.300781 L 360.738281 25.300781 L 360.738281 32.412109 L 363.729980 32.412109 L 363.729980 33.335938 Z " fill="rgb(0, 0, 0)" fill-opacity="1.000000" />
<path d="M 363.892578 33.335938 L 363.892578 32.412109 L 370.729980 32.412109 L 370.729980 33.335938 Z " fill="rgb(0, 0, 0)" fill-opacity="1.000000" />
<path d="M 370.892578 33.335938 L 370.892578 32.412109 L 377.729980 32.412109 L 377.729980 33.335938 Z " fill="rgb(0, 0, 0)" fill-opacity="1.000000" />
<path d="M 377.892578 33.335938 L 377.892578 32.412109 L 384.729980 32.412109 L 384.729980 33.335938 Z " fill="rgb(0, 0, 0)" fill-opacity="1.000000" />
<path d="M 384.892578 33.335938 L 384.892578 32.412109 L 391.729980 32.412109 L 391.729980 33.335938 Z " fill="rgb(0, 0, 0)" fill-opacity="1.000000" />
<path d="M 391.892578 33.335938 L 391.892578 32.412109 L 398.729980 32.412109 L 398.729980 33.335938 Z " fill="rgb(0, 0, 0)" fill-opacity="1.000000" />
<path d="M 398.892578 33.335938 L 398.892578 32.412109 L 405.729980 32.412109 L 405.729980 33.335938 Z " fill="rgb(0, 0, 0)" fill-opacity="1.000000" />
<path d="M 405.892578 33.335938 L 405.892578 32.412109 L 412.729980 32.412109 L 412.729980 33.335938 Z " fill="rgb(0, 0, 0)" fill-opacity="1.000000" />
<path d="M 412.892578 33.335938 L 412.892578 32.412109 L 419.729980 32.412109 L 419.729980 33.335938 Z " fill="rgb(0, 0, 0)" fill-opacity="1.000000" />
<path d="M 419.892578 33.335938 L 419.892578 32.412109 L 426.729980 32.412109 L 426.729980 33.335938 Z " fill="rgb(0, 0, 0)" fill-opacity="1.000000" />
<path d="M 426.892578 33.335938 L 426.892578 32.412109 L 433.729980 32.412109 L 433.729980 33.335938 Z " fill="rgb(0, 0, 0)" fill-opacity="1.000000" />
<path d="M 433.892578 33.335938 L 433.892578 32.412109 L 440.729980 32.412109 L 440.729980 33.335938 Z " fill="rgb(0, 0, 0)" fill-opacity="1.000000" />
<path d="M 440.892578 33.335938 L 440.892578 32.412109 L 447.729980 32.412109 L 447.729980 33.335938 Z " fill="rgb(0, 0, 0)" fill-opacity="1.000000" />
<path d="M 447.892578 33.335938 L 447.892578 32.412109 L 454.729980 32.412109 L 454.729980 33.335938 Z " fill="rgb(0, 0, 0)" fill-opacity="1.000000" />
<path d="M 454.892578 33.335938 L 454.892578 32.412109 L 457.878906 32.412109 L 457.878906 25.300781 L 458.738281 25.300781 L 458.738281 33.335938 Z " fill="rgb(0, 0, 0)" fill-opacity="1.000000" />
<path d="M 33.435547 15.254883 L 33.435547 16.355957 Q 32.941406 16.039062 32.444580 15.877930 Q 31.947754 15.716797 31.442871 15.716797 Q 30.674805 15.716797 30.229004 16.073975 Q 29.783203 16.431152 29.783203 17.038086 Q 29.783203 17.569824 30.075928 17.849121 Q 30.368652 18.128418 31.168945 18.316406 L 31.738281 18.445312 Q 32.866211 18.708496 33.381836 19.272461 Q 33.897461 19.836426 33.897461 20.808594 Q 33.897461 21.952637 33.188477 22.554199 Q 32.479492 23.155762 31.125977 23.155762 Q 30.562012 23.155762 29.992676 23.034912 Q 29.423340 22.914062 28.848633 22.672363 L 28.848633 21.517578 Q 29.466309 21.909668 30.016846 22.092285 Q 30.567383 22.274902 31.125977 22.274902 Q 31.947754 22.274902 32.404297 21.906982 Q 32.860840 21.539062 32.860840 20.878418 Q 32.860840 20.276855 32.546631 19.959961 Q 32.232422 19.643066 31.453613 19.471191 L 30.873535 19.336914 Q 29.756348 19.084473 29.251465 18.574219 Q 28.746582 18.063965 28.746582 17.204590 Q 28.746582 16.130371 29.468994 15.483154 Q 30.191406 14.835938 31.389160 14.835938 Q 31.851074 14.835938 32.361328 14.940674 Q 32.871582 15.045410 33.435547 15.254883 Z " fill="rgb(0, 0, 0)" fill-opacity="1.000000" />
<path d="M 41.015625 19.498047 L 41.015625 19.981445 L 36.734863 19.981445 L 36.734863 20.013672 Q 36.691895 21.243652 37.204834 21.780762 Q 37.717773 22.317871 38.652344 22.317871 Q 39.125000 22.317871 39.640625 22.167480 Q 40.156250 22.017090 40.741699 21.710938 L 40.741699 22.693848 Q 40.177734 22.924805 39.654053 23.040283 Q 39.130371 23.155762 38.641602 23.155762 Q 37.239746 23.155762 36.450195 22.315186 Q 35.660645 21.474609 35.660645 19.997559 Q 35.660645 18.558105 36.434082 17.698730 Q 37.207520 16.839355 38.496582 16.839355 Q 39.645996 16.839355 40.309326 17.618164 Q 40.972656 18.396973 41.015625 19.498047 Z M 40.027344 19.208008 Q 39.962891 18.584961 39.573486 18.131104 Q 39.184082 17.677246 38.453613 17.677246 Q 37.739258 17.677246 37.277344 18.149902 Q 36.815430 18.622559 36.772461 19.213379 Z " fill="rgb(0, 0, 0)" fill-opacity="1.000000" />
<path d="M 47.645020 19.272461 L 47.645020 23.000000 L 46.651367 23.000000 L 46.651367 19.272461 Q 46.651367 18.461426 46.366699 18.080078 Q 46.082031 17.698730 45.475098 17.698730 Q 44.782227 17.698730 44.408936 18.190186 Q 44.035645 18.681641 44.035645 19.600098 L 44.035645 23.000000 L 43.047363 23.000000 L 43.047363 16.984375 L 44.035645 16.984375 L 44.035645 17.886719 Q 44.298828 17.371094 44.750000 17.105225 Q 45.201172 16.839355 45.818848 16.839355 Q 46.737305 16.839355 47.191162 17.443604 Q 47.645020 18.047852 47.645020 19.272461 Z " fill="rgb(0, 0, 0)" fill-opacity="1.000000" />
<path d="M 53.608398 17.752441 L 53.608398 14.642578 L 54.596680 14.642578 L 54.596680 23.000000 L 53.608398 23.000000 L 53.608398 22.242676 Q 53.361328 22.688477 52.950439 22.922119 Q 52.539551 23.155762 52.002441 23.155762 Q 50.912109 23.155762 50.286377 22.309814 Q 49.660645 21.463867 49.660645 19.976074 Q 49.660645 18.509766 50.289062 17.674561 Q 50.917480 16.839355 52.002441 16.839355 Q 52.544922 16.839355 52.958496 17.072998 Q 53.372070 17.306641 53.608398 17.752441 Z M 50.702637 19.997559 Q 50.702637 21.146973 51.067871 21.732422 Q 51.433105 22.317871 52.147461 22.317871 Q 52.861816 22.317871 53.235107 21.727051 Q 53.608398 21.136230 53.608398 19.997559 Q 53.608398 18.853516 53.235107 18.265381 Q 52.861816 17.677246 52.147461 17.677246 Q 51.433105 17.677246 51.067871 18.262695 Q 50.702637 18.848145 50.702637 19.997559 Z " fill="rgb(0, 0, 0)" fill-opacity="1.000000" />
<path d="M 62.015625 19.498047 L 62.015625 19.981445 L 57.734863 19.981445 L 57.734863 20.013672 Q 57.691895 21.243652 58.204834 21.780762 Q 58.717773 22.317871 59.652344 22.317871 Q 60.125000 22.317871 60.640625 22.167480 Q 61.156250 22.017090 61.741699 21.710938 L 61.741699 22.693848 Q 61.177734 22.924805 60.654053 23.040283 Q 60.130371 23.155762 59.641602 23.155762 Q 58.239746 23.155762 57.450195 22.315186 Q 56.660645 21.474609 56.660645 19.997559 Q 56.660645 18.558105 57.434082 17.698730 Q 58.207520 16.839355 59.496582 16.839355 Q 60.645996 16.839355 61.309326 17.618164 Q 61.972656 18.396973 62.015625 19.498047 Z M 61.027344 19.208008 Q 60.962891 18.584961 60.573486 18.131104 Q 60.184082 17.677246 59.453613 17.677246 Q 58.739258 17.677246 58.277344 18.149902 Q 57.815430 18.622559 57.772461 19.213379 Z " fill="rgb(0, 0, 0)" fill-opacity="1.000000" />
<path d="M 69.203613 18.225098 Q 68.886719 17.978027 68.559082 17.865234 Q 68.231445 17.752441 67.839355 17.752441 Q 66.915527 17.752441 66.426758 18.332520 Q 65.937988 18.912598 65.937988 20.008301 L 65.937988 23.000000 L 64.944336 23.000000 L 64.944336 16.984375 L 65.937988 16.984375 L 65.937988 18.160645 Q 66.185059 17.521484 66.697998 17.180420 Q 67.210938 16.839355 67.914551 16.839355 Q 68.279785 16.839355 68.596680 16.930664 Q 68.913574 17.021973 69.203613 17.215332 Z " fill="rgb(0, 0, 0)" fill-opacity="1.000000" />
<path d="M 100.878906 26.319336 L 100.878906 12.300781 L 101.738281 12.300781 L 101.738281 26.319336 Z " fill="rgb(0, 0, 0)" fill-opacity="1.000000" />
<path d="M 104.892578 20.335938 L 104.892578 19.412109 L 111.729980 19.412109 L 111.729980 20.335938 Z " fill="rgb(0, 0, 0)" fill-opacity="1.000000" />
<path d="M 111.892578 20.335938 L 111.892578 19.412109 L 118.729980 19.412109 L 118.729980 20.335938 Z " fill="rgb(0, 0, 0)" fill-opacity="1.000000" />
<path d="M 118.892578 20.335938 L 118.892578 19.412109 L 125.729980 19.412109 L 125.729980 20.335938 Z " fill="rgb(0, 0, 0)" fill-opacity="1.000000" />
<path d="M 125.892578 20.335938 L 125.892578 19.412109 L 132.729980 19.412109 L 132.729980 20.335938 Z " fill="rgb(0, 0, 0)" fill-opacity="1.000000" />
<path d="M 132.892578 20.335938 L 132.892578 19.412109 L 139.729980 19.412109 L 139.729980 20.335938 Z " fill="rgb(0, 0, 0)" fill-opacity="1.000000" />
<path d="M 139.892578 20.335938 L 139.892578 19.412109 L 146.729980 19.412109 L 146.729980 20.335938 Z " fill="rgb(0, 0, 0)" fill-opacity="1.000000" />
<path d="M 146.892578 20.335938 L 146.892578 19.412109 L 153.729980 19.412109 L 153.729980 20.335938 Z " fill="rgb(0, 0, 0)" fill-opacity="1.000000" />
<path d="M 153.892578 20.335938 L 153.892578 19.412109 L 160.729980 19.412109 L 160.729980 20.335938 Z " fill="rgb(0, 0, 0)" fill-opacity="1.000000" />
<path d="M 161.032227 23.418945 L 161.032227 16.866211 L 167.590332 20.142578 Z " fill="rgb(0, 0, 0)" fill-opacity="1.000000" />
<path d="M 170.878906 26.319336 L 170.878906 12.300781 L 171.738281 12.300781 L 171.738281 26.319336 Z " fill="rgb(0, 0, 0)" fill-opacity="1.000000" />
<path d="M 192.308594 15.937012 L 191.164551 20.040527 L 193.452637 20.040527 Z M 191.653320 14.980957 L 192.969238 14.980957 L 195.423828 23.000000 L 194.301270 23.000000 L 193.710449 20.910645 L 190.901367 20.910645 L 190.321289 23.000000 L 189.198730 23.000000 Z " fill="rgb(0, 0, 0)" fill-opacity="1.000000" />
<path d="M 201.698730 22.693848 Q 201.301270 22.924805 200.879639 23.040283 Q 200.458008 23.155762 200.017578 23.155762 Q 198.621094 23.155762 197.834229 22.317871 Q 197.047363 21.479980 197.047363 19.997559 Q 197.047363 18.515137 197.834229 17.677246 Q 198.621094 16.839355 200.017578 16.839355 Q 200.452637 16.839355 200.866211 16.952148 Q 201.279785 17.064941 201.698730 17.301270 L 201.698730 18.337891 Q 201.306641 17.988770 200.911865 17.833008 Q 200.517090 17.677246 200.017578 17.677246 Q 199.088379 17.677246 198.588867 18.278809 Q 198.089355 18.880371 198.089355 19.997559 Q 198.089355 21.109375 198.591553 21.713623 Q 199.093750 22.317871 200.017578 22.317871 Q 200.533203 22.317871 200.941406 22.159424 Q 201.349609 22.000977 201.698730 21.667969 Z " fill="rgb(0, 0, 0)" fill-opacity="1.000000" />
<path d="M 206.297852 15.276367 L 206.297852 16.984375 L 208.542969 16.984375 L 208.542969 17.752441 L 206.297852 17.752441 L 206.297852 21.018066 Q 206.297852 21.684082 206.550293 21.947266 Q 206.802734 22.210449 207.431152 22.210449 L 208.542969 22.210449 L 208.542969 23.000000 L 207.334473 23.000000 Q 206.222656 23.000000 205.766113 22.554199 Q 205.309570 22.108398 205.309570 21.018066 L 205.309570 17.752441 L 203.703613 17.752441 L 203.703613 16.984375 L 205.309570 16.984375 L 205.309570 15.276367 Z " fill="rgb(0, 0, 0)" fill-opacity="1.000000" />
<path d="M 213.308594 17.677246 Q 212.556641 17.677246 212.169922 18.262695 Q 211.783203 18.848145 211.783203 19.997559 Q 211.783203 21.141602 212.169922 21.729736 Q 212.556641 22.317871 213.308594 22.317871 Q 214.065918 22.317871 214.452637 21.729736 Q 214.839355 21.141602 214.839355 19.997559 Q 214.839355 18.848145 214.452637 18.262695 Q 214.065918 17.677246 213.308594 17.677246 Z M 213.308594 16.839355 Q 214.560059 16.839355 215.223389 17.650391 Q 215.886719 18.461426 215.886719 19.997559 Q 215.886719 21.539062 215.226074 22.347412 Q 214.565430 23.155762 213.308594 23.155762 Q 212.057129 23.155762 211.396484 22.347412 Q 210.735840 21.539062 210.735840 19.997559 Q 210.735840 18.461426 211.396484 17.650391 Q 212.057129 16.839355 213.308594 16.839355 Z " fill="rgb(0, 0, 0)" fill-opacity="1.000000" />
<path d="M 223.203613 18.225098 Q 222.886719 17.978027 222.559082 17.865234 Q 222.231445 17.752441 221.839355 17.752441 Q 220.915527 17.752441 220.426758 18.332520 Q 219.937988 18.912598 219.937988 20.008301 L 219.937988 23.000000 L 218.944336 23.000000 L 218.944336 16.984375 L 219.937988 16.984375 L 219.937988 18.160645 Q 220.185059 17.521484 220.697998 17.180420 Q 221.210938 16.839355 221.914551 16.839355 Q 222.279785 16.839355 222.596680 16.930664 Q 222.913574 17.021973 223.203613 17.215332 Z " fill="rgb(0, 0, 0)" fill-opacity="1.000000" />
<path d="M 228.082031 19.213379 Q 228.500977 19.320801 228.796387 19.618896 Q 229.091797 19.916992 229.532227 20.808594 L 230.622559 23.000000 L 229.457031 23.000000 L 228.500977 20.975098 Q 228.087402 20.110352 227.757080 19.860596 Q 227.426758 19.610840 226.895020 19.610840 L 225.858398 19.610840 L 225.858398 23.000000 L 224.768066 23.000000 L 224.768066 14.980957 L 227.002441 14.980957 Q 228.323730 14.980957 229.027344 15.577148 Q 229.730957 16.173340 229.730957 17.301270 Q 229.730957 18.096191 229.298584 18.598389 Q 228.866211 19.100586 228.082031 19.213379 Z M 225.858398 15.872559 L 225.858398 18.719238 L 227.045410 18.719238 Q 227.824219 18.719238 228.205566 18.370117 Q 228.586914 18.020996 228.586914 17.301270 Q 228.586914 16.608398 228.181396 16.240479 Q 227.775879 15.872559 227.002441 15.872559 Z " fill="rgb(0, 0, 0)" fill-opacity="1.000000" />
<path d="M 237.015625 19.498047 L 237.015625 19.981445 L 232.734863 19.981445 L 232.734863 20.013672 Q 232.691895 21.243652 233.204834 21.780762 Q 233.717773 22.317871 234.652344 22.317871 Q 235.125000 22.317871 235.640625 22.167480 Q 236.156250 22.017090 236.741699 21.710938 L 236.741699 22.693848 Q 236.177734 22.924805 235.654053 23.040283 Q 235.130371 23.155762 234.641602 23.155762 Q 233.239746 23.155762 232.450195 22.315186 Q 231.660645 21.474609 231.660645 19.997559 Q 231.660645 18.558105 232.434082 17.698730 Q 233.207520 16.839355 234.496582 16.839355 Q 235.645996 16.839355 236.309326 17.618164 Q 236.972656 18.396973 237.015625 19.498047 Z M 236.027344 19.208008 Q 235.962891 18.584961 235.573486 18.131104 Q 235.184082 17.677246 234.453613 17.677246 Q 233.739258 17.677246 233.277344 18.149902 Q 232.815430 18.622559 232.772461 19.213379 Z " fill="rgb(0, 0, 0)" fill-opacity="1.000000" />
<path d="M 243.709473 14.642578 L 243.709473 15.464355 L 242.586914 15.464355 Q 242.055176 15.464355 241.848389 15.681885 Q 241.641602 15.899414 241.641602 16.452637 L 241.641602 16.984375 L 243.709473 16.984375 L 243.709473 17.752441 L 241.641602 17.752441 L 241.641602 23.000000 L 240.653320 23.000000 L 240.653320 17.752441 L 239.047363 17.752441 L 239.047363 16.984375 L 240.653320 16.984375 L 240.653320 16.565430 Q 240.653320 15.577148 241.107178 15.109863 Q 241.561035 14.642578 242.522461 14.642578 Z " fill="rgb(0, 0, 0)" fill-opacity="1.000000" />
<path d="M 268.878906 26.319336 L 268.878906 12.300781 L 269.738281 12.300781 L 269.738281 26.319336 Z " fill="rgb(0, 0, 0)" fill-opacity="1.000000" />
<path d="M 359.878906 26.319336 L 359.878906 12.300781 L 360.738281 12.300781 L 360.738281 26.319336 Z " fill="rgb(0, 0, 0)" fill-opacity="1.000000" />
<path d="M 395.308594 15.937012 L 394.164551 20.040527 L 396.452637 20.040527 Z M 394.653320 14.980957 L 395.969238 14.980957 L 398.423828 23.000000 L 397.301270 23.000000 L 396.710449 20.910645 L 393.901367 20.910645 L 393.321289 23.000000 L 392.198730 23.000000 Z " fill="rgb(0, 0, 0)" fill-opacity="1.000000" />
<path d="M 404.698730 22.693848 Q 404.301270 22.924805 403.879639 23.040283 Q 403.458008 23.155762 403.017578 23.155762 Q 401.621094 23.155762 400.834229 22.317871 Q 400.047363 21.479980 400.047363 19.997559 Q 400.047363 18.515137 400.834229 17.677246 Q 401.621094 16.839355 403.017578 16.839355 Q 403.452637 16.839355 403.866211 16.952148 Q 404.279785 17.064941 404.698730 17.301270 L 404.698730 18.337891 Q 404.306641 17.988770 403.911865 17.833008 Q 403.517090 17.677246 403.017578 17.677246 Q 402.088379 17.677246 401.588867 18.278809 Q 401.089355 18.880371 401.089355 19.997559 Q 401.089355 21.109375 401.591553 21.713623 Q 402.093750 22.317871 403.017578 22.317871 Q 403.533203 22.317871 403.941406 22.159424 Q 404.349609 22.000977 404.698730 21.667969 Z " fill="rgb(0, 0, 0)" fill-opacity="1.000000" />
<path d="M 409.297852 15.276367 L 409.297852 16.984375 L 411.542969 16.984375 L 411.542969 17.752441 L 409.297852 17.752441 L 409.297852 21.018066 Q 409.297852 21.684082 409.550293 21.947266 Q 409.802734 22.210449 410.431152 22.210449 L 411.542969 22.210449 L 411.542969 23.000000 L 410.334473 23.000000 Q 409.222656 23.000000 408.766113 22.554199 Q 408.309570 22.108398 408.309570 21.018066 L 408.309570 17.752441 L 406.703613 17.752441 L 406.703613 16.984375 L 408.309570 16.984375 L 408.309570 15.276367 Z " fill="rgb(0, 0, 0)" fill-opacity="1.000000" />
<path d="M 416.308594 17.677246 Q 415.556641 17.677246 415.169922 18.262695 Q 414.783203 18.848145 414.783203 19.997559 Q 414.783203 21.141602 415.169922 21.729736 Q 415.556641 22.317871 416.308594 22.317871 Q 417.065918 22.317871 417.452637 21.729736 Q 417.839355 21.141602 417.839355 19.997559 Q 417.839355 18.848145 417.452637 18.262695 Q 417.065918 17.677246 416.308594 17.677246 Z M 416.308594 16.839355 Q 417.560059 16.839355 418.223389 17.650391 Q 418.886719 18.461426 418.886719 19.997559 Q 418.886719 21.539062 418.226074 22.347412 Q 417.565430 23.155762 416.308594 23.155762 Q 415.057129 23.155762 414.396484 22.347412 Q 413.735840 21.539062 413.735840 19.997559 Q 413.735840 18.461426 414.396484 17.650391 Q 415.057129 16.839355 416.308594 16.839355 Z " fill="rgb(0, 0, 0)" fill-opacity="1.000000" />
<path d="M 426.203613 18.225098 Q 425.886719 17.978027 425.559082 17.865234 Q 425.231445 17.752441 424.839355 17.752441 Q 423.915527 17.752441 423.426758 18.332520 Q 422.937988 18.912598 422.937988 20.008301 L 422.937988 23.000000 L 421.944336 23.000000 L 421.944336 16.984375 L 422.937988 16.984375 L 422.937988 18.160645 Q 423.185059 17.521484 423.697998 17.180420 Q 424.210938 16.839355 424.914551 16.839355 Q 425.279785 16.839355 425.596680 16.930664 Q 425.913574 17.021973 426.203613 17.215332 Z " fill="rgb(0, 0, 0)" fill-opacity="1.000000" />
<path d="M 457.878906 26.319336 L 457.878906 12.300781 L 458.738281 12.300781 L 458.738281 26.319336 Z " fill="rgb(0, 0, 0)" fill-opacity="1.000000" />
<path d="M 6.892578 7.335938 L 6.892578 6.412109 L 13.729980 6.412109 L 13.729980 7.335938 Z " fill="rgb(0, 0, 0)" fill-opacity="1.000000" />
<path d="M 13.892578 7.335938 L 13.892578 6.412109 L 20.729980 6.412109 L 20.729980 7.335938 Z " fill="rgb(0, 0, 0)" fill-opacity="1.000000" />
<path d="M 20.892578 7.335938 L 20.892578 6.412109 L 27.729980 6.412109 L 27.729980 7.335938 Z " fill="rgb(0, 0, 0)" fill-opacity="1.000000" />
<path d="M 27.892578 7.335938 L 27.892578 6.412109 L 34.729980 6.412109 L 34.729980 7.335938 Z " fill="rgb(0, 0, 0)" fill-opacity="1.000000" />
<path d="M 34.892578 7.335938 L 34.892578 6.412109 L 41.729980 6.412109 L 41.729980 7.335938 Z " fill="rgb(0, 0, 0)" fill-opacity="1.000000" />
<path d="M 41.892578 7.335938 L 41.892578 6.412109 L 48.729980 6.412109 L 48.729980 7.335938 Z " fill="rgb(0, 0, 0)" fill-opacity="1.000000" />
<path d="M 48.892578 7.335938 L 48.892578 6.412109 L 55.729980 6.412109 L 55.729980 7.335938 Z " fill="rgb(0, 0, 0)" fill-opacity="1.000000" />
<path d="M 55.892578 7.335938 L 55.892578 6.412109 L 62.729980 6.412109 L 62.729980 7.335938 Z " fill="rgb(0, 0, 0)" fill-opacity="1.000000" />
<path d="M 62.892578 7.335938 L 62.892578 6.412109 L 69.729980 6.412109 L 69.729980 7.335938 Z " fill="rgb(0, 0, 0)" fill-opacity="1.000000" />
<path d="M 69.892578 7.335938 L 69.892578 6.412109 L 76.729980 6.412109 L 76.729980 7.335938 Z " fill="rgb(0, 0, 0)" fill-opacity="1.000000" />
<path d="M 76.892578 7.335938 L 76.892578 6.412109 L 83.729980 6.412109 L 83.729980 7.335938 Z " fill="rgb(0, 0, 0)" fill-opacity="1.000000" />
<path d="M 83.892578 7.335938 L 83.892578 6.412109 L 90.729980 6.412109 L 90.729980 7.335938 Z " fill="rgb(0, 0, 0)" fill-opacity="1.000000" />
<path d="M 90.892578 7.335938 L 90.892578 6.412109 L 97.729980 6.412109 L 97.729980 7.335938 Z " fill="rgb(0, 0, 0)" fill-opacity="1.000000" />
<path d="M 100.878906 13.319336 L 100.878906 7.335938 L 97.892578 7.335938 L 97.892578 6.412109 L 101.738281 6.412109 L 101.738281 13.319336 Z " fill="rgb(0, 0, 0)" fill-opacity="1.000000" />
<path d="M 124.226074 4.193848 L 124.226074 5.160645 Q 123.801758 4.913574 123.372070 4.790039 Q 122.942383 4.666504 122.496582 4.666504 Q 121.825195 4.666504 121.494873 4.884033 Q 121.164551 5.101562 121.164551 5.547363 Q 121.164551 5.950195 121.411621 6.148926 Q 121.658691 6.347656 122.641602 6.535645 L 123.039062 6.610840 Q 123.774902 6.750488 124.153564 7.169434 Q 124.532227 7.588379 124.532227 8.259766 Q 124.532227 9.151367 123.898438 9.653564 Q 123.264648 10.155762 122.136719 10.155762 Q 121.690918 10.155762 121.202148 10.061768 Q 120.713379 9.967773 120.144043 9.779785 L 120.144043 8.759277 Q 120.697266 9.043945 121.202148 9.186279 Q 121.707031 9.328613 122.158203 9.328613 Q 122.813477 9.328613 123.173340 9.062744 Q 123.533203 8.796875 123.533203 8.318848 Q 123.533203 7.631348 122.217285 7.368164 L 122.174316 7.357422 L 121.803711 7.282227 Q 120.949707 7.115723 120.557617 6.720947 Q 120.165527 6.326172 120.165527 5.644043 Q 120.165527 4.779297 120.750977 4.309326 Q 121.336426 3.839355 122.421387 3.839355 Q 122.904785 3.839355 123.350586 3.927979 Q 123.796387 4.016602 124.226074 4.193848 Z " fill="rgb(0, 0, 0)" fill-opacity="1.000000" />
<path d="M 132.015625 6.498047 L 132.015625 6.981445 L 127.734863 6.981445 L 127.734863 7.013672 Q 127.691895 8.243652 128.204834 8.780762 Q 128.717773 9.317871 129.652344 9.317871 Q 130.125000 9.317871 130.640625 9.167480 Q 131.156250 9.017090 131.741699 8.710938 L 131.741699 9.693848 Q 131.177734 9.924805 130.654053 10.040283 Q 130.130371 10.155762 129.641602 10.155762 Q 128.239746 10.155762 127.450195 9.315186 Q 126.660645 8.474609 126.660645 6.997559 Q 126.660645 5.558105 127.434082 4.698730 Q 128.207520 3.839355 129.496582 3.839355 Q 130.645996 3.839355 131.309326 4.618164 Q 131.972656 5.396973 132.015625 6.498047 Z M 131.027344 6.208008 Q 130.962891 5.584961 130.573486 5.131104 Q 130.184082 4.677246 129.453613 4.677246 Q 128.739258 4.677246 128.277344 5.149902 Q 127.815430 5.622559 127.772461 6.213379 Z " fill="rgb(0, 0, 0)" fill-opacity="1.000000" />
<path d="M 138.645020 6.272461 L 138.645020 10.000000 L 137.651367 10.000000 L 137.651367 6.272461 Q 137.651367 5.461426 137.366699 5.080078 Q 137.082031 4.698730 136.475098 4.698730 Q 135.782227 4.698730 135.408936 5.190186 Q 135.035645 5.681641 135.035645 6.600098 L 135.035645 10.000000 L 134.047363 10.000000 L 134.047363 3.984375 L 135.035645 3.984375 L 135.035645 4.886719 Q 135.298828 4.371094 135.750000 4.105225 Q 136.201172 3.839355 136.818848 3.839355 Q 137.737305 3.839355 138.191162 4.443604 Q 138.645020 5.047852 138.645020 6.272461 Z " fill="rgb(0, 0, 0)" fill-opacity="1.000000" />
<path d="M 144.608398 4.752441 L 144.608398 1.642578 L 145.596680 1.642578 L 145.596680 10.000000 L 144.608398 10.000000 L 144.608398 9.242676 Q 144.361328 9.688477 143.950439 9.922119 Q 143.539551 10.155762 143.002441 10.155762 Q 141.912109 10.155762 141.286377 9.309814 Q 140.660645 8.463867 140.660645 6.976074 Q 140.660645 5.509766 141.289062 4.674561 Q 141.917480 3.839355 143.002441 3.839355 Q 143.544922 3.839355 143.958496 4.072998 Q 144.372070 4.306641 144.608398 4.752441 Z M 141.702637 6.997559 Q 141.702637 8.146973 142.067871 8.732422 Q 142.433105 9.317871 143.147461 9.317871 Q 143.861816 9.317871 144.235107 8.727051 Q 144.608398 8.136230 144.608398 6.997559 Q 144.608398 5.853516 144.235107 5.265381 Q 143.861816 4.677246 143.147461 4.677246 Q 142.433105 4.677246 142.067871 5.262695 Q 141.702637 5.848145 141.702637 6.997559 Z " fill="rgb(0, 0, 0)" fill-opacity="1.000000" />
<path d="M 170.878906 13.319336 L 170.878906 6.412109 L 174.729980 6.412109 L 174.729980 7.335938 L 171.738281 7.335938 L 171.738281 13.319336 Z " fill="rgb(0, 0, 0)" fill-opacity="1.000000" />
<path d="M 174.892578 7.335938 L 174.892578 6.412109 L 181.729980 6.412109 L 181.729980 7.335938 Z " fill="rgb(0, 0, 0)" fill-opacity="1.000000" />
<path d="M 181.892578 7.335938 L 181.892578 6.412109 L 188.729980 6.412109 L 188.729980 7.335938 Z " fill="rgb(0, 0, 0)" fill-opacity="1.000000" />
<path d="M 188.892578 7.335938 L 188.892578 6.412109 L 195.729980 6.412109 L 195.729980 7.335938 Z " fill="rgb(0, 0, 0)" fill-opacity="1.000000" />
<path d="M 195.892578 7.335938 L 195.892578 6.412109 L 202.729980 6.412109 L 202.729980 7.335938 Z " fill="rgb(0, 0, 0)" fill-opacity="1.000000" />
<path d="M 202.892578 7.335938 L 202.892578 6.412109 L 209.729980 6.412109 L 209.729980 7.335938 Z " fill="rgb(0, 0, 0)" fill-opacity="1.000000" />
<path d="M 209.892578 7.335938 L 209.892578 6.412109 L 216.729980 6.412109 L 216.729980 7.335938 Z " fill="rgb(0, 0, 0)" fill-opacity="1.000000" />
<path d="M 216.892578 7.335938 L 216.892578 6.412109 L 223.729980 6.412109 L 223.729980 7.335938 Z " fill="rgb(0, 0, 0)" fill-opacity="1.000000" />
<path d="M 223.892578 7.335938 L 223.892578 6.412109 L 230.729980 6.412109 L 230.729980 7.335938 Z " fill="rgb(0, 0, 0)" fill-opacity="1.000000" />
<path d="M 230.892578 7.335938 L 230.892578 6.412109 L 237.729980 6.412109 L 237.729980 7.335938 Z " fill="rgb(0, 0, 0)" fill-opacity="1.000000" />
<path d="M 237.892578 7.335938 L 237.892578 6.412109 L 244.729980 6.412109 L 244.729980 7.335938 Z " fill="rgb(0, 0, 0)" fill-opacity="1.000000" />
<path d="M 244.892578 7.335938 L 244.892578 6.412109 L 251.729980 6.412109 L 251.729980 7.335938 Z " fill="rgb(0, 0, 0)" fill-opacity="1.000000" />
<path d="M 251.892578 7.335938 L 251.892578 6.412109 L 258.729980 6.412109 L 258.729980 7.335938 Z " fill="rgb(0, 0, 0)" fill-opacity="1.000000" />
<path d="M 258.892578 7.335938 L 258.892578 6.412109 L 265.729980 6.412109 L 265.729980 7.335938 Z " fill="rgb(0, 0, 0)" fill-opacity="1.000000" />
<path d="M 268.878906 13.319336 L 268.878906 7.335938 L 265.892578 7.335938 L 265.892578 6.412109 L 269.738281 6.412109 L 269.738281 13.319336 Z " fill="rgb(0, 0, 0)" fill-opacity="1.000000" />
<path d="M 359.878906 13.319336 L 359.878906 6.412109 L 363.729980 6.412109 L 363.729980 7.335938 L 360.738281 7.335938 L 360.738281 13.319336 Z " fill="rgb(0, 0, 0)" fill-opacity="1.000000" />
<path d="M 363.892578 7.335938 L 363.892578 6.412109 L 370.729980 6.412109 L 370.729980 7.335938 Z " fill="rgb(0, 0, 0)" fill-opacity="1.000000" />
<path d="M 370.892578 7.335938 L 370.892578 6.412109 L 377.729980 6.412109 L 377.729980 7.335938 Z " fill="rgb(0, 0, 0)" fill-opacity="1.000000" />
<path d="M 377.892578 7.335938 L 377.892578 6.412109 L 384.729980 6.412109 L 384.729980 7.335938 Z " fill="rgb(0, 0, 0)" fill-opacity="1.000000" />
<path d="M 384.892578 7.335938 L 384.892578 6.412109 L 391.729980 6.412109 L 391.729980 7.335938 Z " fill="rgb(0, 0, 0)" fill-opacity="1.000000" />
<path d="M 391.892578 7.335938 L 391.892578 6.412109 L 398.729980 6.412109 L 398.729980 7.335938 Z " fill="rgb(0, 0, 0)" fill-opacity="1.000000" />
<path d="M 398.892578 7.335938 L 398.892578 6.412109 L 405.729980 6.412109 L 405.729980 7.335938 Z " fill="rgb(0, 0, 0)" fill-opacity="1.000000" />
<path d="M 405.892578 7.335938 L 405.892578 6.412109 L 412.729980 6.412109 L 412.729980 7.335938 Z " fill="rgb(0, 0, 0)" fill-opacity="1.000000" />
<path d="M 412.892578 7.335938 L 412.892578 6.412109 L 419.729980 6.412109 L 419.729980 7.335938 Z " fill="rgb(0, 0, 0)" fill-opacity="1.000000" />
<path d="M 419.892578 7.335938 L 419.892578 6.412109 L 426.729980 6.412109 L 426.729980 7.335938 Z " fill="rgb(0, 0, 0)" fill-opacity="1.000000" />
<path d="M 426.892578 7.335938 L 426.892578 6.412109 L 433.729980 6.412109 L 433.729980 7.335938 Z " fill="rgb(0, 0, 0)" fill-opacity="1.000000" />
<path d="M 433.892578 7.335938 L 433.892578 6.412109 L 440.729980 6.412109 L 440.729980 7.335938 Z " fill="rgb(0, 0, 0)" fill-opacity="1.000000" />
<path d="M 440.892578 7.335938 L 440.892578 6.412109 L 447.729980 6.412109 L 447.729980 7.335938 Z " fill="rgb(0, 0, 0)" fill-opacity="1.000000" />
<path d="M 447.892578 7.335938 L 447.892578 6.412109 L 454.729980 6.412109 L 454.729980 7.335938 Z " fill="rgb(0, 0, 0)" fill-opacity="1.000000" />
<path d="M 457.878906 13.319336 L 457.878906 7.335938 L 454.892578 7.335938 L 454.892578 6.412109 L 458.738281 6.412109 L 458.738281 13.319336 Z " fill="rgb(0, 0, 0)" fill-opacity="1.000000" />
</svg>