<svg xmlns="http://www.w3.org/2000/svg" version="1.1" width="281" height="66">
<path d="M 2.878906 13.319336 L 2.878906 6.412109 L 6.729980 6.412109 L 6.729980 7.335938 L 3.738281 7.335938 L 3.738281 13.319336 Z " fill="rgb(0, 0, 0)" fill-opacity="1.000000" />
<path d="M 2.878906 26.319336 L 2.878906 12.300781 L 3.738281 12.300781 L 3.738281 26.319336 Z " fill="rgb(0, 0, 0)" fill-opacity="1.000000" />
<path d="M 2.878906 39.319336 L 2.878906 25.300781 L 3.738281 25.300781 L 3.738281 39.319336 Z " fill="rgb(0, 0, 0)" fill-opacity="1.000000" />
<path d="M 2.878906 52.319336 L 2.878906 38.300781 L 3.738281 38.300781 L 3.738281 52.319336 Z " fill="rgb(0, 0, 0)" fill-opacity="1.000000" />
<path d="M 2.878906 59.335938 L 2.878906 51.300781 L 3.738281 51.300781 L 3.738281 58.412109 L 6.729980 58.412109 L 6.729980 59.335938 Z " fill="rgb(0, 0, 0)" fill-opacity="1.000000" />
<path d="M 6.892578 59.335938 L 6.892578 58.412109 L 13.729980 58.412109 L 13.729980 59.335938 Z " fill="rgb(0, 0, 0)" fill-opacity="1.000000" />
<path d="M 13.892578 59.335938 L 13.892578 58.412109 L 20.729980 58.412109 L 20.729980 59.335938 Z " fill="rgb(0, 0, 0)" fill-opacity="1.000000" />
<path d="M 20.892578 59.335938 L 20.892578 58.412109 L 27.729980 58.412109 L 27.729980 59.335938 Z " fill="rgb(0, 0, 0)" fill-opacity="1.000000" />
<path d="M 27.892578 59.335938 L 27.892578 58.412109 L 34.729980 58.412109 L 34.729980 59.335938 Z " fill="rgb(0, 0, 0)" fill-opacity="1.000000" />
<path d="M 34.892578 59.335938 L 34.892578 58.412109 L 41.729980 58.412109 L 41.729980 59.335938 Z " fill="rgb(0, 0, 0)" fill-opacity="1.000000" />
<path d="M 41.892578 59.335938 L 41.892578 58.412109 L 48.729980 58.412109 L 48.729980 59.335938 Z " fill="rgb(0, 0, 0)" fill-opacity="1.000000" />
<path d="M 48.892578 59.335938 L 48.892578 58.412109 L 55.729980 58.412109 L 55.729980 59.335938 Z " fill="rgb(0, 0, 0)" fill-opacity="1.000000" />
<path d="M 55.892578 59.335938 L 55.892578 58.412109 L 62.729980 58.412109 L 62.729980 59.335938 Z " fill="rgb(0, 0, 0)" fill-opacity="1.000000" />
<path d="M 62.892578 59.335938 L 62.892578 58.412109 L 69.729980 58.412109 L 69.729980 59.335938 Z " fill="rgb(0, 0, 0)" fill-opacity="1.000000" />
<path d="M 69.892578 59.335938 L 69.892578 58.412109 L 76.729980 58.412109 L 76.729980 59.335938 Z " fill="rgb(0, 0, 0)" fill-opacity="1.000000" />
<path d="M 76.892578 59.335938 L 76.892578 58.412109 L 83.729980 58.412109 L 83.729980 59.335938 Z " fill="rgb(0, 0, 0)" fill-opacity="1.000000" />
<path d="M 83.892578 59.335938 L 83.892578 58.412109 L 90.729980 58.412109 L 90.729980 59.335938 Z " fill="rgb(0, 0, 0)" fill-opacity="1.000000" />
<path d="M 90.892578 59.335938 L 90.892578 58.412109 L 93.878906 58.412109 L 93.878906 51.300781 L 94.738281 51.300781 L 94.738281 59.335938 Z " fill="rgb(0, 0, 0)" fill-opacity="1.000000" />
<path d="M 121.341797 61.108398 Q 122.711426 61.108398 123.253906 60.434326 Q 123.796387 59.760254 123.796387 57.998535 Q 123.796387 56.220703 123.256592 55.546631 Q 122.716797 54.872559 121.341797 54.872559 L 120.826172 54.872559 L 120.826172 61.108398 Z M 121.363281 53.980957 Q 123.200195 53.980957 124.070312 54.958496 Q 124.940430 55.936035 124.940430 57.998535 Q 124.940430 60.050293 124.070312 61.025146 Q 123.200195 62.000000 121.363281 62.000000 L 119.735840 62.000000 L 119.735840 53.980957 Z " fill="rgb(0, 0, 0)" fill-opacity="1.000000" />
<path d="M 132.015625 58.498047 L 132.015625 58.981445 L 127.734863 58.981445 L 127.734863 59.013672 Q 127.691895 60.243652 128.204834 60.780762 Q 128.717773 61.317871 129.652344 61.317871 Q 130.125000 61.317871 130.640625 61.167480 Q 131.156250 61.017090 131.741699 60.710938 L 131.741699 61.693848 Q 131.177734 61.924805 130.654053 62.040283 Q 130.130371 62.155762 129.641602 62.155762 Q 128.239746 62.155762 127.450195 61.315186 Q 126.660645 60.474609 126.660645 58.997559 Q 126.660645 57.558105 127.434082 56.698730 Q 128.207520 55.839355 129.496582 55.839355 Q 130.645996 55.839355 131.309326 56.618164 Q 131.972656 57.396973 132.015625 58.498047 Z M 131.027344 58.208008 Q 130.962891 57.584961 130.573486 57.131104 Q 130.184082 56.677246 129.453613 56.677246 Q 128.739258 56.677246 128.277344 57.149902 Q 127.815430 57.622559 127.772461 58.213379 Z " fill="rgb(0, 0, 0)" fill-opacity="1.000000" />
<path d="M 136.630859 56.596680 Q 136.813477 56.209961 137.095459 56.024658 Q 137.377441 55.839355 137.774902 55.839355 Q 138.500000 55.839355 138.798096 56.400635 Q 139.096191 56.961914 139.096191 58.514160 L 139.096191 62.000000 L 138.193848 62.000000 L 138.193848 58.557129 Q 138.193848 57.284180 138.051514 56.975342 Q 137.909180 56.666504 137.533203 56.666504 Q 137.103516 56.666504 136.945068 56.996826 Q 136.786621 57.327148 136.786621 58.557129 L 136.786621 62.000000 L 135.884277 62.000000 L 135.884277 58.557129 Q 135.884277 57.268066 135.731201 56.967285 Q 135.578125 56.666504 135.180664 56.666504 Q 134.788574 56.666504 134.635498 56.996826 Q 134.482422 57.327148 134.482422 58.557129 L 134.482422 62.000000 L 133.585449 62.000000 L 133.585449 55.984375 L 134.482422 55.984375 L 134.482422 56.500000 Q 134.659668 56.177734 134.925537 56.008545 Q 135.191406 55.839355 135.529785 55.839355 Q 135.937988 55.839355 136.209229 56.027344 Q 136.480469 56.215332 136.630859 56.596680 Z " fill="rgb(0, 0, 0)" fill-opacity="1.000000" />
<path d="M 143.770508 58.976074 L 143.442871 58.976074 Q 142.578125 58.976074 142.140381 59.279541 Q 141.702637 59.583008 141.702637 60.184570 Q 141.702637 60.727051 142.030273 61.027832 Q 142.357910 61.328613 142.937988 61.328613 Q 143.754395 61.328613 144.221680 60.761963 Q 144.688965 60.195312 144.694336 59.196289 L 144.694336 58.976074 Z M 145.687988 58.567871 L 145.687988 62.000000 L 144.694336 62.000000 L 144.694336 61.108398 Q 144.377441 61.645508 143.896729 61.900635 Q 143.416016 62.155762 142.728516 62.155762 Q 141.810059 62.155762 141.262207 61.637451 Q 140.714355 61.119141 140.714355 60.249023 Q 140.714355 59.244629 141.388428 58.723633 Q 142.062500 58.202637 143.367676 58.202637 L 144.694336 58.202637 L 144.694336 58.046875 Q 144.688965 57.327148 144.329102 57.002197 Q 143.969238 56.677246 143.179688 56.677246 Q 142.674805 56.677246 142.159180 56.822266 Q 141.643555 56.967285 141.154785 57.246582 L 141.154785 56.258301 Q 141.702637 56.048828 142.204834 55.944092 Q 142.707031 55.839355 143.179688 55.839355 Q 143.926270 55.839355 144.455322 56.059570 Q 144.984375 56.279785 145.312012 56.720215 Q 145.516113 56.988770 145.602051 57.383545 Q 145.687988 57.778320 145.687988 58.567871 Z " fill="rgb(0, 0, 0)" fill-opacity="1.000000" />
<path d="M 152.645020 58.272461 L 152.645020 62.000000 L 151.651367 62.000000 L 151.651367 58.272461 Q 151.651367 57.461426 151.366699 57.080078 Q 151.082031 56.698730 150.475098 56.698730 Q 149.782227 56.698730 149.408936 57.190186 Q 149.035645 57.681641 149.035645 58.600098 L 149.035645 62.000000 L 148.047363 62.000000 L 148.047363 55.984375 L 149.035645 55.984375 L 149.035645 56.886719 Q 149.298828 56.371094 149.750000 56.105225 Q 150.201172 55.839355 150.818848 55.839355 Q 151.737305 55.839355 152.191162 56.443604 Q 152.645020 57.047852 152.645020 58.272461 Z " fill="rgb(0, 0, 0)" fill-opacity="1.000000" />
<path d="M 158.608398 56.752441 L 158.608398 53.642578 L 159.596680 53.642578 L 159.596680 62.000000 L 158.608398 62.000000 L 158.608398 61.242676 Q 158.361328 61.688477 157.950439 61.922119 Q 157.539551 62.155762 157.002441 62.155762 Q 155.912109 62.155762 155.286377 61.309814 Q 154.660645 60.463867 154.660645 58.976074 Q 154.660645 57.509766 155.289062 56.674561 Q 155.917480 55.839355 157.002441 55.839355 Q 157.544922 55.839355 157.958496 56.072998 Q 158.372070 56.306641 158.608398 56.752441 Z M 155.702637 58.997559 Q 155.702637 60.146973 156.067871 60.732422 Q 156.433105 61.317871 157.147461 61.317871 Q 157.861816 61.317871 158.235107 60.727051 Q 158.608398 60.136230 158.608398 58.997559 Q 158.608398 57.853516 158.235107 57.265381 Q 157.861816 56.677246 157.147461 56.677246 Q 156.433105 56.677246 156.067871 57.262695 Q 155.702637 57.848145 155.702637 58.997559 Z " fill="rgb(0, 0, 0)" fill-opacity="1.000000" />
<path d="M 184.878906 59.335938 L 184.878906 51.300781 L 185.738281 51.300781 L 185.738281 58.412109 L 188.729980 58.412109 L 188.729980 59.335938 Z " fill="rgb(0, 0, 0)" fill-opacity="1.000000" />
<path d="M 188.892578 59.335938 L 188.892578 58.412109 L 195.729980 58.412109 L 195.729980 59.335938 Z " fill="rgb(0, 0, 0)" fill-opacity="1.000000" />
<path d="M 195.892578 59.335938 L 195.892578 58.412109 L 202.729980 58.412109 L 202.729980 59.335938 Z " fill="rgb(0, 0, 0)" fill-opacity="1.000000" />
<path d="M 202.892578 59.335938 L 202.892578 58.412109 L 209.729980 58.412109 L 209.729980 59.335938 Z " fill="rgb(0, 0, 0)" fill-opacity="1.000000" />
<path d="M 209.892578 59.335938 L 209.892578 58.412109 L 216.729980 58.412109 L 216.729980 59.335938 Z " fill="rgb(0, 0, 0)" fill-opacity="1.000000" />
<path d="M 216.892578 59.335938 L 216.892578 58.412109 L 223.729980 58.412109 L 223.729980 59.335938 Z " fill="rgb(0, 0, 0)" fill-opacity="1.000000" />
<path d="M 223.892578 59.335938 L 223.892578 58.412109 L 230.729980 58.412109 L 230.729980 59.335938 Z " fill="rgb(0, 0, 0)" fill-opacity="1.000000" />
<path d="M 230.892578 59.335938 L 230.892578 58.412109 L 237.729980 58.412109 L 237.729980 59.335938 Z " fill="rgb(0, 0, 0)" fill-opacity="1.000000" />
<path d="M 237.892578 59.335938 L 237.892578 58.412109 L 244.729980 58.412109 L 244.729980 59.335938 Z " fill="rgb(0, 0, 0)" fill-opacity="1.000000" />
<path d="M 244.892578 59.335938 L 244.892578 58.412109 L 251.729980 58.412109 L 251.729980 59.335938 Z " fill="rgb(0, 0, 0)" fill-opacity="1.000000" />
<path d="M 251.892578 59.335938 L 251.892578 58.412109 L 258.729980 58.412109 L 258.729980 59.335938 Z " fill="rgb(0, 0, 0)" fill-opacity="1.000000" />
<path d="M 258.892578 59.335938 L 258.892578 58.412109 L 265.729980 58.412109 L 265.729980 59.335938 Z " fill="rgb(0, 0, 0)" fill-opacity="1.000000" />
<path d="M 265.892578 59.335938 L 265.892578 58.412109 L 272.729980 58.412109 L 272.729980 59.335938 Z " fill="rgb(0, 0, 0)" fill-opacity="1.000000" />
<path d="M 272.892578 59.335938 L 272.892578 58.412109 L 275.878906 58.412109 L 275.878906 51.300781 L 276.738281 51.300781 L 276.738281 59.335938 Z " fill="rgb(0, 0, 0)" fill-opacity="1.000000" />
<path d="M 23.143066 28.872559 L 23.143066 31.885742 L 24.399902 31.885742 Q 25.151855 31.885742 25.573486 31.488281 Q 25.995117 31.090820 25.995117 30.376465 Q 25.995117 29.662109 25.576172 29.267334 Q 25.157227 28.872559 24.399902 28.872559 Z M 22.058105 27.980957 L 24.399902 27.980957 Q 25.742676 27.980957 26.435547 28.590576 Q 27.128418 29.200195 27.128418 30.376465 Q 27.128418 31.563477 26.438232 32.170410 Q 25.748047 32.777344 24.399902 32.777344 L 23.143066 32.777344 L 23.143066 36.000000 L 22.058105 36.000000 Z " fill="rgb(0, 0, 0)" fill-opacity="1.000000" />
<path d="M 93.878906 52.319336 L 93.878906 38.300781 L 94.738281 38.300781 L 94.738281 52.319336 Z " fill="rgb(0, 0, 0)" fill-opacity="1.000000" />
<path d="M 98.032227 46.142578 L 104.590332 42.866211 L 104.590332 49.418945 Z " fill="rgb(0, 0, 0)" fill-opacity="1.000000" />
<path d="M 104.892578 46.335938 L 104.892578 45.412109 L 111.729980 45.412109 L 111.729980 46.335938 Z " fill="rgb(0, 0, 0)" fill-opacity="1.000000" />
<path d="M 111.892578 46.335938 L 111.892578 45.412109 L 118.729980 45.412109 L 118.729980 46.335938 Z " fill="rgb(0, 0, 0)" fill-opacity="1.000000" />
<path d="M 118.892578 46.335938 L 118.892578 45.412109 L 125.729980 45.412109 L 125.729980 46.335938 Z " fill="rgb(0, 0, 0)" fill-opacity="1.000000" />
<path d="M 125.892578 46.335938 L 125.892578 45.412109 L 132.729980 45.412109 L 132.729980 46.335938 Z " fill="rgb(0, 0, 0)" fill-opacity="1.000000" />
<path d="M 132.892578 46.335938 L 132.892578 45.412109 L 139.729980 45.412109 L 139.729980 46.335938 Z " fill="rgb(0, 0, 0)" fill-opacity="1.000000" />
<path d="M 139.892578 46.335938 L 139.892578 45.412109 L 146.729980 45.412109 L 146.729980 46.335938 Z " fill="rgb(0, 0, 0)" fill-opacity="1.000000" />
<path d="M 146.892578 46.335938 L 146.892578 45.412109 L 153.729980 45.412109 L 153.729980 46.335938 Z " fill="rgb(0, 0, 0)" fill-opacity="1.000000" />
<path d="M 153.892578 46.335938 L 153.892578 45.412109 L 160.729980 45.412109 L 160.729980 46.335938 Z " fill="rgb(0, 0, 0)" fill-opacity="1.000000" />
<path d="M 160.892578 46.335938 L 160.892578 45.412109 L 167.729980 45.412109 L 167.729980 46.335938 Z " fill="rgb(0, 0, 0)" fill-opacity="1.000000" />
<path d="M 167.892578 46.335938 L 167.892578 45.412109 L 174.729980 45.412109 L 174.729980 46.335938 Z " fill="rgb(0, 0, 0)" fill-opacity="1.000000" />
<path d="M 174.892578 46.335938 L 174.892578 45.412109 L 181.729980 45.412109 L 181.729980 46.335938 Z " fill="rgb(0, 0, 0)" fill-opacity="1.000000" />
<path d="M 184.878906 52.319336 L 184.878906 38.300781 L 185.738281 38.300781 L 185.738281 52.319336 Z " fill="rgb(0, 0, 0)" fill-opacity="1.000000" />
<path d="M 275.878906 52.319336 L 275.878906 38.300781 L 276.738281 38.300781 L 276.738281 52.319336 Z " fill="rgb(0, 0, 0)" fill-opacity="1.000000" />
<path d="M 34.203613 31.225098 Q 33.886719 30.978027 33.559082 30.865234 Q 33.231445 30.752441 32.839355 30.752441 Q 31.915527 30.752441 31.426758 31.332520 Q 30.937988 31.912598 30.937988 33.008301 L 30.937988 36.000000 L 29.944336 36.000000 L 29.944336 29.984375 L 30.937988 29.984375 L 30.937988 31.160645 Q 31.185059 30.521484 31.697998 30.180420 Q 32.210938 29.839355 32.914551 29.839355 Q 33.279785 29.839355 33.596680 29.930664 Q 33.913574 30.021973 34.203613 30.215332 Z " fill="rgb(0, 0, 0)" fill-opacity="1.000000" />
<path d="M 38.308594 30.677246 Q 37.556641 30.677246 37.169922 31.262695 Q 36.783203 31.848145 36.783203 32.997559 Q 36.783203 34.141602 37.169922 34.729736 Q 37.556641 35.317871 38.308594 35.317871 Q 39.065918 35.317871 39.452637 34.729736 Q 39.839355 34.141602 39.839355 32.997559 Q 39.839355 31.848145 39.452637 31.262695 Q 39.065918 30.677246 38.308594 30.677246 Z M 38.308594 29.839355 Q 39.560059 29.839355 40.223389 30.650391 Q 40.886719 31.461426 40.886719 32.997559 Q 40.886719 34.539062 40.226074 35.347412 Q 39.565430 36.155762 38.308594 36.155762 Q 37.057129 36.155762 36.396484 35.347412 Q 35.735840 34.539062 35.735840 32.997559 Q 35.735840 31.461426 36.396484 30.650391 Q 37.057129 29.839355 38.308594 29.839355 Z " fill="rgb(0, 0, 0)" fill-opacity="1.000000" />
<path d="M 46.608398 30.752441 L 46.608398 27.642578 L 47.596680 27.642578 L 47.596680 36.000000 L 46.608398 36.000000 L 46.608398 35.242676 Q 46.361328 35.688477 45.950439 35.922119 Q 45.539551 36.155762 45.002441 36.155762 Q 43.912109 36.155762 43.286377 35.309814 Q 42.660645 34.463867 42.660645 32.976074 Q 42.660645 31.509766 43.289062 30.674561 Q 43.917480 29.839355 45.002441 29.839355 Q 45.544922 29.839355 45.958496 30.072998 Q 46.372070 30.306641 46.608398 30.752441 Z M 43.702637 32.997559 Q 43.702637 34.146973 44.067871 34.732422 Q 44.433105 35.317871 45.147461 35.317871 Q 45.861816 35.317871 46.235107 34.727051 Q 46.608398 34.136230 46.608398 32.997559 Q 46.608398 31.853516 46.235107 31.265381 Q 45.861816 30.677246 45.147461 30.677246 Q 44.433105 30.677246 44.067871 31.262695 Q 43.702637 31.848145 43.702637 32.997559 Z " fill="rgb(0, 0, 0)" fill-opacity="1.000000" />
<path d="M 50.047363 33.722656 L 50.047363 29.995117 L 51.035645 29.995117 L 51.035645 33.722656 Q 51.035645 34.533691 51.322998 34.915039 Q 51.610352 35.296387 52.211914 35.296387 Q 52.910156 35.296387 53.280762 34.804932 Q 53.651367 34.313477 53.651367 33.395020 L 53.651367 29.995117 L 54.645020 29.995117 L 54.645020 36.000000 L 53.651367 36.000000 L 53.651367 35.097656 Q 53.388184 35.618652 52.934326 35.887207 Q 52.480469 36.155762 51.873535 36.155762 Q 50.949707 36.155762 50.498535 35.551514 Q 50.047363 34.947266 50.047363 33.722656 Z " fill="rgb(0, 0, 0)" fill-opacity="1.000000" />
<path d="M 61.698730 35.693848 Q 61.301270 35.924805 60.879639 36.040283 Q 60.458008 36.155762 60.017578 36.155762 Q 58.621094 36.155762 57.834229 35.317871 Q 57.047363 34.479980 57.047363 32.997559 Q 57.047363 31.515137 57.834229 30.677246 Q 58.621094 29.839355 60.017578 29.839355 Q 60.452637 29.839355 60.866211 29.952148 Q 61.279785 30.064941 61.698730 30.301270 L 61.698730 31.337891 Q 61.306641 30.988770 60.911865 30.833008 Q 60.517090 30.677246 60.017578 30.677246 Q 59.088379 30.677246 58.588867 31.278809 Q 58.089355 31.880371 58.089355 32.997559 Q 58.089355 34.109375 58.591553 34.713623 Q 59.093750 35.317871 60.017578 35.317871 Q 60.533203 35.317871 60.941406 35.159424 Q 61.349609 35.000977 61.698730 34.667969 Z " fill="rgb(0, 0, 0)" fill-opacity="1.000000" />
<path d="M 69.015625 32.498047 L 69.015625 32.981445 L 64.734863 32.981445 L 64.734863 33.013672 Q 64.691895 34.243652 65.204834 34.780762 Q 65.717773 35.317871 66.652344 35.317871 Q 67.125000 35.317871 67.640625 35.167480 Q 68.156250 35.017090 68.741699 34.710938 L 68.741699 35.693848 Q 68.177734 35.924805 67.654053 36.040283 Q 67.130371 36.155762 66.641602 36.155762 Q 65.239746 36.155762 64.450195 35.315186 Q 63.660645 34.474609 63.660645 32.997559 Q 63.660645 31.558105 64.434082 30.698730 Q 65.207520 29.839355 66.496582 29.839355 Q 67.645996 29.839355 68.309326 30.618164 Q 68.972656 31.396973 69.015625 32.498047 Z M 68.027344 32.208008 Q 67.962891 31.584961 67.573486 31.131104 Q 67.184082 30.677246 66.453613 30.677246 Q 65.739258 30.677246 65.277344 31.149902 Q 64.815430 31.622559 64.772461 32.213379 Z " fill="rgb(0, 0, 0)" fill-opacity="1.000000" />
<path d="M 76.203613 31.225098 Q 75.886719 30.978027 75.559082 30.865234 Q 75.231445 30.752441 74.839355 30.752441 Q 73.915527 30.752441 73.426758 31.332520 Q 72.937988 31.912598 72.937988 33.008301 L 72.937988 36.000000 L 71.944336 36.000000 L 71.944336 29.984375 L 72.937988 29.984375 L 72.937988 31.160645 Q 73.185059 30.521484 73.697998 30.180420 Q 74.210938 29.839355 74.914551 29.839355 Q 75.279785 29.839355 75.596680 29.930664 Q 75.913574 30.021973 76.203613 30.215332 Z " fill="rgb(0, 0, 0)" fill-opacity="1.000000" />
<path d="M 93.878906 39.319336 L 93.878906 25.300781 L 94.738281 25.300781 L 94.738281 39.319336 Z " fill="rgb(0, 0, 0)" fill-opacity="1.000000" />
<path d="M 184.878906 39.319336 L 184.878906 25.300781 L 185.738281 25.300781 L 185.738281 39.319336 Z " fill="rgb(0, 0, 0)" fill-opacity="1.000000" />
<path d="M 208.763184 35.715332 Q 208.349609 35.935547 207.914551 36.045654 Q 207.479492 36.155762 206.990723 36.155762 Q 205.449219 36.155762 204.597900 35.065430 Q 203.746582 33.975098 203.746582 31.998535 Q 203.746582 30.032715 204.603271 28.934326 Q 205.459961 27.835938 206.990723 27.835938 Q 207.479492 27.835938 207.914551 27.946045 Q 208.349609 28.056152 208.763184 28.276367 L 208.763184 29.388184 Q 208.365723 29.060547 207.909180 28.888672 Q 207.452637 28.716797 206.990723 28.716797 Q 205.932617 28.716797 205.406250 29.533203 Q 204.879883 30.349609 204.879883 31.998535 Q 204.879883 33.642090 205.406250 34.458496 Q 205.932617 35.274902 206.990723 35.274902 Q 207.463379 35.274902 207.917236 35.103027 Q 208.371094 34.931152 208.763184 34.603516 Z " fill="rgb(0, 0, 0)" fill-opacity="1.000000" />
<path d="M 213.308594 30.677246 Q 212.556641 30.677246 212.169922 31.262695 Q 211.783203 31.848145 211.783203 32.997559 Q 211.783203 34.141602 212.169922 34.729736 Q 212.556641 35.317871 213.308594 35.317871 Q 214.065918 35.317871 214.452637 34.729736 Q 214.839355 34.141602 214.839355 32.997559 Q 214.839355 31.848145 214.452637 31.262695 Q 214.065918 30.677246 213.308594 30.677246 Z M 213.308594 29.839355 Q 214.560059 29.839355 215.223389 30.650391 Q 215.886719 31.461426 215.886719 32.997559 Q 215.886719 34.539062 215.226074 35.347412 Q 214.565430 36.155762 213.308594 36.155762 Q 212.057129 36.155762 211.396484 35.347412 Q 210.735840 34.539062 210.735840 32.997559 Q 210.735840 31.461426 211.396484 30.650391 Q 212.057129 29.839355 213.308594 29.839355 Z " fill="rgb(0, 0, 0)" fill-opacity="1.000000" />
<path d="M 222.645020 32.272461 L 222.645020 36.000000 L 221.651367 36.000000 L 221.651367 32.272461 Q 221.651367 31.461426 221.366699 31.080078 Q 221.082031 30.698730 220.475098 30.698730 Q 219.782227 30.698730 219.408936 31.190186 Q 219.035645 31.681641 219.035645 32.600098 L 219.035645 36.000000 L 218.047363 36.000000 L 218.047363 29.984375 L 219.035645 29.984375 L 219.035645 30.886719 Q 219.298828 30.371094 219.750000 30.105225 Q 220.201172 29.839355 220.818848 29.839355 Q 221.737305 29.839355 222.191162 30.443604 Q 222.645020 31.047852 222.645020 32.272461 Z " fill="rgb(0, 0, 0)" fill-opacity="1.000000" />
<path d="M 229.226074 30.193848 L 229.226074 31.160645 Q 228.801758 30.913574 228.372070 30.790039 Q 227.942383 30.666504 227.496582 30.666504 Q 226.825195 30.666504 226.494873 30.884033 Q 226.164551 31.101562 226.164551 31.547363 Q 226.164551 31.950195 226.411621 32.148926 Q 226.658691 32.347656 227.641602 32.535645 L 228.039062 32.610840 Q 228.774902 32.750488 229.153564 33.169434 Q 229.532227 33.588379 229.532227 34.259766 Q 229.532227 35.151367 228.898438 35.653564 Q 228.264648 36.155762 227.136719 36.155762 Q 226.690918 36.155762 226.202148 36.061768 Q 225.713379 35.967773 225.144043 35.779785 L 225.144043 34.759277 Q 225.697266 35.043945 226.202148 35.186279 Q 226.707031 35.328613 227.158203 35.328613 Q 227.813477 35.328613 228.173340 35.062744 Q 228.533203 34.796875 228.533203 34.318848 Q 228.533203 33.631348 227.217285 33.368164 L 227.174316 33.357422 L 226.803711 33.282227 Q 225.949707 33.115723 225.557617 32.720947 Q 225.165527 32.326172 225.165527 31.644043 Q 225.165527 30.779297 225.750977 30.309326 Q 226.336426 29.839355 227.421387 29.839355 Q 227.904785 29.839355 228.350586 29.927979 Q 228.796387 30.016602 229.226074 30.193848 Z " fill="rgb(0, 0, 0)" fill-opacity="1.000000" />
<path d="M 232.047363 33.722656 L 232.047363 29.995117 L 233.035645 29.995117 L 233.035645 33.722656 Q 233.035645 34.533691 233.322998 34.915039 Q 233.610352 35.296387 234.211914 35.296387 Q 234.910156 35.296387 235.280762 34.804932 Q 235.651367 34.313477 235.651367 33.395020 L 235.651367 29.995117 L 236.645020 29.995117 L 236.645020 36.000000 L 235.651367 36.000000 L 235.651367 35.097656 Q 235.388184 35.618652 234.934326 35.887207 Q 234.480469 36.155762 233.873535 36.155762 Q 232.949707 36.155762 232.498535 35.551514 Q 232.047363 34.947266 232.047363 33.722656 Z " fill="rgb(0, 0, 0)" fill-opacity="1.000000" />
<path d="M 241.630859 30.596680 Q 241.813477 30.209961 242.095459 30.024658 Q 242.377441 29.839355 242.774902 29.839355 Q 243.500000 29.839355 243.798096 30.400635 Q 244.096191 30.961914 244.096191 32.514160 L 244.096191 36.000000 L 243.193848 36.000000 L 243.193848 32.557129 Q 243.193848 31.284180 243.051514 30.975342 Q 242.909180 30.666504 242.533203 30.666504 Q 242.103516 30.666504 241.945068 30.996826 Q 241.786621 31.327148 241.786621 32.557129 L 241.786621 36.000000 L 240.884277 36.000000 L 240.884277 32.557129 Q 240.884277 31.268066 240.731201 30.967285 Q 240.578125 30.666504 240.180664 30.666504 Q 239.788574 30.666504 239.635498 30.996826 Q 239.482422 31.327148 239.482422 32.557129 L 239.482422 36.000000 L 238.585449 36.000000 L 238.585449 29.984375 L 239.482422 29.984375 L 239.482422 30.500000 Q 239.659668 30.177734 239.925537 30.008545 Q 240.191406 29.839355 240.529785 29.839355 Q 240.937988 29.839355 241.209229 30.027344 Q 241.480469 30.215332 241.630859 30.596680 Z " fill="rgb(0, 0, 0)" fill-opacity="1.000000" />
<path d="M 251.015625 32.498047 L 251.015625 32.981445 L 246.734863 32.981445 L 246.734863 33.013672 Q 246.691895 34.243652 247.204834 34.780762 Q 247.717773 35.317871 248.652344 35.317871 Q 249.125000 35.317871 249.640625 35.167480 Q 250.156250 35.017090 250.741699 34.710938 L 250.741699 35.693848 Q 250.177734 35.924805 249.654053 36.040283 Q 249.130371 36.155762 248.641602 36.155762 Q 247.239746 36.155762 246.450195 35.315186 Q 245.660645 34.474609 245.660645 32.997559 Q 245.660645 31.558105 246.434082 30.698730 Q 247.207520 29.839355 248.496582 29.839355 Q 249.645996 29.839355 250.309326 30.618164 Q 250.972656 31.396973 251.015625 32.498047 Z M 250.027344 32.208008 Q 249.962891 31.584961 249.573486 31.131104 Q 249.184082 30.677246 248.453613 30.677246 Q 247.739258 30.677246 247.277344 31.149902 Q 246.815430 31.622559 246.772461 32.213379 Z " fill="rgb(0, 0, 0)" fill-opacity="1.000000" />
<path d="M 258.203613 31.225098 Q 257.886719 30.978027 257.559082 30.865234 Q 257.231445 30.752441 256.839355 30.752441 Q 255.915527 30.752441 255.426758 31.332520 Q 254.937988 31.912598 254.937988 33.008301 L 254.937988 36.000000 L 253.944336 36.000000 L 253.944336 29.984375 L 254.937988 29.984375 L 254.937988 31.160645 Q 255.185059 30.521484 255.697998 30.180420 Q 256.210938 29.839355 256.914551 29.839355 Q 257.279785 29.839355 257.596680 29.930664 Q 257.913574 30.021973 258.203613 30.215332 Z " fill="rgb(0, 0, 0)" fill-opacity="1.000000" />
<path d="M 275.878906 39.319336 L 275.878906 25.300781 L 276.738281 25.300781 L 276.738281 39.319336 Z " fill="rgb(0, 0, 0)" fill-opacity="1.000000" />
<path d="M 93.878906 26.319336 L 93.878906 12.300781 L 94.738281 12.300781 L 94.738281 26.319336 Z " fill="rgb(0, 0, 0)" fill-opacity="1.000000" />
<path d="M 97.892578 20.335938 L 97.892578 19.412109 L 104.729980 19.412109 L 104.729980 20.335938 Z " fill="rgb(0, 0, 0)" fill-opacity="1.000000" />
<path d="M 104.892578 20.335938 L 104.892578 19.412109 L 111.729980 19.412109 L 111.729980 20.335938 Z " fill="rgb(0, 0, 0)" fill-opacity="1.000000" />
<path d="M 111.892578 20.335938 L 111.892578 19.412109 L 118.729980 19.412109 L 118.729980 20.335938 Z " fill="rgb(0, 0, 0)" fill-opacity="1.000000" />
<path d="M 118.892578 20.335938 L 118.892578 19.412109 L 125.729980 19.412109 L 125.729980 20.335938 Z " fill="rgb(0, 0, 0)" fill-opacity="1.000000" />
<path d="M 125.892578 20.335938 L 125.892578 19.412109 L 132.729980 19.412109 L 132.729980 20.335938 Z " fill="rgb(0, 0, 0)" fill-opacity="1.000000" />
<path d="M 132.892578 20.335938 L 132.892578 19.412109 L 139.729980 19.412109 L 139.729980 20.335938 Z " fill="rgb(0, 0, 0)" fill-opacity="1.000000" />
<path d="M 139.892578 20.335938 L 139.892578 19.412109 L 146.729980 19.412109 L 146.729980 20.335938 Z " fill="rgb(0, 0, 0)" fill-opacity="1.000000" />
<path d="M 146.892578 20.335938 L 146.892578 19.412109 L 153.729980 19.412109 L 153.729980 20.335938 Z " fill="rgb(0, 0, 0)" fill-opacity="1.000000" />
<path d="M 153.892578 20.335938 L 153.892578 19.412109 L 160.729980 19.412109 L 160.729980 20.335938 Z " fill="rgb(0, 0, 0)" fill-opacity="1.000000" />
<path d="M 160.892578 20.335938 L 160.892578 19.412109 L 167.729980 19.412109 L 167.729980 20.335938 Z " fill="rgb(0, 0, 0)" fill-opacity="1.000000" />
<path d="M 167.892578 20.335938 L 167.892578 19.412109 L 174.729980 19.412109 L 174.729980 20.335938 Z " fill="rgb(0, 0, 0)" fill-opacity="1.000000" />
<path d="M 175.032227 23.418945 L 175.032227 16.866211 L 181.590332 20.142578 Z " fill="rgb(0, 0, 0)" fill-opacity="1.000000" />
<path d="M 184.878906 26.319336 L 184.878906 12.300781 L 185.738281 12.300781 L 185.738281 26.319336 Z " fill="rgb(0, 0, 0)" fill-opacity="1.000000" />
<path d="M 275.878906 26.319336 L 275.878906 12.300781 L 276.738281 12.300781 L 276.738281 26.319336 Z " fill="rgb(0, 0, 0)" fill-opacity="1.000000" />
<path d="M 6.892578 7.335938 L 6.892578 6.412109 L 13.729980 6.412109 L 13.729980 7.335938 Z " fill="rgb(0, 0, 0)" fill-opacity="1.000000" />
<path d="M 13.892578 7.335938 L 13.892578 6.412109 L 20.729980 6.412109 L 20.729980 7.335938 Z " fill="rgb(0, 0, 0)" fill-opacity="1.000000" />
<path d="M 20.892578 7.335938 L 20.892578 6.412109 L 27.729980 6.412109 L 27.729980 7.335938 Z " fill="rgb(0, 0, 0)" fill-opacity="1.000000" />
<path d="M 27.892578 7.335938 L 27.892578 6.412109 L 34.729980 6.412109 L 34.729980 7.335938 Z " fill="rgb(0, 0, 0)" fill-opacity="1.000000" />
<path d="M 34.892578 7.335938 L 34.892578 6.412109 L 41.729980 6.412109 L 41.729980 7.335938 Z " fill="rgb(0, 0, 0)" fill-opacity="1.000000" />
<path d="M 41.892578 7.335938 L 41.892578 6.412109 L 48.729980 6.412109 L 48.729980 7.335938 Z " fill="rgb(0, 0, 0)" fill-opacity="1.000000" />
<path d="M 48.892578 7.335938 L 48.892578 6.412109 L 55.729980 6.412109 L 55.729980 7.335938 Z " fill="rgb(0, 0, 0)" fill-opacity="1.000000" />
<path d="M 55.892578 7.335938 L 55.892578 6.412109 L 62.729980 6.412109 L 62.729980 7.335938 Z " fill="rgb(0, 0, 0)" fill-opacity="1.000000" />
<path d="M 62.892578 7.335938 L 62.892578 6.412109 L 69.729980 6.412109 L 69.729980 7.335938 Z " fill="rgb(0, 0, 0)" fill-opacity="1.000000" />
<path d="M 69.892578 7.335938 L 69.892578 6.412109 L 76.729980 6.412109 L 76.729980 7.335938 Z " fill="rgb(0, 0, 0)" fill-opacity="1.000000" />
<path d="M 76.892578 7.335938 L 76.892578 6.412109 L 83.729980 6.412109 L 83.729980 7.335938 Z " fill="rgb(0, 0, 0)" fill-opacity="1.000000" />
<path d="M 83.892578 7.335938 L 83.892578 6.412109 L 90.729980 6.412109 L 90.729980 7.335938 Z " fill="rgb(0, 0, 0)" fill-opacity="1.000000" />
<path d="M 93.878906 13.319336 L 93.878906 7.335938 L 90.892578 7.335938 L 90.892578 6.412109 L 94.738281 6.412109 L 94.738281 13.319336 Z " fill="rgb(0, 0, 0)" fill-opacity="1.000000" />
<path d="M 128.341797 9.108398 Q 129.711426 9.108398 130.253906 8.434326 Q 130.796387 7.760254 130.796387 5.998535 Q 130.796387 4.220703 130.256592 3.546631 Q 129.716797 2.872559 128.341797 2.872559 L 127.826172 2.872559 L 127.826172 9.108398 Z M 128.363281 1.980957 Q 130.200195 1.980957 131.070312 2.958496 Q 131.940430 3.936035 131.940430 5.998535 Q 131.940430 8.050293 131.070312 9.025146 Q 130.200195 10.000000 128.363281 10.000000 L 126.735840 10.000000 L 126.735840 1.980957 Z " fill="rgb(0, 0, 0)" fill-opacity="1.000000" />
<path d="M 136.770508 6.976074 L 136.442871 6.976074 Q 135.578125 6.976074 135.140381 7.279541 Q 134.702637 7.583008 134.702637 8.184570 Q 134.702637 8.727051 135.030273 9.027832 Q 135.357910 9.328613 135.937988 9.328613 Q 136.754395 9.328613 137.221680 8.761963 Q 137.688965 8.195312 137.694336 7.196289 L 137.694336 6.976074 Z M 138.687988 6.567871 L 138.687988 10.000000 L 137.694336 10.000000 L 137.694336 9.108398 Q 137.377441 9.645508 136.896729 9.900635 Q 136.416016 10.155762 135.728516 10.155762 Q 134.810059 10.155762 134.262207 9.637451 Q 133.714355 9.119141 133.714355 8.249023 Q 133.714355 7.244629 134.388428 6.723633 Q 135.062500 6.202637 136.367676 6.202637 L 137.694336 6.202637 L 137.694336 6.046875 Q 137.688965 5.327148 137.329102 5.002197 Q 136.969238 4.677246 136.179688 4.677246 Q 135.674805 4.677246 135.159180 4.822266 Q 134.643555 4.967285 134.154785 5.246582 L 134.154785 4.258301 Q 134.702637 4.048828 135.204834 3.944092 Q 135.707031 3.839355 136.179688 3.839355 Q 136.926270 3.839355 137.455322 4.059570 Q 137.984375 4.279785 138.312012 4.720215 Q 138.516113 4.988770 138.602051 5.383545 Q 138.687988 5.778320 138.687988 6.567871 Z " fill="rgb(0, 0, 0)" fill-opacity="1.000000" />
<path d="M 143.297852 2.276367 L 143.297852 3.984375 L 145.542969 3.984375 L 145.542969 4.752441 L 143.297852 4.752441 L 143.297852 8.018066 Q 143.297852 8.684082 143.550293 8.947266 Q 143.802734 9.210449 144.431152 9.210449 L 145.542969 9.210449 L 145.542969 10.000000 L 144.334473 10.000000 Q 143.222656 10.000000 142.766113 9.554199 Q 142.309570 9.108398 142.309570 8.018066 L 142.309570 4.752441 L 140.703613 4.752441 L 140.703613 3.984375 L 142.309570 3.984375 L 142.309570 2.276367 Z " fill="rgb(0, 0, 0)" fill-opacity="1.000000" />
<path d="M 150.770508 6.976074 L 150.442871 6.976074 Q 149.578125 6.976074 149.140381 7.279541 Q 148.702637 7.583008 148.702637 8.184570 Q 148.702637 8.727051 149.030273 9.027832 Q 149.357910 9.328613 149.937988 9.328613 Q 150.754395 9.328613 151.221680 8.761963 Q 151.688965 8.195312 151.694336 7.196289 L 151.694336 6.976074 Z M 152.687988 6.567871 L 152.687988 10.000000 L 151.694336 10.000000 L 151.694336 9.108398 Q 151.377441 9.645508 150.896729 9.900635 Q 150.416016 10.155762 149.728516 10.155762 Q 148.810059 10.155762 148.262207 9.637451 Q 147.714355 9.119141 147.714355 8.249023 Q 147.714355 7.244629 148.388428 6.723633 Q 149.062500 6.202637 150.367676 6.202637 L 151.694336 6.202637 L 151.694336 6.046875 Q 151.688965 5.327148 151.329102 5.002197 Q 150.969238 4.677246 150.179688 4.677246 Q 149.674805 4.677246 149.159180 4.822266 Q 148.643555 4.967285 148.154785 5.246582 L 148.154785 4.258301 Q 148.702637 4.048828 149.204834 3.944092 Q 149.707031 3.839355 150.179688 3.839355 Q 150.926270 3.839355 151.455322 4.059570 Q 151.984375 4.279785 152.312012 4.720215 Q 152.516113 4.988770 152.602051 5.383545 Q 152.687988 5.778320 152.687988 6.567871 Z " fill="rgb(0, 0, 0)" fill-opacity="1.000000" />
<path d="M 184.878906 13.319336 L 184.878906 6.412109 L 188.729980 6.412109 L 188.729980 7.335938 L 185.738281 7.335938 L 185.738281 13.319336 Z " fill="rgb(0, 0, 0)" fill-opacity="1.000000" />
<path d="M 188.892578 7.335938 L 188.892578 6.412109 L 195.729980 6.412109 L 195.729980 7.335938 Z " fill="rgb(0, 0, 0)" fill-opacity="1.000000" />
<path d="M 195.892578 7.335938 L 195.892578 6.412109 L 202.729980 6.412109 L 202.729980 7.335938 Z " fill="rgb(0, 0, 0)" fill-opacity="1.000000" />
<path d="M 202.892578 7.335938 L 202.892578 6.412109 L 209.729980 6.412109 L 209.729980 7.335938 Z " fill="rgb(0, 0, 0)" fill-opacity="1.000000" />
<path d="M 209.892578 7.335938 L 209.892578 6.412109 L 216.729980 6.412109 L 216.729980 7.335938 Z " fill="rgb(0, 0, 0)" fill-opacity="1.000000" />
<path d="M 216.892578 7.335938 L 216.892578 6.412109 L 223.729980 6.412109 L 223.729980 7.335938 Z " fill="rgb(0, 0, 0)" fill-opacity="1.000000" />
<path d="M 223.892578 7.335938 L 223.892578 6.412109 L 230.729980 6.412109 L 230.729980 7.335938 Z " fill="rgb(0, 0, 0)" fill-opacity="1.000000" />
<path d="M 230.892578 7.335938 L 230.892578 6.412109 L 237.729980 6.412109 L 237.729980 7.335938 Z " fill="rgb(0, 0, 0)" fill-opacity="1.000000" />
<path d="M 237.892578 7.335938 L 237.892578 6.412109 L 244.729980 6.412109 L 244.729980 7.335938 Z " fill="rgb(0, 0, 0)" fill-opacity="1.000000" />
<path d="M 244.892578 7.335938 L 244.892578 6.412109 L 251.729980 6.412109 L 251.729980 7.335938 Z " fill="rgb(0, 0, 0)" fill-opacity="1.000000" />
<path d="M 251.892578 7.335938 L 251.892578 6.412109 L 258.729980 6.412109 L 258.729980 7.335938 Z " fill="rgb(0, 0, 0)" fill-opacity="1.000000" />
<path d="M 258.892578 7.335938 L 258.892578 6.412109 L 265.729980 6.412109 L 265.729980 7.335938 Z " fill="rgb(0, 0, 0)" fill-opacity="1.000000" />
<path d="M 265.892578 7.335938 L 265.892578 6.412109 L 272.729980 6.412109 L 272.729980 7.335938 Z " fill="rgb(0, 0, 0)" fill-opacity="1.000000" />
<path d="M 275.878906 13.319336 L 275.878906 7.335938 L 272.892578 7.335938 L 272.892578 6.412109 L 276.738281 6.412109 L 276.738281 13.319336 Z " fill="rgb(0, 0, 0)" fill-opacity="1.000000" />
</svg>