<svg xmlns="http://www.w3.org/2000/svg" version="1.1" width="456" height="222">
<path d="M 2.878906 13.319336 L 2.878906 6.412109 L 6.729980 6.412109 L 6.729980 7.335938 L 3.738281 7.335938 L 3.738281 13.319336 Z " fill="rgb(0, 0, 0)" fill-opacity="1.000000" />
<path d="M 2.878906 26.319336 L 2.878906 12.300781 L 3.738281 12.300781 L 3.738281 26.319336 Z " fill="rgb(0, 0, 0)" fill-opacity="1.000000" />
<path d="M 2.878906 39.319336 L 2.878906 25.300781 L 3.738281 25.300781 L 3.738281 39.319336 Z " fill="rgb(0, 0, 0)" fill-opacity="1.000000" />
<path d="M 2.878906 52.319336 L 2.878906 38.300781 L 3.738281 38.300781 L 3.738281 52.319336 Z " fill="rgb(0, 0, 0)" fill-opacity="1.000000" />
<path d="M 2.878906 65.319336 L 2.878906 51.300781 L 3.738281 51.300781 L 3.738281 65.319336 Z " fill="rgb(0, 0, 0)" fill-opacity="1.000000" />
<path d="M 2.878906 78.319336 L 2.878906 64.300781 L 3.738281 64.300781 L 3.738281 78.319336 Z " fill="rgb(0, 0, 0)" fill-opacity="1.000000" />
<path d="M 2.878906 91.319336 L 2.878906 77.300781 L 3.738281 77.300781 L 3.738281 91.319336 Z " fill="rgb(0, 0, 0)" fill-opacity="1.000000" />
<path d="M 2.878906 104.319336 L 2.878906 90.300781 L 3.738281 90.300781 L 3.738281 104.319336 Z " fill="rgb(0, 0, 0)" fill-opacity="1.000000" />
<path d="M 2.878906 117.319336 L 2.878906 103.300781 L 3.738281 103.300781 L 3.738281 117.319336 Z " fill="rgb(0, 0, 0)" fill-opacity="1.000000" />
<path d="M 2.878906 130.319336 L 2.878906 116.300781 L 3.738281 116.300781 L 3.738281 130.319336 Z " fill="rgb(0, 0, 0)" fill-opacity="1.000000" />
<path d="M 2.878906 143.319336 L 2.878906 129.300781 L 3.738281 129.300781 L 3.738281 143.319336 Z " fill="rgb(0, 0, 0)" fill-opacity="1.000000" />
<path d="M 2.878906 156.319336 L 2.878906 142.300781 L 3.738281 142.300781 L 3.738281 156.319336 Z " fill="rgb(0, 0, 0)" fill-opacity="1.000000" />
<path d="M 2.878906 163.335938 L 2.878906 155.300781 L 3.738281 155.300781 L 3.738281 162.412109 L 6.729980 162.412109 L 6.729980 163.335938 Z " fill="rgb(0, 0, 0)" fill-opacity="1.000000" />
<path d="M 170.878906 182.319336 L 170.878906 168.300781 L 171.738281 168.300781 L 171.738281 182.319336 Z " fill="rgb(0, 0, 0)" fill-opacity="1.000000" />
<path d="M 170.878906 189.335938 L 170.878906 181.300781 L 171.738281 181.300781 L 171.738281 188.412109 L 174.729980 188.412109 L 174.729980 189.335938 Z " fill="rgb(0, 0, 0)" fill-opacity="1.000000" />
<path d="M 184.878906 202.335938 L 184.878906 194.300781 L 185.738281 194.300781 L 185.738281 201.412109 L 188.729980 201.412109 L 188.729980 202.335938 Z " fill="rgb(0, 0, 0)" fill-opacity="1.000000" />
<path d="M 198.878906 215.335938 L 198.878906 207.300781 L 199.738281 207.300781 L 199.738281 214.412109 L 202.729980 214.412109 L 202.729980 215.335938 Z " fill="rgb(0, 0, 0)" fill-opacity="1.000000" />
<path d="M 202.892578 215.335938 L 202.892578 214.412109 L 209.729980 214.412109 L 209.729980 215.335938 Z " fill="rgb(0, 0, 0)" fill-opacity="1.000000" />
<path d="M 209.892578 215.335938 L 209.892578 214.412109 L 216.729980 214.412109 L 216.729980 215.335938 Z " fill="rgb(0, 0, 0)" fill-opacity="1.000000" />
<path d="M 216.892578 215.335938 L 216.892578 214.412109 L 223.729980 214.412109 L 223.729980 215.335938 Z " fill="rgb(0, 0, 0)" fill-opacity="1.000000" />
<path d="M 223.892578 215.335938 L 223.892578 214.412109 L 230.729980 214.412109 L 230.729980 215.335938 Z " fill="rgb(0, 0, 0)" fill-opacity="1.000000" />
<path d="M 230.892578 215.335938 L 230.892578 214.412109 L 237.729980 214.412109 L 237.729980 215.335938 Z " fill="rgb(0, 0, 0)" fill-opacity="1.000000" />
<path d="M 237.892578 215.335938 L 237.892578 214.412109 L 244.729980 214.412109 L 244.729980 215.335938 Z " fill="rgb(0, 0, 0)" fill-opacity="1.000000" />
<path d="M 244.892578 215.335938 L 244.892578 214.412109 L 251.729980 214.412109 L 251.729980 215.335938 Z " fill="rgb(0, 0, 0)" fill-opacity="1.000000" />
<path d="M 251.892578 215.335938 L 251.892578 214.412109 L 258.729980 214.412109 L 258.729980 215.335938 Z " fill="rgb(0, 0, 0)" fill-opacity="1.000000" />
<path d="M 258.892578 215.335938 L 258.892578 214.412109 L 265.729980 214.412109 L 265.729980 215.335938 Z " fill="rgb(0, 0, 0)" fill-opacity="1.000000" />
<path d="M 265.892578 215.335938 L 265.892578 214.412109 L 272.729980 214.412109 L 272.729980 215.335938 Z " fill="rgb(0, 0, 0)" fill-opacity="1.000000" />
<path d="M 272.892578 215.335938 L 272.892578 214.412109 L 279.729980 214.412109 L 279.729980 215.335938 Z " fill="rgb(0, 0, 0)" fill-opacity="1.000000" />
<path d="M 279.892578 215.335938 L 279.892578 214.412109 L 286.729980 214.412109 L 286.729980 215.335938 Z " fill="rgb(0, 0, 0)" fill-opacity="1.000000" />
<path d="M 286.892578 215.335938 L 286.892578 214.412109 L 289.878906 214.412109 L 289.878906 207.300781 L 290.738281 207.300781 L 290.738281 215.335938 Z " fill="rgb(0, 0, 0)" fill-opacity="1.000000" />
<path d="M 188.892578 202.335938 L 188.892578 201.412109 L 195.729980 201.412109 L 195.729980 202.335938 Z " fill="rgb(0, 0, 0)" fill-opacity="1.000000" />
<path d="M 198.878906 208.319336 L 198.878906 202.335938 L 195.892578 202.335938 L 195.892578 201.412109 L 202.729980 201.412109 L 202.729980 202.335938 L 199.738281 202.335938 L 199.738281 208.319336 Z " fill="rgb(0, 0, 0)" fill-opacity="1.000000" />
<path d="M 202.892578 202.335938 L 202.892578 201.412109 L 209.729980 201.412109 L 209.729980 202.335938 Z " fill="rgb(0, 0, 0)" fill-opacity="1.000000" />
<path d="M 209.892578 202.335938 L 209.892578 201.412109 L 216.729980 201.412109 L 216.729980 202.335938 Z " fill="rgb(0, 0, 0)" fill-opacity="1.000000" />
<path d="M 216.892578 202.335938 L 216.892578 201.412109 L 223.729980 201.412109 L 223.729980 202.335938 Z " fill="rgb(0, 0, 0)" fill-opacity="1.000000" />
<path d="M 223.892578 202.335938 L 223.892578 201.412109 L 230.729980 201.412109 L 230.729980 202.335938 Z " fill="rgb(0, 0, 0)" fill-opacity="1.000000" />
<path d="M 230.892578 202.335938 L 230.892578 201.412109 L 237.729980 201.412109 L 237.729980 202.335938 Z " fill="rgb(0, 0, 0)" fill-opacity="1.000000" />
<path d="M 237.892578 202.335938 L 237.892578 201.412109 L 244.729980 201.412109 L 244.729980 202.335938 Z " fill="rgb(0, 0, 0)" fill-opacity="1.000000" />
<path d="M 244.892578 202.335938 L 244.892578 201.412109 L 251.729980 201.412109 L 251.729980 202.335938 Z " fill="rgb(0, 0, 0)" fill-opacity="1.000000" />
<path d="M 251.892578 202.335938 L 251.892578 201.412109 L 258.729980 201.412109 L 258.729980 202.335938 Z " fill="rgb(0, 0, 0)" fill-opacity="1.000000" />
<path d="M 258.892578 202.335938 L 258.892578 201.412109 L 265.729980 201.412109 L 265.729980 202.335938 Z " fill="rgb(0, 0, 0)" fill-opacity="1.000000" />
<path d="M 265.892578 202.335938 L 265.892578 201.412109 L 272.729980 201.412109 L 272.729980 202.335938 Z " fill="rgb(0, 0, 0)" fill-opacity="1.000000" />
<path d="M 272.892578 202.335938 L 272.892578 201.412109 L 275.878906 201.412109 L 275.878906 194.300781 L 276.738281 194.300781 L 276.738281 202.335938 Z " fill="rgb(0, 0, 0)" fill-opacity="1.000000" />
<path d="M 289.878906 208.319336 L 289.878906 194.300781 L 290.738281 194.300781 L 290.738281 208.319336 Z " fill="rgb(0, 0, 0)" fill-opacity="1.000000" />
<path d="M 174.892578 189.335938 L 174.892578 188.412109 L 181.729980 188.412109 L 181.729980 189.335938 Z " fill="rgb(0, 0, 0)" fill-opacity="1.000000" />
<path d="M 184.878906 195.319336 L 184.878906 189.335938 L 181.892578 189.335938 L 181.892578 188.412109 L 188.729980 188.412109 L 188.729980 189.335938 L 185.738281 189.335938 L 185.738281 195.319336 Z " fill="rgb(0, 0, 0)" fill-opacity="1.000000" />
<path d="M 188.892578 189.335938 L 188.892578 188.412109 L 195.729980 188.412109 L 195.729980 189.335938 Z " fill="rgb(0, 0, 0)" fill-opacity="1.000000" />
<path d="M 195.892578 189.335938 L 195.892578 188.412109 L 202.729980 188.412109 L 202.729980 189.335938 Z " fill="rgb(0, 0, 0)" fill-opacity="1.000000" />
<path d="M 202.892578 189.335938 L 202.892578 188.412109 L 209.729980 188.412109 L 209.729980 189.335938 Z " fill="rgb(0, 0, 0)" fill-opacity="1.000000" />
<path d="M 209.892578 189.335938 L 209.892578 188.412109 L 216.729980 188.412109 L 216.729980 189.335938 Z " fill="rgb(0, 0, 0)" fill-opacity="1.000000" />
<path d="M 216.892578 189.335938 L 216.892578 188.412109 L 223.729980 188.412109 L 223.729980 189.335938 Z " fill="rgb(0, 0, 0)" fill-opacity="1.000000" />
<path d="M 223.892578 189.335938 L 223.892578 188.412109 L 230.729980 188.412109 L 230.729980 189.335938 Z " fill="rgb(0, 0, 0)" fill-opacity="1.000000" />
<path d="M 230.892578 189.335938 L 230.892578 188.412109 L 237.729980 188.412109 L 237.729980 189.335938 Z " fill="rgb(0, 0, 0)" fill-opacity="1.000000" />
<path d="M 237.892578 189.335938 L 237.892578 188.412109 L 244.729980 188.412109 L 244.729980 189.335938 Z " fill="rgb(0, 0, 0)" fill-opacity="1.000000" />
<path d="M 244.892578 189.335938 L 244.892578 188.412109 L 251.729980 188.412109 L 251.729980 189.335938 Z " fill="rgb(0, 0, 0)" fill-opacity="1.000000" />
<path d="M 251.892578 189.335938 L 251.892578 188.412109 L 258.729980 188.412109 L 258.729980 189.335938 Z " fill="rgb(0, 0, 0)" fill-opacity="1.000000" />
<path d="M 258.892578 189.335938 L 258.892578 188.412109 L 261.878906 188.412109 L 261.878906 181.300781 L 262.738281 181.300781 L 262.738281 189.335938 Z " fill="rgb(0, 0, 0)" fill-opacity="1.000000" />
<path d="M 275.878906 195.319336 L 275.878906 181.300781 L 276.738281 181.300781 L 276.738281 195.319336 Z " fill="rgb(0, 0, 0)" fill-opacity="1.000000" />
<path d="M 289.878906 195.319336 L 289.878906 181.300781 L 290.738281 181.300781 L 290.738281 195.319336 Z " fill="rgb(0, 0, 0)" fill-opacity="1.000000" />
<path d="M 261.878906 182.319336 L 261.878906 168.300781 L 262.738281 168.300781 L 262.738281 182.319336 Z " fill="rgb(0, 0, 0)" fill-opacity="1.000000" />
<path d="M 275.878906 182.319336 L 275.878906 168.300781 L 276.738281 168.300781 L 276.738281 182.319336 Z " fill="rgb(0, 0, 0)" fill-opacity="1.000000" />
<path d="M 289.878906 182.319336 L 289.878906 168.300781 L 290.738281 168.300781 L 290.738281 182.319336 Z " fill="rgb(0, 0, 0)" fill-opacity="1.000000" />
<path d="M 6.892578 163.335938 L 6.892578 162.412109 L 13.729980 162.412109 L 13.729980 163.335938 Z " fill="rgb(0, 0, 0)" fill-opacity="1.000000" />
<path d="M 13.892578 163.335938 L 13.892578 162.412109 L 20.729980 162.412109 L 20.729980 163.335938 Z " fill="rgb(0, 0, 0)" fill-opacity="1.000000" />
<path d="M 20.892578 163.335938 L 20.892578 162.412109 L 27.729980 162.412109 L 27.729980 163.335938 Z " fill="rgb(0, 0, 0)" fill-opacity="1.000000" />
<path d="M 27.892578 163.335938 L 27.892578 162.412109 L 34.729980 162.412109 L 34.729980 163.335938 Z " fill="rgb(0, 0, 0)" fill-opacity="1.000000" />
<path d="M 34.892578 163.335938 L 34.892578 162.412109 L 41.729980 162.412109 L 41.729980 163.335938 Z " fill="rgb(0, 0, 0)" fill-opacity="1.000000" />
<path d="M 41.892578 163.335938 L 41.892578 162.412109 L 48.729980 162.412109 L 48.729980 163.335938 Z " fill="rgb(0, 0, 0)" fill-opacity="1.000000" />
<path d="M 48.892578 163.335938 L 48.892578 162.412109 L 55.729980 162.412109 L 55.729980 163.335938 Z " fill="rgb(0, 0, 0)" fill-opacity="1.000000" />
<path d="M 55.892578 163.335938 L 55.892578 162.412109 L 62.729980 162.412109 L 62.729980 163.335938 Z " fill="rgb(0, 0, 0)" fill-opacity="1.000000" />
<path d="M 62.892578 163.335938 L 62.892578 162.412109 L 69.729980 162.412109 L 69.729980 163.335938 Z " fill="rgb(0, 0, 0)" fill-opacity="1.000000" />
<path d="M 69.892578 163.335938 L 69.892578 162.412109 L 76.729980 162.412109 L 76.729980 163.335938 Z " fill="rgb(0, 0, 0)" fill-opacity="1.000000" />
<path d="M 76.892578 163.335938 L 76.892578 162.412109 L 83.729980 162.412109 L 83.729980 163.335938 Z " fill="rgb(0, 0, 0)" fill-opacity="1.000000" />
<path d="M 83.892578 163.335938 L 83.892578 162.412109 L 90.729980 162.412109 L 90.729980 163.335938 Z " fill="rgb(0, 0, 0)" fill-opacity="1.000000" />
<path d="M 90.892578 163.335938 L 90.892578 162.412109 L 97.729980 162.412109 L 97.729980 163.335938 Z " fill="rgb(0, 0, 0)" fill-opacity="1.000000" />
<path d="M 97.892578 163.335938 L 97.892578 162.412109 L 104.729980 162.412109 L 104.729980 163.335938 Z " fill="rgb(0, 0, 0)" fill-opacity="1.000000" />
<path d="M 104.892578 163.335938 L 104.892578 162.412109 L 107.878906 162.412109 L 107.878906 155.300781 L 108.738281 155.300781 L 108.738281 163.335938 Z " fill="rgb(0, 0, 0)" fill-opacity="1.000000" />
<path d="M 170.878906 169.319336 L 170.878906 155.300781 L 171.738281 155.300781 L 171.738281 169.319336 Z " fill="rgb(0, 0, 0)" fill-opacity="1.000000" />
<path d="M 176.697266 160.005859 L 179.227051 160.005859 L 179.227051 165.231934 L 181.187500 165.231934 L 181.187500 166.000000 L 176.278320 166.000000 L 176.278320 165.231934 L 178.238770 165.231934 L 178.238770 160.773926 L 176.697266 160.773926 Z M 178.238770 157.669434 L 179.227051 157.669434 L 179.227051 158.915527 L 178.238770 158.915527 Z " fill="rgb(0, 0, 0)" fill-opacity="1.000000" />
<path d="M 186.608398 160.752441 L 186.608398 157.642578 L 187.596680 157.642578 L 187.596680 166.000000 L 186.608398 166.000000 L 186.608398 165.242676 Q 186.361328 165.688477 185.950439 165.922119 Q 185.539551 166.155762 185.002441 166.155762 Q 183.912109 166.155762 183.286377 165.309814 Q 182.660645 164.463867 182.660645 162.976074 Q 182.660645 161.509766 183.289062 160.674561 Q 183.917480 159.839355 185.002441 159.839355 Q 185.544922 159.839355 185.958496 160.072998 Q 186.372070 160.306641 186.608398 160.752441 Z M 183.702637 162.997559 Q 183.702637 164.146973 184.067871 164.732422 Q 184.433105 165.317871 185.147461 165.317871 Q 185.861816 165.317871 186.235107 164.727051 Q 186.608398 164.136230 186.608398 162.997559 Q 186.608398 161.853516 186.235107 161.265381 Q 185.861816 160.677246 185.147461 160.677246 Q 184.433105 160.677246 184.067871 161.262695 Q 183.702637 161.848145 183.702637 162.997559 Z " fill="rgb(0, 0, 0)" fill-opacity="1.000000" />
<path d="M 191.304199 159.989746 L 192.979980 159.989746 L 192.979980 161.928711 L 191.304199 161.928711 Z M 191.304199 164.044922 L 192.979980 164.044922 L 192.979980 166.000000 L 191.304199 166.000000 Z " fill="rgb(0, 0, 0)" fill-opacity="1.000000" />
<path d="M 204.450195 165.092285 L 206.136719 165.092285 L 206.136719 159.033691 L 204.117188 160.005859 L 204.117188 158.963867 L 206.125977 158.007812 L 207.210938 158.007812 L 207.210938 165.092285 L 208.875977 165.092285 L 208.875977 166.000000 L 204.450195 166.000000 Z " fill="rgb(0, 0, 0)" fill-opacity="1.000000" />
<path d="M 261.878906 169.319336 L 261.878906 155.300781 L 262.738281 155.300781 L 262.738281 169.319336 Z " fill="rgb(0, 0, 0)" fill-opacity="1.000000" />
<path d="M 275.878906 169.319336 L 275.878906 155.300781 L 276.738281 155.300781 L 276.738281 169.319336 Z " fill="rgb(0, 0, 0)" fill-opacity="1.000000" />
<path d="M 289.878906 169.319336 L 289.878906 155.300781 L 290.738281 155.300781 L 290.738281 169.319336 Z " fill="rgb(0, 0, 0)" fill-opacity="1.000000" />
<path d="M 345.878906 163.335938 L 345.878906 155.300781 L 346.738281 155.300781 L 346.738281 162.412109 L 349.729980 162.412109 L 349.729980 163.335938 Z " fill="rgb(0, 0, 0)" fill-opacity="1.000000" />
<path d="M 349.892578 163.335938 L 349.892578 162.412109 L 356.729980 162.412109 L 356.729980 163.335938 Z " fill="rgb(0, 0, 0)" fill-opacity="1.000000" />
<path d="M 356.892578 163.335938 L 356.892578 162.412109 L 363.729980 162.412109 L 363.729980 163.335938 Z " fill="rgb(0, 0, 0)" fill-opacity="1.000000" />
<path d="M 363.892578 163.335938 L 363.892578 162.412109 L 370.729980 162.412109 L 370.729980 163.335938 Z " fill="rgb(0, 0, 0)" fill-opacity="1.000000" />
<path d="M 370.892578 163.335938 L 370.892578 162.412109 L 377.729980 162.412109 L 377.729980 163.335938 Z " fill="rgb(0, 0, 0)" fill-opacity="1.000000" />
<path d="M 377.892578 163.335938 L 377.892578 162.412109 L 384.729980 162.412109 L 384.729980 163.335938 Z " fill="rgb(0, 0, 0)" fill-opacity="1.000000" />
<path d="M 384.892578 163.335938 L 384.892578 162.412109 L 391.729980 162.412109 L 391.729980 163.335938 Z " fill="rgb(0, 0, 0)" fill-opacity="1.000000" />
<path d="M 391.892578 163.335938 L 391.892578 162.412109 L 398.729980 162.412109 L 398.729980 163.335938 Z " fill="rgb(0, 0, 0)" fill-opacity="1.000000" />
<path d="M 398.892578 163.335938 L 398.892578 162.412109 L 405.729980 162.412109 L 405.729980 163.335938 Z " fill="rgb(0, 0, 0)" fill-opacity="1.000000" />
<path d="M 405.892578 163.335938 L 405.892578 162.412109 L 412.729980 162.412109 L 412.729980 163.335938 Z " fill="rgb(0, 0, 0)" fill-opacity="1.000000" />
<path d="M 412.892578 163.335938 L 412.892578 162.412109 L 419.729980 162.412109 L 419.729980 163.335938 Z " fill="rgb(0, 0, 0)" fill-opacity="1.000000" />
<path d="M 419.892578 163.335938 L 419.892578 162.412109 L 426.729980 162.412109 L 426.729980 163.335938 Z " fill="rgb(0, 0, 0)" fill-opacity="1.000000" />
<path d="M 426.892578 163.335938 L 426.892578 162.412109 L 433.729980 162.412109 L 433.729980 163.335938 Z " fill="rgb(0, 0, 0)" fill-opacity="1.000000" />
<path d="M 433.892578 163.335938 L 433.892578 162.412109 L 440.729980 162.412109 L 440.729980 163.335938 Z " fill="rgb(0, 0, 0)" fill-opacity="1.000000" />
<path d="M 440.892578 163.335938 L 440.892578 162.412109 L 447.729980 162.412109 L 447.729980 163.335938 Z " fill="rgb(0, 0, 0)" fill-opacity="1.000000" />
<path d="M 447.892578 163.335938 L 447.892578 162.412109 L 450.878906 162.412109 L 450.878906 155.300781 L 451.738281 155.300781 L 451.738281 163.335938 Z " fill="rgb(0, 0, 0)" fill-opacity="1.000000" />
<path d="M 40.763184 87.715332 Q 40.349609 87.935547 39.914551 88.045654 Q 39.479492 88.155762 38.990723 88.155762 Q 37.449219 88.155762 36.597900 87.065430 Q 35.746582 85.975098 35.746582 83.998535 Q 35.746582 82.032715 36.603271 80.934326 Q 37.459961 79.835938 38.990723 79.835938 Q 39.479492 79.835938 39.914551 79.946045 Q 40.349609 80.056152 40.763184 80.276367 L 40.763184 81.388184 Q 40.365723 81.060547 39.909180 80.888672 Q 39.452637 80.716797 38.990723 80.716797 Q 37.932617 80.716797 37.406250 81.533203 Q 36.879883 82.349609 36.879883 83.998535 Q 36.879883 85.642090 37.406250 86.458496 Q 37.932617 87.274902 38.990723 87.274902 Q 39.463379 87.274902 39.917236 87.103027 Q 40.371094 86.931152 40.763184 86.603516 Z " fill="rgb(0, 0, 0)" fill-opacity="1.000000" />
<path d="M 107.878906 104.319336 L 107.878906 90.300781 L 108.738281 90.300781 L 108.738281 104.319336 Z " fill="rgb(0, 0, 0)" fill-opacity="1.000000" />
<path d="M 107.878906 117.319336 L 107.878906 103.300781 L 108.738281 103.300781 L 108.738281 117.319336 Z " fill="rgb(0, 0, 0)" fill-opacity="1.000000" />
<path d="M 107.878906 130.319336 L 107.878906 116.300781 L 108.738281 116.300781 L 108.738281 130.319336 Z " fill="rgb(0, 0, 0)" fill-opacity="1.000000" />
<path d="M 107.878906 143.319336 L 107.878906 129.300781 L 108.738281 129.300781 L 108.738281 143.319336 Z " fill="rgb(0, 0, 0)" fill-opacity="1.000000" />
<path d="M 107.878906 156.319336 L 107.878906 142.300781 L 108.738281 142.300781 L 108.738281 156.319336 Z " fill="rgb(0, 0, 0)" fill-opacity="1.000000" />
<path d="M 112.032227 111.142578 L 118.590332 107.866211 L 118.590332 114.418945 Z " fill="rgb(0, 0, 0)" fill-opacity="1.000000" />
<path d="M 170.878906 130.319336 L 170.878906 123.412109 L 174.729980 123.412109 L 174.729980 124.335938 L 171.738281 124.335938 L 171.738281 130.319336 Z " fill="rgb(0, 0, 0)" fill-opacity="1.000000" />
<path d="M 170.878906 143.319336 L 170.878906 129.300781 L 171.738281 129.300781 L 171.738281 143.319336 Z " fill="rgb(0, 0, 0)" fill-opacity="1.000000" />
<path d="M 170.878906 156.319336 L 170.878906 142.300781 L 171.738281 142.300781 L 171.738281 156.319336 Z " fill="rgb(0, 0, 0)" fill-opacity="1.000000" />
<path d="M 179.608398 134.752441 L 179.608398 131.642578 L 180.596680 131.642578 L 180.596680 140.000000 L 179.608398 140.000000 L 179.608398 139.242676 Q 179.361328 139.688477 178.950439 139.922119 Q 178.539551 140.155762 178.002441 140.155762 Q 176.912109 140.155762 176.286377 139.309814 Q 175.660645 138.463867 175.660645 136.976074 Q 175.660645 135.509766 176.289062 134.674561 Q 176.917480 133.839355 178.002441 133.839355 Q 178.544922 133.839355 178.958496 134.072998 Q 179.372070 134.306641 179.608398 134.752441 Z M 176.702637 136.997559 Q 176.702637 138.146973 177.067871 138.732422 Q 177.433105 139.317871 178.147461 139.317871 Q 178.861816 139.317871 179.235107 138.727051 Q 179.608398 138.136230 179.608398 136.997559 Q 179.608398 135.853516 179.235107 135.265381 Q 178.861816 134.677246 178.147461 134.677246 Q 177.433105 134.677246 177.067871 135.262695 Q 176.702637 135.848145 176.702637 136.997559 Z " fill="rgb(0, 0, 0)" fill-opacity="1.000000" />
<path d="M 179.608398 147.752441 L 179.608398 144.642578 L 180.596680 144.642578 L 180.596680 153.000000 L 179.608398 153.000000 L 179.608398 152.242676 Q 179.361328 152.688477 178.950439 152.922119 Q 178.539551 153.155762 178.002441 153.155762 Q 176.912109 153.155762 176.286377 152.309814 Q 175.660645 151.463867 175.660645 149.976074 Q 175.660645 148.509766 176.289062 147.674561 Q 176.917480 146.839355 178.002441 146.839355 Q 178.544922 146.839355 178.958496 147.072998 Q 179.372070 147.306641 179.608398 147.752441 Z M 176.702637 149.997559 Q 176.702637 151.146973 177.067871 151.732422 Q 177.433105 152.317871 178.147461 152.317871 Q 178.861816 152.317871 179.235107 151.727051 Q 179.608398 151.136230 179.608398 149.997559 Q 179.608398 148.853516 179.235107 148.265381 Q 178.861816 147.677246 178.147461 147.677246 Q 177.433105 147.677246 177.067871 148.262695 Q 176.702637 148.848145 176.702637 149.997559 Z " fill="rgb(0, 0, 0)" fill-opacity="1.000000" />
<path d="M 185.770508 136.976074 L 185.442871 136.976074 Q 184.578125 136.976074 184.140381 137.279541 Q 183.702637 137.583008 183.702637 138.184570 Q 183.702637 138.727051 184.030273 139.027832 Q 184.357910 139.328613 184.937988 139.328613 Q 185.754395 139.328613 186.221680 138.761963 Q 186.688965 138.195312 186.694336 137.196289 L 186.694336 136.976074 Z M 187.687988 136.567871 L 187.687988 140.000000 L 186.694336 140.000000 L 186.694336 139.108398 Q 186.377441 139.645508 185.896729 139.900635 Q 185.416016 140.155762 184.728516 140.155762 Q 183.810059 140.155762 183.262207 139.637451 Q 182.714355 139.119141 182.714355 138.249023 Q 182.714355 137.244629 183.388428 136.723633 Q 184.062500 136.202637 185.367676 136.202637 L 186.694336 136.202637 L 186.694336 136.046875 Q 186.688965 135.327148 186.329102 135.002197 Q 185.969238 134.677246 185.179688 134.677246 Q 184.674805 134.677246 184.159180 134.822266 Q 183.643555 134.967285 183.154785 135.246582 L 183.154785 134.258301 Q 183.702637 134.048828 184.204834 133.944092 Q 184.707031 133.839355 185.179688 133.839355 Q 185.926270 133.839355 186.455322 134.059570 Q 186.984375 134.279785 187.312012 134.720215 Q 187.516113 134.988770 187.602051 135.383545 Q 187.687988 135.778320 187.687988 136.567871 Z " fill="rgb(0, 0, 0)" fill-opacity="1.000000" />
<path d="M 185.770508 149.976074 L 185.442871 149.976074 Q 184.578125 149.976074 184.140381 150.279541 Q 183.702637 150.583008 183.702637 151.184570 Q 183.702637 151.727051 184.030273 152.027832 Q 184.357910 152.328613 184.937988 152.328613 Q 185.754395 152.328613 186.221680 151.761963 Q 186.688965 151.195312 186.694336 150.196289 L 186.694336 149.976074 Z M 187.687988 149.567871 L 187.687988 153.000000 L 186.694336 153.000000 L 186.694336 152.108398 Q 186.377441 152.645508 185.896729 152.900635 Q 185.416016 153.155762 184.728516 153.155762 Q 183.810059 153.155762 183.262207 152.637451 Q 182.714355 152.119141 182.714355 151.249023 Q 182.714355 150.244629 183.388428 149.723633 Q 184.062500 149.202637 185.367676 149.202637 L 186.694336 149.202637 L 186.694336 149.046875 Q 186.688965 148.327148 186.329102 148.002197 Q 185.969238 147.677246 185.179688 147.677246 Q 184.674805 147.677246 184.159180 147.822266 Q 183.643555 147.967285 183.154785 148.246582 L 183.154785 147.258301 Q 183.702637 147.048828 184.204834 146.944092 Q 184.707031 146.839355 185.179688 146.839355 Q 185.926270 146.839355 186.455322 147.059570 Q 186.984375 147.279785 187.312012 147.720215 Q 187.516113 147.988770 187.602051 148.383545 Q 187.687988 148.778320 187.687988 149.567871 Z " fill="rgb(0, 0, 0)" fill-opacity="1.000000" />
<path d="M 192.297852 132.276367 L 192.297852 133.984375 L 194.542969 133.984375 L 194.542969 134.752441 L 192.297852 134.752441 L 192.297852 138.018066 Q 192.297852 138.684082 192.550293 138.947266 Q 192.802734 139.210449 193.431152 139.210449 L 194.542969 139.210449 L 194.542969 140.000000 L 193.334473 140.000000 Q 192.222656 140.000000 191.766113 139.554199 Q 191.309570 139.108398 191.309570 138.018066 L 191.309570 134.752441 L 189.703613 134.752441 L 189.703613 133.984375 L 191.309570 133.984375 L 191.309570 132.276367 Z " fill="rgb(0, 0, 0)" fill-opacity="1.000000" />
<path d="M 192.297852 145.276367 L 192.297852 146.984375 L 194.542969 146.984375 L 194.542969 147.752441 L 192.297852 147.752441 L 192.297852 151.018066 Q 192.297852 151.684082 192.550293 151.947266 Q 192.802734 152.210449 193.431152 152.210449 L 194.542969 152.210449 L 194.542969 153.000000 L 193.334473 153.000000 Q 192.222656 153.000000 191.766113 152.554199 Q 191.309570 152.108398 191.309570 151.018066 L 191.309570 147.752441 L 189.703613 147.752441 L 189.703613 146.984375 L 191.309570 146.984375 L 191.309570 145.276367 Z " fill="rgb(0, 0, 0)" fill-opacity="1.000000" />
<path d="M 199.770508 136.976074 L 199.442871 136.976074 Q 198.578125 136.976074 198.140381 137.279541 Q 197.702637 137.583008 197.702637 138.184570 Q 197.702637 138.727051 198.030273 139.027832 Q 198.357910 139.328613 198.937988 139.328613 Q 199.754395 139.328613 200.221680 138.761963 Q 200.688965 138.195312 200.694336 137.196289 L 200.694336 136.976074 Z M 201.687988 136.567871 L 201.687988 140.000000 L 200.694336 140.000000 L 200.694336 139.108398 Q 200.377441 139.645508 199.896729 139.900635 Q 199.416016 140.155762 198.728516 140.155762 Q 197.810059 140.155762 197.262207 139.637451 Q 196.714355 139.119141 196.714355 138.249023 Q 196.714355 137.244629 197.388428 136.723633 Q 198.062500 136.202637 199.367676 136.202637 L 200.694336 136.202637 L 200.694336 136.046875 Q 200.688965 135.327148 200.329102 135.002197 Q 199.969238 134.677246 199.179688 134.677246 Q 198.674805 134.677246 198.159180 134.822266 Q 197.643555 134.967285 197.154785 135.246582 L 197.154785 134.258301 Q 197.702637 134.048828 198.204834 133.944092 Q 198.707031 133.839355 199.179688 133.839355 Q 199.926270 133.839355 200.455322 134.059570 Q 200.984375 134.279785 201.312012 134.720215 Q 201.516113 134.988770 201.602051 135.383545 Q 201.687988 135.778320 201.687988 136.567871 Z " fill="rgb(0, 0, 0)" fill-opacity="1.000000" />
<path d="M 199.770508 149.976074 L 199.442871 149.976074 Q 198.578125 149.976074 198.140381 150.279541 Q 197.702637 150.583008 197.702637 151.184570 Q 197.702637 151.727051 198.030273 152.027832 Q 198.357910 152.328613 198.937988 152.328613 Q 199.754395 152.328613 200.221680 151.761963 Q 200.688965 151.195312 200.694336 150.196289 L 200.694336 149.976074 Z M 201.687988 149.567871 L 201.687988 153.000000 L 200.694336 153.000000 L 200.694336 152.108398 Q 200.377441 152.645508 199.896729 152.900635 Q 199.416016 153.155762 198.728516 153.155762 Q 197.810059 153.155762 197.262207 152.637451 Q 196.714355 152.119141 196.714355 151.249023 Q 196.714355 150.244629 197.388428 149.723633 Q 198.062500 149.202637 199.367676 149.202637 L 200.694336 149.202637 L 200.694336 149.046875 Q 200.688965 148.327148 200.329102 148.002197 Q 199.969238 147.677246 199.179688 147.677246 Q 198.674805 147.677246 198.159180 147.822266 Q 197.643555 147.967285 197.154785 148.246582 L 197.154785 147.258301 Q 197.702637 147.048828 198.204834 146.944092 Q 198.707031 146.839355 199.179688 146.839355 Q 199.926270 146.839355 200.455322 147.059570 Q 200.984375 147.279785 201.312012 147.720215 Q 201.516113 147.988770 201.602051 148.383545 Q 201.687988 148.778320 201.687988 149.567871 Z " fill="rgb(0, 0, 0)" fill-opacity="1.000000" />
<path d="M 205.304199 133.989746 L 206.979980 133.989746 L 206.979980 135.928711 L 205.304199 135.928711 Z M 205.304199 138.044922 L 206.979980 138.044922 L 206.979980 140.000000 L 205.304199 140.000000 Z " fill="rgb(0, 0, 0)" fill-opacity="1.000000" />
<path d="M 205.304199 146.989746 L 206.979980 146.989746 L 206.979980 148.928711 L 205.304199 148.928711 Z M 205.304199 151.044922 L 206.979980 151.044922 L 206.979980 153.000000 L 205.304199 153.000000 Z " fill="rgb(0, 0, 0)" fill-opacity="1.000000" />
<path d="M 220.861816 137.824707 Q 220.861816 138.490723 221.106201 138.829102 Q 221.350586 139.167480 221.828613 139.167480 L 222.983398 139.167480 L 222.983398 140.000000 L 221.731934 140.000000 Q 220.845703 140.000000 220.359619 139.433350 Q 219.873535 138.866699 219.873535 137.824707 L 219.873535 132.383789 L 218.289062 132.383789 L 218.289062 131.610352 L 220.861816 131.610352 Z " fill="rgb(0, 0, 0)" fill-opacity="1.000000" />
<path d="M 220.861816 150.824707 Q 220.861816 151.490723 221.106201 151.829102 Q 221.350586 152.167480 221.828613 152.167480 L 222.983398 152.167480 L 222.983398 153.000000 L 221.731934 153.000000 Q 220.845703 153.000000 220.359619 152.433350 Q 219.873535 151.866699 219.873535 150.824707 L 219.873535 145.383789 L 218.289062 145.383789 L 218.289062 144.610352 L 220.861816 144.610352 Z " fill="rgb(0, 0, 0)" fill-opacity="1.000000" />
<path d="M 225.697266 134.005859 L 228.227051 134.005859 L 228.227051 139.231934 L 230.187500 139.231934 L 230.187500 140.000000 L 225.278320 140.000000 L 225.278320 139.231934 L 227.238770 139.231934 L 227.238770 134.773926 L 225.697266 134.773926 Z M 227.238770 131.669434 L 228.227051 131.669434 L 228.227051 132.915527 L 227.238770 132.915527 Z " fill="rgb(0, 0, 0)" fill-opacity="1.000000" />
<path d="M 225.697266 147.005859 L 228.227051 147.005859 L 228.227051 152.231934 L 230.187500 152.231934 L 230.187500 153.000000 L 225.278320 153.000000 L 225.278320 152.231934 L 227.238770 152.231934 L 227.238770 147.773926 L 225.697266 147.773926 Z M 227.238770 144.669434 L 228.227051 144.669434 L 228.227051 145.915527 L 227.238770 145.915527 Z " fill="rgb(0, 0, 0)" fill-opacity="1.000000" />
<path d="M 236.645020 136.272461 L 236.645020 140.000000 L 235.651367 140.000000 L 235.651367 136.272461 Q 235.651367 135.461426 235.366699 135.080078 Q 235.082031 134.698730 234.475098 134.698730 Q 233.782227 134.698730 233.408936 135.190186 Q 233.035645 135.681641 233.035645 136.600098 L 233.035645 140.000000 L 232.047363 140.000000 L 232.047363 133.984375 L 233.035645 133.984375 L 233.035645 134.886719 Q 233.298828 134.371094 233.750000 134.105225 Q 234.201172 133.839355 234.818848 133.839355 Q 235.737305 133.839355 236.191162 134.443604 Q 236.645020 135.047852 236.645020 136.272461 Z " fill="rgb(0, 0, 0)" fill-opacity="1.000000" />
<path d="M 236.645020 149.272461 L 236.645020 153.000000 L 235.651367 153.000000 L 235.651367 149.272461 Q 235.651367 148.461426 235.366699 148.080078 Q 235.082031 147.698730 234.475098 147.698730 Q 233.782227 147.698730 233.408936 148.190186 Q 233.035645 148.681641 233.035645 149.600098 L 233.035645 153.000000 L 232.047363 153.000000 L 232.047363 146.984375 L 233.035645 146.984375 L 233.035645 147.886719 Q 233.298828 147.371094 233.750000 147.105225 Q 234.201172 146.839355 234.818848 146.839355 Q 235.737305 146.839355 236.191162 147.443604 Q 236.645020 148.047852 236.645020 149.272461 Z " fill="rgb(0, 0, 0)" fill-opacity="1.000000" />
<path d="M 244.015625 136.498047 L 244.015625 136.981445 L 239.734863 136.981445 L 239.734863 137.013672 Q 239.691895 138.243652 240.204834 138.780762 Q 240.717773 139.317871 241.652344 139.317871 Q 242.125000 139.317871 242.640625 139.167480 Q 243.156250 139.017090 243.741699 138.710938 L 243.741699 139.693848 Q 243.177734 139.924805 242.654053 140.040283 Q 242.130371 140.155762 241.641602 140.155762 Q 240.239746 140.155762 239.450195 139.315186 Q 238.660645 138.474609 238.660645 136.997559 Q 238.660645 135.558105 239.434082 134.698730 Q 240.207520 133.839355 241.496582 133.839355 Q 242.645996 133.839355 243.309326 134.618164 Q 243.972656 135.396973 244.015625 136.498047 Z M 243.027344 136.208008 Q 242.962891 135.584961 242.573486 135.131104 Q 242.184082 134.677246 241.453613 134.677246 Q 240.739258 134.677246 240.277344 135.149902 Q 239.815430 135.622559 239.772461 136.213379 Z " fill="rgb(0, 0, 0)" fill-opacity="1.000000" />
<path d="M 244.015625 149.498047 L 244.015625 149.981445 L 239.734863 149.981445 L 239.734863 150.013672 Q 239.691895 151.243652 240.204834 151.780762 Q 240.717773 152.317871 241.652344 152.317871 Q 242.125000 152.317871 242.640625 152.167480 Q 243.156250 152.017090 243.741699 151.710938 L 243.741699 152.693848 Q 243.177734 152.924805 242.654053 153.040283 Q 242.130371 153.155762 241.641602 153.155762 Q 240.239746 153.155762 239.450195 152.315186 Q 238.660645 151.474609 238.660645 149.997559 Q 238.660645 148.558105 239.434082 147.698730 Q 240.207520 146.839355 241.496582 146.839355 Q 242.645996 146.839355 243.309326 147.618164 Q 243.972656 148.396973 244.015625 149.498047 Z M 243.027344 149.208008 Q 242.962891 148.584961 242.573486 148.131104 Q 242.184082 147.677246 241.453613 147.677246 Q 240.739258 147.677246 240.277344 148.149902 Q 239.815430 148.622559 239.772461 149.213379 Z " fill="rgb(0, 0, 0)" fill-opacity="1.000000" />
<path d="M 253.450195 139.092285 L 255.136719 139.092285 L 255.136719 133.033691 L 253.117188 134.005859 L 253.117188 132.963867 L 255.125977 132.007812 L 256.210938 132.007812 L 256.210938 139.092285 L 257.875977 139.092285 L 257.875977 140.000000 L 253.450195 140.000000 Z " fill="rgb(0, 0, 0)" fill-opacity="1.000000" />
<path d="M 254.003418 152.086914 L 257.687988 152.086914 L 257.687988 153.000000 L 252.816406 153.000000 L 252.816406 152.086914 Q 253.820801 151.028809 254.572754 150.217773 Q 255.324707 149.406738 255.609375 149.073730 Q 256.146484 148.418457 256.334473 148.012939 Q 256.522461 147.607422 256.522461 147.183105 Q 256.522461 146.511719 256.127686 146.130371 Q 255.732910 145.749023 255.045410 145.749023 Q 254.556641 145.749023 254.019531 145.926270 Q 253.482422 146.103516 252.880859 146.463379 L 252.880859 145.367676 Q 253.434082 145.104492 253.968506 144.970215 Q 254.502930 144.835938 255.023926 144.835938 Q 256.200195 144.835938 256.917236 145.461670 Q 257.634277 146.087402 257.634277 147.102539 Q 257.634277 147.618164 257.395264 148.133789 Q 257.156250 148.649414 256.619141 149.272461 Q 256.318359 149.621582 255.746338 150.239258 Q 255.174316 150.856934 254.003418 152.086914 Z " fill="rgb(0, 0, 0)" fill-opacity="1.000000" />
<path d="M 261.878906 156.319336 L 261.878906 142.300781 L 262.738281 142.300781 L 262.738281 156.319336 Z " fill="rgb(0, 0, 0)" fill-opacity="1.000000" />
<path d="M 275.878906 156.319336 L 275.878906 142.300781 L 276.738281 142.300781 L 276.738281 149.412109 L 279.729980 149.412109 L 279.729980 150.335938 L 276.738281 150.335938 L 276.738281 156.319336 Z " fill="rgb(0, 0, 0)" fill-opacity="1.000000" />
<path d="M 279.892578 150.335938 L 279.892578 149.412109 L 286.729980 149.412109 L 286.729980 150.335938 Z " fill="rgb(0, 0, 0)" fill-opacity="1.000000" />
<path d="M 289.878906 156.319336 L 289.878906 150.335938 L 286.892578 150.335938 L 286.892578 149.412109 L 290.738281 149.412109 L 290.738281 156.319336 Z " fill="rgb(0, 0, 0)" fill-opacity="1.000000" />
<path d="M 345.878906 156.319336 L 345.878906 142.300781 L 346.738281 142.300781 L 346.738281 156.319336 Z " fill="rgb(0, 0, 0)" fill-opacity="1.000000" />
<path d="M 450.878906 156.319336 L 450.878906 142.300781 L 451.738281 142.300781 L 451.738281 156.319336 Z " fill="rgb(0, 0, 0)" fill-opacity="1.000000" />
<path d="M 261.878906 143.319336 L 261.878906 129.300781 L 262.738281 129.300781 L 262.738281 136.412109 L 265.729980 136.412109 L 265.729980 137.335938 L 262.738281 137.335938 L 262.738281 143.319336 Z " fill="rgb(0, 0, 0)" fill-opacity="1.000000" />
<path d="M 265.892578 137.335938 L 265.892578 136.412109 L 272.729980 136.412109 L 272.729980 137.335938 Z " fill="rgb(0, 0, 0)" fill-opacity="1.000000" />
<path d="M 275.878906 143.319336 L 275.878906 137.335938 L 272.892578 137.335938 L 272.892578 136.412109 L 276.738281 136.412109 L 276.738281 143.319336 Z " fill="rgb(0, 0, 0)" fill-opacity="1.000000" />
<path d="M 345.878906 143.319336 L 345.878906 129.300781 L 346.738281 129.300781 L 346.738281 143.319336 Z " fill="rgb(0, 0, 0)" fill-opacity="1.000000" />
<path d="M 450.878906 143.319336 L 450.878906 129.300781 L 451.738281 129.300781 L 451.738281 143.319336 Z " fill="rgb(0, 0, 0)" fill-opacity="1.000000" />
<path d="M 174.892578 124.335938 L 174.892578 123.412109 L 181.729980 123.412109 L 181.729980 124.335938 Z " fill="rgb(0, 0, 0)" fill-opacity="1.000000" />
<path d="M 181.892578 124.335938 L 181.892578 123.412109 L 188.729980 123.412109 L 188.729980 124.335938 Z " fill="rgb(0, 0, 0)" fill-opacity="1.000000" />
<path d="M 188.892578 124.335938 L 188.892578 123.412109 L 195.729980 123.412109 L 195.729980 124.335938 Z " fill="rgb(0, 0, 0)" fill-opacity="1.000000" />
<path d="M 195.892578 124.335938 L 195.892578 123.412109 L 202.729980 123.412109 L 202.729980 124.335938 Z " fill="rgb(0, 0, 0)" fill-opacity="1.000000" />
<path d="M 202.892578 124.335938 L 202.892578 123.412109 L 209.729980 123.412109 L 209.729980 124.335938 Z " fill="rgb(0, 0, 0)" fill-opacity="1.000000" />
<path d="M 209.892578 124.335938 L 209.892578 123.412109 L 216.729980 123.412109 L 216.729980 124.335938 Z " fill="rgb(0, 0, 0)" fill-opacity="1.000000" />
<path d="M 216.892578 124.335938 L 216.892578 123.412109 L 223.729980 123.412109 L 223.729980 124.335938 Z " fill="rgb(0, 0, 0)" fill-opacity="1.000000" />
<path d="M 223.892578 124.335938 L 223.892578 123.412109 L 230.729980 123.412109 L 230.729980 124.335938 Z " fill="rgb(0, 0, 0)" fill-opacity="1.000000" />
<path d="M 230.892578 124.335938 L 230.892578 123.412109 L 237.729980 123.412109 L 237.729980 124.335938 Z " fill="rgb(0, 0, 0)" fill-opacity="1.000000" />
<path d="M 237.892578 124.335938 L 237.892578 123.412109 L 244.729980 123.412109 L 244.729980 124.335938 Z " fill="rgb(0, 0, 0)" fill-opacity="1.000000" />
<path d="M 244.892578 124.335938 L 244.892578 123.412109 L 251.729980 123.412109 L 251.729980 124.335938 Z " fill="rgb(0, 0, 0)" fill-opacity="1.000000" />
<path d="M 251.892578 124.335938 L 251.892578 123.412109 L 258.729980 123.412109 L 258.729980 124.335938 Z " fill="rgb(0, 0, 0)" fill-opacity="1.000000" />
<path d="M 261.878906 130.319336 L 261.878906 124.335938 L 258.892578 124.335938 L 258.892578 123.412109 L 262.738281 123.412109 L 262.738281 130.319336 Z " fill="rgb(0, 0, 0)" fill-opacity="1.000000" />
<path d="M 345.878906 130.319336 L 345.878906 116.300781 L 346.738281 116.300781 L 346.738281 130.319336 Z " fill="rgb(0, 0, 0)" fill-opacity="1.000000" />
<path d="M 450.878906 130.319336 L 450.878906 116.300781 L 451.738281 116.300781 L 451.738281 130.319336 Z " fill="rgb(0, 0, 0)" fill-opacity="1.000000" />
<path d="M 118.892578 111.335938 L 118.892578 110.412109 L 125.729980 110.412109 L 125.729980 111.335938 Z " fill="rgb(0, 0, 0)" fill-opacity="1.000000" />
<path d="M 125.892578 111.335938 L 125.892578 110.412109 L 132.729980 110.412109 L 132.729980 111.335938 Z " fill="rgb(0, 0, 0)" fill-opacity="1.000000" />
<path d="M 132.892578 111.335938 L 132.892578 110.412109 L 139.729980 110.412109 L 139.729980 111.335938 Z " fill="rgb(0, 0, 0)" fill-opacity="1.000000" />
<path d="M 139.892578 111.335938 L 139.892578 110.412109 L 146.729980 110.412109 L 146.729980 111.335938 Z " fill="rgb(0, 0, 0)" fill-opacity="1.000000" />
<path d="M 146.892578 111.335938 L 146.892578 110.412109 L 153.729980 110.412109 L 153.729980 111.335938 Z " fill="rgb(0, 0, 0)" fill-opacity="1.000000" />
<path d="M 153.892578 111.335938 L 153.892578 110.412109 L 160.729980 110.412109 L 160.729980 111.335938 Z " fill="rgb(0, 0, 0)" fill-opacity="1.000000" />
<path d="M 160.892578 111.335938 L 160.892578 110.412109 L 167.729980 110.412109 L 167.729980 111.335938 Z " fill="rgb(0, 0, 0)" fill-opacity="1.000000" />
<path d="M 167.892578 111.335938 L 167.892578 110.412109 L 174.729980 110.412109 L 174.729980 111.335938 Z " fill="rgb(0, 0, 0)" fill-opacity="1.000000" />
<path d="M 174.892578 111.335938 L 174.892578 110.412109 L 181.729980 110.412109 L 181.729980 111.335938 Z " fill="rgb(0, 0, 0)" fill-opacity="1.000000" />
<path d="M 181.892578 111.335938 L 181.892578 110.412109 L 188.729980 110.412109 L 188.729980 111.335938 Z " fill="rgb(0, 0, 0)" fill-opacity="1.000000" />
<path d="M 188.892578 111.335938 L 188.892578 110.412109 L 195.729980 110.412109 L 195.729980 111.335938 Z " fill="rgb(0, 0, 0)" fill-opacity="1.000000" />
<path d="M 195.892578 111.335938 L 195.892578 110.412109 L 202.729980 110.412109 L 202.729980 111.335938 Z " fill="rgb(0, 0, 0)" fill-opacity="1.000000" />
<path d="M 202.892578 111.335938 L 202.892578 110.412109 L 209.729980 110.412109 L 209.729980 111.335938 Z " fill="rgb(0, 0, 0)" fill-opacity="1.000000" />
<path d="M 209.892578 111.335938 L 209.892578 110.412109 L 216.729980 110.412109 L 216.729980 111.335938 Z " fill="rgb(0, 0, 0)" fill-opacity="1.000000" />
<path d="M 216.892578 111.335938 L 216.892578 110.412109 L 223.729980 110.412109 L 223.729980 111.335938 Z " fill="rgb(0, 0, 0)" fill-opacity="1.000000" />
<path d="M 223.892578 111.335938 L 223.892578 110.412109 L 230.729980 110.412109 L 230.729980 111.335938 Z " fill="rgb(0, 0, 0)" fill-opacity="1.000000" />
<path d="M 230.892578 111.335938 L 230.892578 110.412109 L 237.729980 110.412109 L 237.729980 111.335938 Z " fill="rgb(0, 0, 0)" fill-opacity="1.000000" />
<path d="M 237.892578 111.335938 L 237.892578 110.412109 L 244.729980 110.412109 L 244.729980 111.335938 Z " fill="rgb(0, 0, 0)" fill-opacity="1.000000" />
<path d="M 244.892578 111.335938 L 244.892578 110.412109 L 251.729980 110.412109 L 251.729980 111.335938 Z " fill="rgb(0, 0, 0)" fill-opacity="1.000000" />
<path d="M 251.892578 111.335938 L 251.892578 110.412109 L 258.729980 110.412109 L 258.729980 111.335938 Z " fill="rgb(0, 0, 0)" fill-opacity="1.000000" />
<path d="M 258.892578 111.335938 L 258.892578 110.412109 L 265.729980 110.412109 L 265.729980 111.335938 Z " fill="rgb(0, 0, 0)" fill-opacity="1.000000" />
<path d="M 265.892578 111.335938 L 265.892578 110.412109 L 272.729980 110.412109 L 272.729980 111.335938 Z " fill="rgb(0, 0, 0)" fill-opacity="1.000000" />
<path d="M 272.892578 111.335938 L 272.892578 110.412109 L 279.729980 110.412109 L 279.729980 111.335938 Z " fill="rgb(0, 0, 0)" fill-opacity="1.000000" />
<path d="M 279.892578 111.335938 L 279.892578 110.412109 L 286.729980 110.412109 L 286.729980 111.335938 Z " fill="rgb(0, 0, 0)" fill-opacity="1.000000" />
<path d="M 286.892578 111.335938 L 286.892578 110.412109 L 293.729980 110.412109 L 293.729980 111.335938 Z " fill="rgb(0, 0, 0)" fill-opacity="1.000000" />
<path d="M 293.892578 111.335938 L 293.892578 110.412109 L 300.729980 110.412109 L 300.729980 111.335938 Z " fill="rgb(0, 0, 0)" fill-opacity="1.000000" />
<path d="M 300.892578 111.335938 L 300.892578 110.412109 L 307.729980 110.412109 L 307.729980 111.335938 Z " fill="rgb(0, 0, 0)" fill-opacity="1.000000" />
<path d="M 307.892578 111.335938 L 307.892578 110.412109 L 314.729980 110.412109 L 314.729980 111.335938 Z " fill="rgb(0, 0, 0)" fill-opacity="1.000000" />
<path d="M 314.892578 111.335938 L 314.892578 110.412109 L 321.729980 110.412109 L 321.729980 111.335938 Z " fill="rgb(0, 0, 0)" fill-opacity="1.000000" />
<path d="M 321.892578 111.335938 L 321.892578 110.412109 L 328.729980 110.412109 L 328.729980 111.335938 Z " fill="rgb(0, 0, 0)" fill-opacity="1.000000" />
<path d="M 328.892578 111.335938 L 328.892578 110.412109 L 335.729980 110.412109 L 335.729980 111.335938 Z " fill="rgb(0, 0, 0)" fill-opacity="1.000000" />
<path d="M 335.892578 111.335938 L 335.892578 110.412109 L 342.729980 110.412109 L 342.729980 111.335938 Z " fill="rgb(0, 0, 0)" fill-opacity="1.000000" />
<path d="M 345.878906 117.319336 L 345.878906 103.300781 L 346.738281 103.300781 L 346.738281 117.319336 Z " fill="rgb(0, 0, 0)" fill-opacity="1.000000" />
<path d="M 450.878906 117.319336 L 450.878906 103.300781 L 451.738281 103.300781 L 451.738281 117.319336 Z " fill="rgb(0, 0, 0)" fill-opacity="1.000000" />
<path d="M 345.878906 104.319336 L 345.878906 90.300781 L 346.738281 90.300781 L 346.738281 104.319336 Z " fill="rgb(0, 0, 0)" fill-opacity="1.000000" />
<path d="M 450.878906 104.319336 L 450.878906 90.300781 L 451.738281 90.300781 L 451.738281 104.319336 Z " fill="rgb(0, 0, 0)" fill-opacity="1.000000" />
<path d="M 45.861816 85.824707 Q 45.861816 86.490723 46.106201 86.829102 Q 46.350586 87.167480 46.828613 87.167480 L 47.983398 87.167480 L 47.983398 88.000000 L 46.731934 88.000000 Q 45.845703 88.000000 45.359619 87.433350 Q 44.873535 86.866699 44.873535 85.824707 L 44.873535 80.383789 L 43.289062 80.383789 L 43.289062 79.610352 L 45.861816 79.610352 Z " fill="rgb(0, 0, 0)" fill-opacity="1.000000" />
<path d="M 50.697266 82.005859 L 53.227051 82.005859 L 53.227051 87.231934 L 55.187500 87.231934 L 55.187500 88.000000 L 50.278320 88.000000 L 50.278320 87.231934 L 52.238770 87.231934 L 52.238770 82.773926 L 50.697266 82.773926 Z M 52.238770 79.669434 L 53.227051 79.669434 L 53.227051 80.915527 L 52.238770 80.915527 Z " fill="rgb(0, 0, 0)" fill-opacity="1.000000" />
<path d="M 62.015625 84.498047 L 62.015625 84.981445 L 57.734863 84.981445 L 57.734863 85.013672 Q 57.691895 86.243652 58.204834 86.780762 Q 58.717773 87.317871 59.652344 87.317871 Q 60.125000 87.317871 60.640625 87.167480 Q 61.156250 87.017090 61.741699 86.710938 L 61.741699 87.693848 Q 61.177734 87.924805 60.654053 88.040283 Q 60.130371 88.155762 59.641602 88.155762 Q 58.239746 88.155762 57.450195 87.315186 Q 56.660645 86.474609 56.660645 84.997559 Q 56.660645 83.558105 57.434082 82.698730 Q 58.207520 81.839355 59.496582 81.839355 Q 60.645996 81.839355 61.309326 82.618164 Q 61.972656 83.396973 62.015625 84.498047 Z M 61.027344 84.208008 Q 60.962891 83.584961 60.573486 83.131104 Q 60.184082 82.677246 59.453613 82.677246 Q 58.739258 82.677246 58.277344 83.149902 Q 57.815430 83.622559 57.772461 84.213379 Z " fill="rgb(0, 0, 0)" fill-opacity="1.000000" />
<path d="M 68.645020 84.272461 L 68.645020 88.000000 L 67.651367 88.000000 L 67.651367 84.272461 Q 67.651367 83.461426 67.366699 83.080078 Q 67.082031 82.698730 66.475098 82.698730 Q 65.782227 82.698730 65.408936 83.190186 Q 65.035645 83.681641 65.035645 84.600098 L 65.035645 88.000000 L 64.047363 88.000000 L 64.047363 81.984375 L 65.035645 81.984375 L 65.035645 82.886719 Q 65.298828 82.371094 65.750000 82.105225 Q 66.201172 81.839355 66.818848 81.839355 Q 67.737305 81.839355 68.191162 82.443604 Q 68.645020 83.047852 68.645020 84.272461 Z " fill="rgb(0, 0, 0)" fill-opacity="1.000000" />
<path d="M 73.297852 80.276367 L 73.297852 81.984375 L 75.542969 81.984375 L 75.542969 82.752441 L 73.297852 82.752441 L 73.297852 86.018066 Q 73.297852 86.684082 73.550293 86.947266 Q 73.802734 87.210449 74.431152 87.210449 L 75.542969 87.210449 L 75.542969 88.000000 L 74.334473 88.000000 Q 73.222656 88.000000 72.766113 87.554199 Q 72.309570 87.108398 72.309570 86.018066 L 72.309570 82.752441 L 70.703613 82.752441 L 70.703613 81.984375 L 72.309570 81.984375 L 72.309570 80.276367 Z " fill="rgb(0, 0, 0)" fill-opacity="1.000000" />
<path d="M 107.878906 91.319336 L 107.878906 77.300781 L 108.738281 77.300781 L 108.738281 91.319336 Z " fill="rgb(0, 0, 0)" fill-opacity="1.000000" />
<path d="M 345.878906 91.319336 L 345.878906 77.300781 L 346.738281 77.300781 L 346.738281 91.319336 Z " fill="rgb(0, 0, 0)" fill-opacity="1.000000" />
<path d="M 383.435547 80.254883 L 383.435547 81.355957 Q 382.941406 81.039062 382.444580 80.877930 Q 381.947754 80.716797 381.442871 80.716797 Q 380.674805 80.716797 380.229004 81.073975 Q 379.783203 81.431152 379.783203 82.038086 Q 379.783203 82.569824 380.075928 82.849121 Q 380.368652 83.128418 381.168945 83.316406 L 381.738281 83.445312 Q 382.866211 83.708496 383.381836 84.272461 Q 383.897461 84.836426 383.897461 85.808594 Q 383.897461 86.952637 383.188477 87.554199 Q 382.479492 88.155762 381.125977 88.155762 Q 380.562012 88.155762 379.992676 88.034912 Q 379.423340 87.914062 378.848633 87.672363 L 378.848633 86.517578 Q 379.466309 86.909668 380.016846 87.092285 Q 380.567383 87.274902 381.125977 87.274902 Q 381.947754 87.274902 382.404297 86.906982 Q 382.860840 86.539062 382.860840 85.878418 Q 382.860840 85.276855 382.546631 84.959961 Q 382.232422 84.643066 381.453613 84.471191 L 380.873535 84.336914 Q 379.756348 84.084473 379.251465 83.574219 Q 378.746582 83.063965 378.746582 82.204590 Q 378.746582 81.130371 379.468994 80.483154 Q 380.191406 79.835938 381.389160 79.835938 Q 381.851074 79.835938 382.361328 79.940674 Q 382.871582 80.045410 383.435547 80.254883 Z " fill="rgb(0, 0, 0)" fill-opacity="1.000000" />
<path d="M 391.015625 84.498047 L 391.015625 84.981445 L 386.734863 84.981445 L 386.734863 85.013672 Q 386.691895 86.243652 387.204834 86.780762 Q 387.717773 87.317871 388.652344 87.317871 Q 389.125000 87.317871 389.640625 87.167480 Q 390.156250 87.017090 390.741699 86.710938 L 390.741699 87.693848 Q 390.177734 87.924805 389.654053 88.040283 Q 389.130371 88.155762 388.641602 88.155762 Q 387.239746 88.155762 386.450195 87.315186 Q 385.660645 86.474609 385.660645 84.997559 Q 385.660645 83.558105 386.434082 82.698730 Q 387.207520 81.839355 388.496582 81.839355 Q 389.645996 81.839355 390.309326 82.618164 Q 390.972656 83.396973 391.015625 84.498047 Z M 390.027344 84.208008 Q 389.962891 83.584961 389.573486 83.131104 Q 389.184082 82.677246 388.453613 82.677246 Q 387.739258 82.677246 387.277344 83.149902 Q 386.815430 83.622559 386.772461 84.213379 Z " fill="rgb(0, 0, 0)" fill-opacity="1.000000" />
<path d="M 398.203613 83.225098 Q 397.886719 82.978027 397.559082 82.865234 Q 397.231445 82.752441 396.839355 82.752441 Q 395.915527 82.752441 395.426758 83.332520 Q 394.937988 83.912598 394.937988 85.008301 L 394.937988 88.000000 L 393.944336 88.000000 L 393.944336 81.984375 L 394.937988 81.984375 L 394.937988 83.160645 Q 395.185059 82.521484 395.697998 82.180420 Q 396.210938 81.839355 396.914551 81.839355 Q 397.279785 81.839355 397.596680 81.930664 Q 397.913574 82.021973 398.203613 82.215332 Z " fill="rgb(0, 0, 0)" fill-opacity="1.000000" />
<path d="M 399.537109 81.984375 L 400.562988 81.984375 L 402.308594 87.033203 L 404.059570 81.984375 L 405.085449 81.984375 L 402.947754 88.000000 L 401.674805 88.000000 Z " fill="rgb(0, 0, 0)" fill-opacity="1.000000" />
<path d="M 412.015625 84.498047 L 412.015625 84.981445 L 407.734863 84.981445 L 407.734863 85.013672 Q 407.691895 86.243652 408.204834 86.780762 Q 408.717773 87.317871 409.652344 87.317871 Q 410.125000 87.317871 410.640625 87.167480 Q 411.156250 87.017090 411.741699 86.710938 L 411.741699 87.693848 Q 411.177734 87.924805 410.654053 88.040283 Q 410.130371 88.155762 409.641602 88.155762 Q 408.239746 88.155762 407.450195 87.315186 Q 406.660645 86.474609 406.660645 84.997559 Q 406.660645 83.558105 407.434082 82.698730 Q 408.207520 81.839355 409.496582 81.839355 Q 410.645996 81.839355 411.309326 82.618164 Q 411.972656 83.396973 412.015625 84.498047 Z M 411.027344 84.208008 Q 410.962891 83.584961 410.573486 83.131104 Q 410.184082 82.677246 409.453613 82.677246 Q 408.739258 82.677246 408.277344 83.149902 Q 407.815430 83.622559 407.772461 84.213379 Z " fill="rgb(0, 0, 0)" fill-opacity="1.000000" />
<path d="M 419.203613 83.225098 Q 418.886719 82.978027 418.559082 82.865234 Q 418.231445 82.752441 417.839355 82.752441 Q 416.915527 82.752441 416.426758 83.332520 Q 415.937988 83.912598 415.937988 85.008301 L 415.937988 88.000000 L 414.944336 88.000000 L 414.944336 81.984375 L 415.937988 81.984375 L 415.937988 83.160645 Q 416.185059 82.521484 416.697998 82.180420 Q 417.210938 81.839355 417.914551 81.839355 Q 418.279785 81.839355 418.596680 81.930664 Q 418.913574 82.021973 419.203613 82.215332 Z " fill="rgb(0, 0, 0)" fill-opacity="1.000000" />
<path d="M 450.878906 91.319336 L 450.878906 77.300781 L 451.738281 77.300781 L 451.738281 91.319336 Z " fill="rgb(0, 0, 0)" fill-opacity="1.000000" />
<path d="M 107.878906 26.319336 L 107.878906 12.300781 L 108.738281 12.300781 L 108.738281 26.319336 Z " fill="rgb(0, 0, 0)" fill-opacity="1.000000" />
<path d="M 107.878906 39.319336 L 107.878906 25.300781 L 108.738281 25.300781 L 108.738281 39.319336 Z " fill="rgb(0, 0, 0)" fill-opacity="1.000000" />
<path d="M 107.878906 52.319336 L 107.878906 38.300781 L 108.738281 38.300781 L 108.738281 52.319336 Z " fill="rgb(0, 0, 0)" fill-opacity="1.000000" />
<path d="M 107.878906 65.319336 L 107.878906 51.300781 L 108.738281 51.300781 L 108.738281 65.319336 Z " fill="rgb(0, 0, 0)" fill-opacity="1.000000" />
<path d="M 107.878906 78.319336 L 107.878906 64.300781 L 108.738281 64.300781 L 108.738281 78.319336 Z " fill="rgb(0, 0, 0)" fill-opacity="1.000000" />
<path d="M 111.892578 59.335938 L 111.892578 58.412109 L 118.729980 58.412109 L 118.729980 59.335938 Z " fill="rgb(0, 0, 0)" fill-opacity="1.000000" />
<path d="M 118.892578 59.335938 L 118.892578 58.412109 L 125.729980 58.412109 L 125.729980 59.335938 Z " fill="rgb(0, 0, 0)" fill-opacity="1.000000" />
<path d="M 125.892578 59.335938 L 125.892578 58.412109 L 132.729980 58.412109 L 132.729980 59.335938 Z " fill="rgb(0, 0, 0)" fill-opacity="1.000000" />
<path d="M 132.892578 59.335938 L 132.892578 58.412109 L 139.729980 58.412109 L 139.729980 59.335938 Z " fill="rgb(0, 0, 0)" fill-opacity="1.000000" />
<path d="M 139.892578 59.335938 L 139.892578 58.412109 L 146.729980 58.412109 L 146.729980 59.335938 Z " fill="rgb(0, 0, 0)" fill-opacity="1.000000" />
<path d="M 146.892578 59.335938 L 146.892578 58.412109 L 153.729980 58.412109 L 153.729980 59.335938 Z " fill="rgb(0, 0, 0)" fill-opacity="1.000000" />
<path d="M 153.892578 59.335938 L 153.892578 58.412109 L 160.729980 58.412109 L 160.729980 59.335938 Z " fill="rgb(0, 0, 0)" fill-opacity="1.000000" />
<path d="M 160.892578 59.335938 L 160.892578 58.412109 L 167.729980 58.412109 L 167.729980 59.335938 Z " fill="rgb(0, 0, 0)" fill-opacity="1.000000" />
<path d="M 167.892578 59.335938 L 167.892578 58.412109 L 174.729980 58.412109 L 174.729980 59.335938 Z " fill="rgb(0, 0, 0)" fill-opacity="1.000000" />
<path d="M 174.892578 59.335938 L 174.892578 58.412109 L 181.729980 58.412109 L 181.729980 59.335938 Z " fill="rgb(0, 0, 0)" fill-opacity="1.000000" />
<path d="M 181.892578 59.335938 L 181.892578 58.412109 L 188.729980 58.412109 L 188.729980 59.335938 Z " fill="rgb(0, 0, 0)" fill-opacity="1.000000" />
<path d="M 188.892578 59.335938 L 188.892578 58.412109 L 195.729980 58.412109 L 195.729980 59.335938 Z " fill="rgb(0, 0, 0)" fill-opacity="1.000000" />
<path d="M 195.892578 59.335938 L 195.892578 58.412109 L 202.729980 58.412109 L 202.729980 59.335938 Z " fill="rgb(0, 0, 0)" fill-opacity="1.000000" />
<path d="M 202.892578 59.335938 L 202.892578 58.412109 L 209.729980 58.412109 L 209.729980 59.335938 Z " fill="rgb(0, 0, 0)" fill-opacity="1.000000" />
<path d="M 209.892578 59.335938 L 209.892578 58.412109 L 216.729980 58.412109 L 216.729980 59.335938 Z " fill="rgb(0, 0, 0)" fill-opacity="1.000000" />
<path d="M 216.892578 59.335938 L 216.892578 58.412109 L 223.729980 58.412109 L 223.729980 59.335938 Z " fill="rgb(0, 0, 0)" fill-opacity="1.000000" />
<path d="M 223.892578 59.335938 L 223.892578 58.412109 L 230.729980 58.412109 L 230.729980 59.335938 Z " fill="rgb(0, 0, 0)" fill-opacity="1.000000" />
<path d="M 230.892578 59.335938 L 230.892578 58.412109 L 237.729980 58.412109 L 237.729980 59.335938 Z " fill="rgb(0, 0, 0)" fill-opacity="1.000000" />
<path d="M 237.892578 59.335938 L 237.892578 58.412109 L 244.729980 58.412109 L 244.729980 59.335938 Z " fill="rgb(0, 0, 0)" fill-opacity="1.000000" />
<path d="M 244.892578 59.335938 L 244.892578 58.412109 L 251.729980 58.412109 L 251.729980 59.335938 Z " fill="rgb(0, 0, 0)" fill-opacity="1.000000" />
<path d="M 251.892578 59.335938 L 251.892578 58.412109 L 258.729980 58.412109 L 258.729980 59.335938 Z " fill="rgb(0, 0, 0)" fill-opacity="1.000000" />
<path d="M 258.892578 59.335938 L 258.892578 58.412109 L 265.729980 58.412109 L 265.729980 59.335938 Z " fill="rgb(0, 0, 0)" fill-opacity="1.000000" />
<path d="M 265.892578 59.335938 L 265.892578 58.412109 L 272.729980 58.412109 L 272.729980 59.335938 Z " fill="rgb(0, 0, 0)" fill-opacity="1.000000" />
<path d="M 272.892578 59.335938 L 272.892578 58.412109 L 279.729980 58.412109 L 279.729980 59.335938 Z " fill="rgb(0, 0, 0)" fill-opacity="1.000000" />
<path d="M 279.892578 59.335938 L 279.892578 58.412109 L 286.729980 58.412109 L 286.729980 59.335938 Z " fill="rgb(0, 0, 0)" fill-opacity="1.000000" />
<path d="M 286.892578 59.335938 L 286.892578 58.412109 L 293.729980 58.412109 L 293.729980 59.335938 Z " fill="rgb(0, 0, 0)" fill-opacity="1.000000" />
<path d="M 293.892578 59.335938 L 293.892578 58.412109 L 300.729980 58.412109 L 300.729980 59.335938 Z " fill="rgb(0, 0, 0)" fill-opacity="1.000000" />
<path d="M 300.892578 59.335938 L 300.892578 58.412109 L 307.729980 58.412109 L 307.729980 59.335938 Z " fill="rgb(0, 0, 0)" fill-opacity="1.000000" />
<path d="M 307.892578 59.335938 L 307.892578 58.412109 L 314.729980 58.412109 L 314.729980 59.335938 Z " fill="rgb(0, 0, 0)" fill-opacity="1.000000" />
<path d="M 314.892578 59.335938 L 314.892578 58.412109 L 321.729980 58.412109 L 321.729980 59.335938 Z " fill="rgb(0, 0, 0)" fill-opacity="1.000000" />
<path d="M 321.892578 59.335938 L 321.892578 58.412109 L 328.729980 58.412109 L 328.729980 59.335938 Z " fill="rgb(0, 0, 0)" fill-opacity="1.000000" />
<path d="M 328.892578 59.335938 L 328.892578 58.412109 L 335.729980 58.412109 L 335.729980 59.335938 Z " fill="rgb(0, 0, 0)" fill-opacity="1.000000" />
<path d="M 345.878906 78.319336 L 345.878906 64.300781 L 346.738281 64.300781 L 346.738281 78.319336 Z " fill="rgb(0, 0, 0)" fill-opacity="1.000000" />
<path d="M 450.878906 78.319336 L 450.878906 64.300781 L 451.738281 64.300781 L 451.738281 78.319336 Z " fill="rgb(0, 0, 0)" fill-opacity="1.000000" />
<path d="M 336.032227 62.418945 L 336.032227 55.866211 L 342.590332 59.142578 Z " fill="rgb(0, 0, 0)" fill-opacity="1.000000" />
<path d="M 345.878906 65.319336 L 345.878906 51.300781 L 346.738281 51.300781 L 346.738281 65.319336 Z " fill="rgb(0, 0, 0)" fill-opacity="1.000000" />
<path d="M 450.878906 65.319336 L 450.878906 51.300781 L 451.738281 51.300781 L 451.738281 65.319336 Z " fill="rgb(0, 0, 0)" fill-opacity="1.000000" />
<path d="M 135.878906 26.319336 L 135.878906 12.300781 L 136.738281 12.300781 L 136.738281 26.319336 Z " fill="rgb(0, 0, 0)" fill-opacity="1.000000" />
<path d="M 135.878906 39.319336 L 135.878906 25.300781 L 136.738281 25.300781 L 136.738281 39.319336 Z " fill="rgb(0, 0, 0)" fill-opacity="1.000000" />
<path d="M 135.878906 46.335938 L 135.878906 38.300781 L 136.738281 38.300781 L 136.738281 45.412109 L 139.729980 45.412109 L 139.729980 46.335938 Z " fill="rgb(0, 0, 0)" fill-opacity="1.000000" />
<path d="M 139.892578 46.335938 L 139.892578 45.412109 L 146.729980 45.412109 L 146.729980 46.335938 Z " fill="rgb(0, 0, 0)" fill-opacity="1.000000" />
<path d="M 146.892578 46.335938 L 146.892578 45.412109 L 153.729980 45.412109 L 153.729980 46.335938 Z " fill="rgb(0, 0, 0)" fill-opacity="1.000000" />
<path d="M 153.892578 46.335938 L 153.892578 45.412109 L 160.729980 45.412109 L 160.729980 46.335938 Z " fill="rgb(0, 0, 0)" fill-opacity="1.000000" />
<path d="M 160.892578 46.335938 L 160.892578 45.412109 L 167.729980 45.412109 L 167.729980 46.335938 Z " fill="rgb(0, 0, 0)" fill-opacity="1.000000" />
<path d="M 167.892578 46.335938 L 167.892578 45.412109 L 174.729980 45.412109 L 174.729980 46.335938 Z " fill="rgb(0, 0, 0)" fill-opacity="1.000000" />
<path d="M 174.892578 46.335938 L 174.892578 45.412109 L 181.729980 45.412109 L 181.729980 46.335938 Z " fill="rgb(0, 0, 0)" fill-opacity="1.000000" />
<path d="M 181.892578 46.335938 L 181.892578 45.412109 L 188.729980 45.412109 L 188.729980 46.335938 Z " fill="rgb(0, 0, 0)" fill-opacity="1.000000" />
<path d="M 188.892578 46.335938 L 188.892578 45.412109 L 195.729980 45.412109 L 195.729980 46.335938 Z " fill="rgb(0, 0, 0)" fill-opacity="1.000000" />
<path d="M 195.892578 46.335938 L 195.892578 45.412109 L 202.729980 45.412109 L 202.729980 46.335938 Z " fill="rgb(0, 0, 0)" fill-opacity="1.000000" />
<path d="M 202.892578 46.335938 L 202.892578 45.412109 L 209.729980 45.412109 L 209.729980 46.335938 Z " fill="rgb(0, 0, 0)" fill-opacity="1.000000" />
<path d="M 209.892578 46.335938 L 209.892578 45.412109 L 216.729980 45.412109 L 216.729980 46.335938 Z " fill="rgb(0, 0, 0)" fill-opacity="1.000000" />
<path d="M 216.892578 46.335938 L 216.892578 45.412109 L 223.729980 45.412109 L 223.729980 46.335938 Z " fill="rgb(0, 0, 0)" fill-opacity="1.000000" />
<path d="M 223.892578 46.335938 L 223.892578 45.412109 L 230.729980 45.412109 L 230.729980 46.335938 Z " fill="rgb(0, 0, 0)" fill-opacity="1.000000" />
<path d="M 230.892578 46.335938 L 230.892578 45.412109 L 237.729980 45.412109 L 237.729980 46.335938 Z " fill="rgb(0, 0, 0)" fill-opacity="1.000000" />
<path d="M 237.892578 46.335938 L 237.892578 45.412109 L 244.729980 45.412109 L 244.729980 46.335938 Z " fill="rgb(0, 0, 0)" fill-opacity="1.000000" />
<path d="M 244.892578 46.335938 L 244.892578 45.412109 L 251.729980 45.412109 L 251.729980 46.335938 Z " fill="rgb(0, 0, 0)" fill-opacity="1.000000" />
<path d="M 251.892578 46.335938 L 251.892578 45.412109 L 258.729980 45.412109 L 258.729980 46.335938 Z " fill="rgb(0, 0, 0)" fill-opacity="1.000000" />
<path d="M 258.892578 46.335938 L 258.892578 45.412109 L 265.729980 45.412109 L 265.729980 46.335938 Z " fill="rgb(0, 0, 0)" fill-opacity="1.000000" />
<path d="M 265.892578 46.335938 L 265.892578 45.412109 L 272.729980 45.412109 L 272.729980 46.335938 Z " fill="rgb(0, 0, 0)" fill-opacity="1.000000" />
<path d="M 272.892578 46.335938 L 272.892578 45.412109 L 279.729980 45.412109 L 279.729980 46.335938 Z " fill="rgb(0, 0, 0)" fill-opacity="1.000000" />
<path d="M 279.892578 46.335938 L 279.892578 45.412109 L 286.729980 45.412109 L 286.729980 46.335938 Z " fill="rgb(0, 0, 0)" fill-opacity="1.000000" />
<path d="M 286.892578 46.335938 L 286.892578 45.412109 L 293.729980 45.412109 L 293.729980 46.335938 Z " fill="rgb(0, 0, 0)" fill-opacity="1.000000" />
<path d="M 293.892578 46.335938 L 293.892578 45.412109 L 300.729980 45.412109 L 300.729980 46.335938 Z " fill="rgb(0, 0, 0)" fill-opacity="1.000000" />
<path d="M 300.892578 46.335938 L 300.892578 45.412109 L 307.729980 45.412109 L 307.729980 46.335938 Z " fill="rgb(0, 0, 0)" fill-opacity="1.000000" />
<path d="M 307.892578 46.335938 L 307.892578 45.412109 L 314.729980 45.412109 L 314.729980 46.335938 Z " fill="rgb(0, 0, 0)" fill-opacity="1.000000" />
<path d="M 314.892578 46.335938 L 314.892578 45.412109 L 317.878906 45.412109 L 317.878906 38.300781 L 318.738281 38.300781 L 318.738281 46.335938 Z " fill="rgb(0, 0, 0)" fill-opacity="1.000000" />
<path d="M 345.878906 52.319336 L 345.878906 38.300781 L 346.738281 38.300781 L 346.738281 52.319336 Z " fill="rgb(0, 0, 0)" fill-opacity="1.000000" />
<path d="M 450.878906 52.319336 L 450.878906 38.300781 L 451.738281 38.300781 L 451.738281 52.319336 Z " fill="rgb(0, 0, 0)" fill-opacity="1.000000" />
<path d="M 145.929688 22.339355 Q 145.494629 22.742188 144.949463 22.948975 Q 144.404297 23.155762 143.770508 23.155762 Q 142.245117 23.155762 141.396484 22.062744 Q 140.547852 20.969727 140.547852 18.998535 Q 140.547852 17.032715 141.407227 15.934326 Q 142.266602 14.835938 143.797363 14.835938 Q 144.302246 14.835938 144.764160 14.978271 Q 145.226074 15.120605 145.655762 15.410645 L 145.655762 16.522461 Q 145.220703 16.108887 144.764160 15.912842 Q 144.307617 15.716797 143.797363 15.716797 Q 142.739258 15.716797 142.210205 16.535889 Q 141.681152 17.354980 141.681152 18.998535 Q 141.681152 20.668945 142.194092 21.471924 Q 142.707031 22.274902 143.770508 22.274902 Q 144.130371 22.274902 144.401611 22.191650 Q 144.672852 22.108398 144.893066 21.931152 L 144.893066 19.777344 L 143.727539 19.777344 L 143.727539 18.885742 L 145.929688 18.885742 Z " fill="rgb(0, 0, 0)" fill-opacity="1.000000" />
<path d="M 143.308594 28.937012 L 142.164551 33.040527 L 144.452637 33.040527 Z M 142.653320 27.980957 L 143.969238 27.980957 L 146.423828 36.000000 L 145.301270 36.000000 L 144.710449 33.910645 L 141.901367 33.910645 L 141.321289 36.000000 L 140.198730 36.000000 Z " fill="rgb(0, 0, 0)" fill-opacity="1.000000" />
<path d="M 152.698730 35.693848 Q 152.301270 35.924805 151.879639 36.040283 Q 151.458008 36.155762 151.017578 36.155762 Q 149.621094 36.155762 148.834229 35.317871 Q 148.047363 34.479980 148.047363 32.997559 Q 148.047363 31.515137 148.834229 30.677246 Q 149.621094 29.839355 151.017578 29.839355 Q 151.452637 29.839355 151.866211 29.952148 Q 152.279785 30.064941 152.698730 30.301270 L 152.698730 31.337891 Q 152.306641 30.988770 151.911865 30.833008 Q 151.517090 30.677246 151.017578 30.677246 Q 150.088379 30.677246 149.588867 31.278809 Q 149.089355 31.880371 149.089355 32.997559 Q 149.089355 34.109375 149.591553 34.713623 Q 150.093750 35.317871 151.017578 35.317871 Q 151.533203 35.317871 151.941406 35.159424 Q 152.349609 35.000977 152.698730 34.667969 Z " fill="rgb(0, 0, 0)" fill-opacity="1.000000" />
<path d="M 159.698730 35.693848 Q 159.301270 35.924805 158.879639 36.040283 Q 158.458008 36.155762 158.017578 36.155762 Q 156.621094 36.155762 155.834229 35.317871 Q 155.047363 34.479980 155.047363 32.997559 Q 155.047363 31.515137 155.834229 30.677246 Q 156.621094 29.839355 158.017578 29.839355 Q 158.452637 29.839355 158.866211 29.952148 Q 159.279785 30.064941 159.698730 30.301270 L 159.698730 31.337891 Q 159.306641 30.988770 158.911865 30.833008 Q 158.517090 30.677246 158.017578 30.677246 Q 157.088379 30.677246 156.588867 31.278809 Q 156.089355 31.880371 156.089355 32.997559 Q 156.089355 34.109375 156.591553 34.713623 Q 157.093750 35.317871 158.017578 35.317871 Q 158.533203 35.317871 158.941406 35.159424 Q 159.349609 35.000977 159.698730 34.667969 Z " fill="rgb(0, 0, 0)" fill-opacity="1.000000" />
<path d="M 167.015625 32.498047 L 167.015625 32.981445 L 162.734863 32.981445 L 162.734863 33.013672 Q 162.691895 34.243652 163.204834 34.780762 Q 163.717773 35.317871 164.652344 35.317871 Q 165.125000 35.317871 165.640625 35.167480 Q 166.156250 35.017090 166.741699 34.710938 L 166.741699 35.693848 Q 166.177734 35.924805 165.654053 36.040283 Q 165.130371 36.155762 164.641602 36.155762 Q 163.239746 36.155762 162.450195 35.315186 Q 161.660645 34.474609 161.660645 32.997559 Q 161.660645 31.558105 162.434082 30.698730 Q 163.207520 29.839355 164.496582 29.839355 Q 165.645996 29.839355 166.309326 30.618164 Q 166.972656 31.396973 167.015625 32.498047 Z M 166.027344 32.208008 Q 165.962891 31.584961 165.573486 31.131104 Q 165.184082 30.677246 164.453613 30.677246 Q 163.739258 30.677246 163.277344 31.149902 Q 162.815430 31.622559 162.772461 32.213379 Z " fill="rgb(0, 0, 0)" fill-opacity="1.000000" />
<path d="M 170.014160 35.242676 L 170.014160 38.288086 L 169.020508 38.288086 L 169.020508 29.984375 L 170.014160 29.984375 L 170.014160 30.752441 Q 170.261230 30.306641 170.672119 30.072998 Q 171.083008 29.839355 171.620117 29.839355 Q 172.710449 29.839355 173.330811 30.682617 Q 173.951172 31.525879 173.951172 33.019043 Q 173.951172 34.485352 173.328125 35.320557 Q 172.705078 36.155762 171.620117 36.155762 Q 171.072266 36.155762 170.661377 35.922119 Q 170.250488 35.688477 170.014160 35.242676 Z M 172.914551 32.997559 Q 172.914551 31.848145 172.552002 31.262695 Q 172.189453 30.677246 171.475098 30.677246 Q 170.755371 30.677246 170.384766 31.265381 Q 170.014160 31.853516 170.014160 32.997559 Q 170.014160 34.136230 170.384766 34.727051 Q 170.755371 35.317871 171.475098 35.317871 Q 172.189453 35.317871 172.552002 34.732422 Q 172.914551 34.146973 172.914551 32.997559 Z " fill="rgb(0, 0, 0)" fill-opacity="1.000000" />
<path d="M 178.297852 28.276367 L 178.297852 29.984375 L 180.542969 29.984375 L 180.542969 30.752441 L 178.297852 30.752441 L 178.297852 34.018066 Q 178.297852 34.684082 178.550293 34.947266 Q 178.802734 35.210449 179.431152 35.210449 L 180.542969 35.210449 L 180.542969 36.000000 L 179.334473 36.000000 Q 178.222656 36.000000 177.766113 35.554199 Q 177.309570 35.108398 177.309570 34.018066 L 177.309570 30.752441 L 175.703613 30.752441 L 175.703613 29.984375 L 177.309570 29.984375 L 177.309570 28.276367 Z " fill="rgb(0, 0, 0)" fill-opacity="1.000000" />
<path d="M 184.304199 29.989746 L 185.979980 29.989746 L 185.979980 31.928711 L 184.304199 31.928711 Z M 184.304199 34.044922 L 185.979980 34.044922 L 185.979980 36.000000 L 184.304199 36.000000 Z " fill="rgb(0, 0, 0)" fill-opacity="1.000000" />
<path d="M 199.297852 28.276367 L 199.297852 29.984375 L 201.542969 29.984375 L 201.542969 30.752441 L 199.297852 30.752441 L 199.297852 34.018066 Q 199.297852 34.684082 199.550293 34.947266 Q 199.802734 35.210449 200.431152 35.210449 L 201.542969 35.210449 L 201.542969 36.000000 L 200.334473 36.000000 Q 199.222656 36.000000 198.766113 35.554199 Q 198.309570 35.108398 198.309570 34.018066 L 198.309570 30.752441 L 196.703613 30.752441 L 196.703613 29.984375 L 198.309570 29.984375 L 198.309570 28.276367 Z " fill="rgb(0, 0, 0)" fill-opacity="1.000000" />
<path d="M 209.015625 32.498047 L 209.015625 32.981445 L 204.734863 32.981445 L 204.734863 33.013672 Q 204.691895 34.243652 205.204834 34.780762 Q 205.717773 35.317871 206.652344 35.317871 Q 207.125000 35.317871 207.640625 35.167480 Q 208.156250 35.017090 208.741699 34.710938 L 208.741699 35.693848 Q 208.177734 35.924805 207.654053 36.040283 Q 207.130371 36.155762 206.641602 36.155762 Q 205.239746 36.155762 204.450195 35.315186 Q 203.660645 34.474609 203.660645 32.997559 Q 203.660645 31.558105 204.434082 30.698730 Q 205.207520 29.839355 206.496582 29.839355 Q 207.645996 29.839355 208.309326 30.618164 Q 208.972656 31.396973 209.015625 32.498047 Z M 208.027344 32.208008 Q 207.962891 31.584961 207.573486 31.131104 Q 207.184082 30.677246 206.453613 30.677246 Q 205.739258 30.677246 205.277344 31.149902 Q 204.815430 31.622559 204.772461 32.213379 Z " fill="rgb(0, 0, 0)" fill-opacity="1.000000" />
<path d="M 216.004883 29.984375 L 213.851074 32.863281 L 216.214355 36.000000 L 215.070312 36.000000 L 213.308594 33.588379 L 211.552246 36.000000 L 210.408203 36.000000 L 212.771484 32.863281 L 210.617676 29.984375 L 211.713379 29.984375 L 213.308594 32.159668 L 214.893066 29.984375 Z " fill="rgb(0, 0, 0)" fill-opacity="1.000000" />
<path d="M 220.297852 28.276367 L 220.297852 29.984375 L 222.542969 29.984375 L 222.542969 30.752441 L 220.297852 30.752441 L 220.297852 34.018066 Q 220.297852 34.684082 220.550293 34.947266 Q 220.802734 35.210449 221.431152 35.210449 L 222.542969 35.210449 L 222.542969 36.000000 L 221.334473 36.000000 Q 220.222656 36.000000 219.766113 35.554199 Q 219.309570 35.108398 219.309570 34.018066 L 219.309570 30.752441 L 217.703613 30.752441 L 217.703613 29.984375 L 219.309570 29.984375 L 219.309570 28.276367 Z " fill="rgb(0, 0, 0)" fill-opacity="1.000000" />
<path d="M 228.774902 27.980957 L 229.795410 27.980957 L 225.573730 37.020508 L 224.547852 37.020508 Z " fill="rgb(0, 0, 0)" fill-opacity="1.000000" />
<path d="M 237.015625 32.498047 L 237.015625 32.981445 L 232.734863 32.981445 L 232.734863 33.013672 Q 232.691895 34.243652 233.204834 34.780762 Q 233.717773 35.317871 234.652344 35.317871 Q 235.125000 35.317871 235.640625 35.167480 Q 236.156250 35.017090 236.741699 34.710938 L 236.741699 35.693848 Q 236.177734 35.924805 235.654053 36.040283 Q 235.130371 36.155762 234.641602 36.155762 Q 233.239746 36.155762 232.450195 35.315186 Q 231.660645 34.474609 231.660645 32.997559 Q 231.660645 31.558105 232.434082 30.698730 Q 233.207520 29.839355 234.496582 29.839355 Q 235.645996 29.839355 236.309326 30.618164 Q 236.972656 31.396973 237.015625 32.498047 Z M 236.027344 32.208008 Q 235.962891 31.584961 235.573486 31.131104 Q 235.184082 30.677246 234.453613 30.677246 Q 233.739258 30.677246 233.277344 31.149902 Q 232.815430 31.622559 232.772461 32.213379 Z " fill="rgb(0, 0, 0)" fill-opacity="1.000000" />
<path d="M 238.537109 29.984375 L 239.562988 29.984375 L 241.308594 35.033203 L 243.059570 29.984375 L 244.085449 29.984375 L 241.947754 36.000000 L 240.674805 36.000000 Z " fill="rgb(0, 0, 0)" fill-opacity="1.000000" />
<path d="M 251.015625 32.498047 L 251.015625 32.981445 L 246.734863 32.981445 L 246.734863 33.013672 Q 246.691895 34.243652 247.204834 34.780762 Q 247.717773 35.317871 248.652344 35.317871 Q 249.125000 35.317871 249.640625 35.167480 Q 250.156250 35.017090 250.741699 34.710938 L 250.741699 35.693848 Q 250.177734 35.924805 249.654053 36.040283 Q 249.130371 36.155762 248.641602 36.155762 Q 247.239746 36.155762 246.450195 35.315186 Q 245.660645 34.474609 245.660645 32.997559 Q 245.660645 31.558105 246.434082 30.698730 Q 247.207520 29.839355 248.496582 29.839355 Q 249.645996 29.839355 250.309326 30.618164 Q 250.972656 31.396973 251.015625 32.498047 Z M 250.027344 32.208008 Q 249.962891 31.584961 249.573486 31.131104 Q 249.184082 30.677246 248.453613 30.677246 Q 247.739258 30.677246 247.277344 31.149902 Q 246.815430 31.622559 246.772461 32.213379 Z " fill="rgb(0, 0, 0)" fill-opacity="1.000000" />
<path d="M 257.645020 32.272461 L 257.645020 36.000000 L 256.651367 36.000000 L 256.651367 32.272461 Q 256.651367 31.461426 256.366699 31.080078 Q 256.082031 30.698730 255.475098 30.698730 Q 254.782227 30.698730 254.408936 31.190186 Q 254.035645 31.681641 254.035645 32.600098 L 254.035645 36.000000 L 253.047363 36.000000 L 253.047363 29.984375 L 254.035645 29.984375 L 254.035645 30.886719 Q 254.298828 30.371094 254.750000 30.105225 Q 255.201172 29.839355 255.818848 29.839355 Q 256.737305 29.839355 257.191162 30.443604 Q 257.645020 31.047852 257.645020 32.272461 Z " fill="rgb(0, 0, 0)" fill-opacity="1.000000" />
<path d="M 262.297852 28.276367 L 262.297852 29.984375 L 264.542969 29.984375 L 264.542969 30.752441 L 262.297852 30.752441 L 262.297852 34.018066 Q 262.297852 34.684082 262.550293 34.947266 Q 262.802734 35.210449 263.431152 35.210449 L 264.542969 35.210449 L 264.542969 36.000000 L 263.334473 36.000000 Q 262.222656 36.000000 261.766113 35.554199 Q 261.309570 35.108398 261.309570 34.018066 L 261.309570 30.752441 L 259.703613 30.752441 L 259.703613 29.984375 L 261.309570 29.984375 L 261.309570 28.276367 Z " fill="rgb(0, 0, 0)" fill-opacity="1.000000" />
<path d="M 266.547852 32.111328 L 272.241211 32.111328 L 272.241211 33.019043 L 266.547852 33.019043 Z " fill="rgb(0, 0, 0)" fill-opacity="1.000000" />
<path d="M 278.226074 30.193848 L 278.226074 31.160645 Q 277.801758 30.913574 277.372070 30.790039 Q 276.942383 30.666504 276.496582 30.666504 Q 275.825195 30.666504 275.494873 30.884033 Q 275.164551 31.101562 275.164551 31.547363 Q 275.164551 31.950195 275.411621 32.148926 Q 275.658691 32.347656 276.641602 32.535645 L 277.039062 32.610840 Q 277.774902 32.750488 278.153564 33.169434 Q 278.532227 33.588379 278.532227 34.259766 Q 278.532227 35.151367 277.898438 35.653564 Q 277.264648 36.155762 276.136719 36.155762 Q 275.690918 36.155762 275.202148 36.061768 Q 274.713379 35.967773 274.144043 35.779785 L 274.144043 34.759277 Q 274.697266 35.043945 275.202148 35.186279 Q 275.707031 35.328613 276.158203 35.328613 Q 276.813477 35.328613 277.173340 35.062744 Q 277.533203 34.796875 277.533203 34.318848 Q 277.533203 33.631348 276.217285 33.368164 L 276.174316 33.357422 L 275.803711 33.282227 Q 274.949707 33.115723 274.557617 32.720947 Q 274.165527 32.326172 274.165527 31.644043 Q 274.165527 30.779297 274.750977 30.309326 Q 275.336426 29.839355 276.421387 29.839355 Q 276.904785 29.839355 277.350586 29.927979 Q 277.796387 30.016602 278.226074 30.193848 Z " fill="rgb(0, 0, 0)" fill-opacity="1.000000" />
<path d="M 283.297852 28.276367 L 283.297852 29.984375 L 285.542969 29.984375 L 285.542969 30.752441 L 283.297852 30.752441 L 283.297852 34.018066 Q 283.297852 34.684082 283.550293 34.947266 Q 283.802734 35.210449 284.431152 35.210449 L 285.542969 35.210449 L 285.542969 36.000000 L 284.334473 36.000000 Q 283.222656 36.000000 282.766113 35.554199 Q 282.309570 35.108398 282.309570 34.018066 L 282.309570 30.752441 L 280.703613 30.752441 L 280.703613 29.984375 L 282.309570 29.984375 L 282.309570 28.276367 Z " fill="rgb(0, 0, 0)" fill-opacity="1.000000" />
<path d="M 293.203613 31.225098 Q 292.886719 30.978027 292.559082 30.865234 Q 292.231445 30.752441 291.839355 30.752441 Q 290.915527 30.752441 290.426758 31.332520 Q 289.937988 31.912598 289.937988 33.008301 L 289.937988 36.000000 L 288.944336 36.000000 L 288.944336 29.984375 L 289.937988 29.984375 L 289.937988 31.160645 Q 290.185059 30.521484 290.697998 30.180420 Q 291.210938 29.839355 291.914551 29.839355 Q 292.279785 29.839355 292.596680 29.930664 Q 292.913574 30.021973 293.203613 30.215332 Z " fill="rgb(0, 0, 0)" fill-opacity="1.000000" />
<path d="M 300.015625 32.498047 L 300.015625 32.981445 L 295.734863 32.981445 L 295.734863 33.013672 Q 295.691895 34.243652 296.204834 34.780762 Q 296.717773 35.317871 297.652344 35.317871 Q 298.125000 35.317871 298.640625 35.167480 Q 299.156250 35.017090 299.741699 34.710938 L 299.741699 35.693848 Q 299.177734 35.924805 298.654053 36.040283 Q 298.130371 36.155762 297.641602 36.155762 Q 296.239746 36.155762 295.450195 35.315186 Q 294.660645 34.474609 294.660645 32.997559 Q 294.660645 31.558105 295.434082 30.698730 Q 296.207520 29.839355 297.496582 29.839355 Q 298.645996 29.839355 299.309326 30.618164 Q 299.972656 31.396973 300.015625 32.498047 Z M 299.027344 32.208008 Q 298.962891 31.584961 298.573486 31.131104 Q 298.184082 30.677246 297.453613 30.677246 Q 296.739258 30.677246 296.277344 31.149902 Q 295.815430 31.622559 295.772461 32.213379 Z " fill="rgb(0, 0, 0)" fill-opacity="1.000000" />
<path d="M 304.770508 32.976074 L 304.442871 32.976074 Q 303.578125 32.976074 303.140381 33.279541 Q 302.702637 33.583008 302.702637 34.184570 Q 302.702637 34.727051 303.030273 35.027832 Q 303.357910 35.328613 303.937988 35.328613 Q 304.754395 35.328613 305.221680 34.761963 Q 305.688965 34.195312 305.694336 33.196289 L 305.694336 32.976074 Z M 306.687988 32.567871 L 306.687988 36.000000 L 305.694336 36.000000 L 305.694336 35.108398 Q 305.377441 35.645508 304.896729 35.900635 Q 304.416016 36.155762 303.728516 36.155762 Q 302.810059 36.155762 302.262207 35.637451 Q 301.714355 35.119141 301.714355 34.249023 Q 301.714355 33.244629 302.388428 32.723633 Q 303.062500 32.202637 304.367676 32.202637 L 305.694336 32.202637 L 305.694336 32.046875 Q 305.688965 31.327148 305.329102 31.002197 Q 304.969238 30.677246 304.179688 30.677246 Q 303.674805 30.677246 303.159180 30.822266 Q 302.643555 30.967285 302.154785 31.246582 L 302.154785 30.258301 Q 302.702637 30.048828 303.204834 29.944092 Q 303.707031 29.839355 304.179688 29.839355 Q 304.926270 29.839355 305.455322 30.059570 Q 305.984375 30.279785 306.312012 30.720215 Q 306.516113 30.988770 306.602051 31.383545 Q 306.687988 31.778320 306.687988 32.567871 Z " fill="rgb(0, 0, 0)" fill-opacity="1.000000" />
<path d="M 311.630859 30.596680 Q 311.813477 30.209961 312.095459 30.024658 Q 312.377441 29.839355 312.774902 29.839355 Q 313.500000 29.839355 313.798096 30.400635 Q 314.096191 30.961914 314.096191 32.514160 L 314.096191 36.000000 L 313.193848 36.000000 L 313.193848 32.557129 Q 313.193848 31.284180 313.051514 30.975342 Q 312.909180 30.666504 312.533203 30.666504 Q 312.103516 30.666504 311.945068 30.996826 Q 311.786621 31.327148 311.786621 32.557129 L 311.786621 36.000000 L 310.884277 36.000000 L 310.884277 32.557129 Q 310.884277 31.268066 310.731201 30.967285 Q 310.578125 30.666504 310.180664 30.666504 Q 309.788574 30.666504 309.635498 30.996826 Q 309.482422 31.327148 309.482422 32.557129 L 309.482422 36.000000 L 308.585449 36.000000 L 308.585449 29.984375 L 309.482422 29.984375 L 309.482422 30.500000 Q 309.659668 30.177734 309.925537 30.008545 Q 310.191406 29.839355 310.529785 29.839355 Q 310.937988 29.839355 311.209229 30.027344 Q 311.480469 30.215332 311.630859 30.596680 Z " fill="rgb(0, 0, 0)" fill-opacity="1.000000" />
<path d="M 317.878906 39.319336 L 317.878906 25.300781 L 318.738281 25.300781 L 318.738281 39.319336 Z " fill="rgb(0, 0, 0)" fill-opacity="1.000000" />
<path d="M 345.878906 39.319336 L 345.878906 25.300781 L 346.738281 25.300781 L 346.738281 39.319336 Z " fill="rgb(0, 0, 0)" fill-opacity="1.000000" />
<path d="M 450.878906 39.319336 L 450.878906 25.300781 L 451.738281 25.300781 L 451.738281 39.319336 Z " fill="rgb(0, 0, 0)" fill-opacity="1.000000" />
<path d="M 148.058105 14.980957 L 152.816895 14.980957 L 152.816895 15.894043 L 149.143066 15.894043 L 149.143066 18.053223 L 152.655762 18.053223 L 152.655762 18.966309 L 149.143066 18.966309 L 149.143066 22.086914 L 152.918945 22.086914 L 152.918945 23.000000 L 148.058105 23.000000 Z " fill="rgb(0, 0, 0)" fill-opacity="1.000000" />
<path d="M 154.252441 14.980957 L 160.370117 14.980957 L 160.370117 15.894043 L 157.861816 15.894043 L 157.861816 23.000000 L 156.771484 23.000000 L 156.771484 15.894043 L 154.252441 15.894043 Z " fill="rgb(0, 0, 0)" fill-opacity="1.000000" />
<path d="M 172.774902 14.980957 L 173.795410 14.980957 L 169.573730 24.020508 L 168.547852 24.020508 Z " fill="rgb(0, 0, 0)" fill-opacity="1.000000" />
<path d="M 317.878906 26.319336 L 317.878906 12.300781 L 318.738281 12.300781 L 318.738281 26.319336 Z " fill="rgb(0, 0, 0)" fill-opacity="1.000000" />
<path d="M 345.878906 26.319336 L 345.878906 12.300781 L 346.738281 12.300781 L 346.738281 26.319336 Z " fill="rgb(0, 0, 0)" fill-opacity="1.000000" />
<path d="M 450.878906 26.319336 L 450.878906 12.300781 L 451.738281 12.300781 L 451.738281 26.319336 Z " fill="rgb(0, 0, 0)" fill-opacity="1.000000" />
<path d="M 6.892578 7.335938 L 6.892578 6.412109 L 13.729980 6.412109 L 13.729980 7.335938 Z " fill="rgb(0, 0, 0)" fill-opacity="1.000000" />
<path d="M 13.892578 7.335938 L 13.892578 6.412109 L 20.729980 6.412109 L 20.729980 7.335938 Z " fill="rgb(0, 0, 0)" fill-opacity="1.000000" />
<path d="M 20.892578 7.335938 L 20.892578 6.412109 L 27.729980 6.412109 L 27.729980 7.335938 Z " fill="rgb(0, 0, 0)" fill-opacity="1.000000" />
<path d="M 27.892578 7.335938 L 27.892578 6.412109 L 34.729980 6.412109 L 34.729980 7.335938 Z " fill="rgb(0, 0, 0)" fill-opacity="1.000000" />
<path d="M 34.892578 7.335938 L 34.892578 6.412109 L 41.729980 6.412109 L 41.729980 7.335938 Z " fill="rgb(0, 0, 0)" fill-opacity="1.000000" />
<path d="M 41.892578 7.335938 L 41.892578 6.412109 L 48.729980 6.412109 L 48.729980 7.335938 Z " fill="rgb(0, 0, 0)" fill-opacity="1.000000" />
<path d="M 48.892578 7.335938 L 48.892578 6.412109 L 55.729980 6.412109 L 55.729980 7.335938 Z " fill="rgb(0, 0, 0)" fill-opacity="1.000000" />
<path d="M 55.892578 7.335938 L 55.892578 6.412109 L 62.729980 6.412109 L 62.729980 7.335938 Z " fill="rgb(0, 0, 0)" fill-opacity="1.000000" />
<path d="M 62.892578 7.335938 L 62.892578 6.412109 L 69.729980 6.412109 L 69.729980 7.335938 Z " fill="rgb(0, 0, 0)" fill-opacity="1.000000" />
<path d="M 69.892578 7.335938 L 69.892578 6.412109 L 76.729980 6.412109 L 76.729980 7.335938 Z " fill="rgb(0, 0, 0)" fill-opacity="1.000000" />
<path d="M 76.892578 7.335938 L 76.892578 6.412109 L 83.729980 6.412109 L 83.729980 7.335938 Z " fill="rgb(0, 0, 0)" fill-opacity="1.000000" />
<path d="M 83.892578 7.335938 L 83.892578 6.412109 L 90.729980 6.412109 L 90.729980 7.335938 Z " fill="rgb(0, 0, 0)" fill-opacity="1.000000" />
<path d="M 90.892578 7.335938 L 90.892578 6.412109 L 97.729980 6.412109 L 97.729980 7.335938 Z " fill="rgb(0, 0, 0)" fill-opacity="1.000000" />
<path d="M 97.892578 7.335938 L 97.892578 6.412109 L 104.729980 6.412109 L 104.729980 7.335938 Z " fill="rgb(0, 0, 0)" fill-opacity="1.000000" />
<path d="M 107.878906 13.319336 L 107.878906 7.335938 L 104.892578 7.335938 L 104.892578 6.412109 L 108.738281 6.412109 L 108.738281 13.319336 Z " fill="rgb(0, 0, 0)" fill-opacity="1.000000" />
<path d="M 135.878906 13.319336 L 135.878906 6.412109 L 139.729980 6.412109 L 139.729980 7.335938 L 136.738281 7.335938 L 136.738281 13.319336 Z " fill="rgb(0, 0, 0)" fill-opacity="1.000000" />
<path d="M 139.892578 7.335938 L 139.892578 6.412109 L 146.729980 6.412109 L 146.729980 7.335938 Z " fill="rgb(0, 0, 0)" fill-opacity="1.000000" />
<path d="M 146.892578 7.335938 L 146.892578 6.412109 L 153.729980 6.412109 L 153.729980 7.335938 Z " fill="rgb(0, 0, 0)" fill-opacity="1.000000" />
<path d="M 153.892578 7.335938 L 153.892578 6.412109 L 160.729980 6.412109 L 160.729980 7.335938 Z " fill="rgb(0, 0, 0)" fill-opacity="1.000000" />
<path d="M 160.892578 7.335938 L 160.892578 6.412109 L 167.729980 6.412109 L 167.729980 7.335938 Z " fill="rgb(0, 0, 0)" fill-opacity="1.000000" />
<path d="M 167.892578 7.335938 L 167.892578 6.412109 L 174.729980 6.412109 L 174.729980 7.335938 Z " fill="rgb(0, 0, 0)" fill-opacity="1.000000" />
<path d="M 174.892578 7.335938 L 174.892578 6.412109 L 181.729980 6.412109 L 181.729980 7.335938 Z " fill="rgb(0, 0, 0)" fill-opacity="1.000000" />
<path d="M 181.892578 7.335938 L 181.892578 6.412109 L 188.729980 6.412109 L 188.729980 7.335938 Z " fill="rgb(0, 0, 0)" fill-opacity="1.000000" />
<path d="M 188.892578 7.335938 L 188.892578 6.412109 L 195.729980 6.412109 L 195.729980 7.335938 Z " fill="rgb(0, 0, 0)" fill-opacity="1.000000" />
<path d="M 195.892578 7.335938 L 195.892578 6.412109 L 202.729980 6.412109 L 202.729980 7.335938 Z " fill="rgb(0, 0, 0)" fill-opacity="1.000000" />
<path d="M 202.892578 7.335938 L 202.892578 6.412109 L 209.729980 6.412109 L 209.729980 7.335938 Z " fill="rgb(0, 0, 0)" fill-opacity="1.000000" />
<path d="M 209.892578 7.335938 L 209.892578 6.412109 L 216.729980 6.412109 L 216.729980 7.335938 Z " fill="rgb(0, 0, 0)" fill-opacity="1.000000" />
<path d="M 216.892578 7.335938 L 216.892578 6.412109 L 223.729980 6.412109 L 223.729980 7.335938 Z " fill="rgb(0, 0, 0)" fill-opacity="1.000000" />
<path d="M 223.892578 7.335938 L 223.892578 6.412109 L 230.729980 6.412109 L 230.729980 7.335938 Z " fill="rgb(0, 0, 0)" fill-opacity="1.000000" />
<path d="M 230.892578 7.335938 L 230.892578 6.412109 L 237.729980 6.412109 L 237.729980 7.335938 Z " fill="rgb(0, 0, 0)" fill-opacity="1.000000" />
<path d="M 237.892578 7.335938 L 237.892578 6.412109 L 244.729980 6.412109 L 244.729980 7.335938 Z " fill="rgb(0, 0, 0)" fill-opacity="1.000000" />
<path d="M 244.892578 7.335938 L 244.892578 6.412109 L 251.729980 6.412109 L 251.729980 7.335938 Z " fill="rgb(0, 0, 0)" fill-opacity="1.000000" />
<path d="M 251.892578 7.335938 L 251.892578 6.412109 L 258.729980 6.412109 L 258.729980 7.335938 Z " fill="rgb(0, 0, 0)" fill-opacity="1.000000" />
<path d="M 258.892578 7.335938 L 258.892578 6.412109 L 265.729980 6.412109 L 265.729980 7.335938 Z " fill="rgb(0, 0, 0)" fill-opacity="1.000000" />
<path d="M 265.892578 7.335938 L 265.892578 6.412109 L 272.729980 6.412109 L 272.729980 7.335938 Z " fill="rgb(0, 0, 0)" fill-opacity="1.000000" />
<path d="M 272.892578 7.335938 L 272.892578 6.412109 L 279.729980 6.412109 L 279.729980 7.335938 Z " fill="rgb(0, 0, 0)" fill-opacity="1.000000" />
<path d="M 279.892578 7.335938 L 279.892578 6.412109 L 286.729980 6.412109 L 286.729980 7.335938 Z " fill="rgb(0, 0, 0)" fill-opacity="1.000000" />
<path d="M 286.892578 7.335938 L 286.892578 6.412109 L 293.729980 6.412109 L 293.729980 7.335938 Z " fill="rgb(0, 0, 0)" fill-opacity="1.000000" />
<path d="M 293.892578 7.335938 L 293.892578 6.412109 L 300.729980 6.412109 L 300.729980 7.335938 Z " fill="rgb(0, 0, 0)" fill-opacity="1.000000" />
<path d="M 300.892578 7.335938 L 300.892578 6.412109 L 307.729980 6.412109 L 307.729980 7.335938 Z " fill="rgb(0, 0, 0)" fill-opacity="1.000000" />
<path d="M 307.892578 7.335938 L 307.892578 6.412109 L 314.729980 6.412109 L 314.729980 7.335938 Z " fill="rgb(0, 0, 0)" fill-opacity="1.000000" />
<path d="M 317.878906 13.319336 L 317.878906 7.335938 L 314.892578 7.335938 L 314.892578 6.412109 L 318.738281 6.412109 L 318.738281 13.319336 Z " fill="rgb(0, 0, 0)" fill-opacity="1.000000" />
<path d="M 345.878906 13.319336 L 345.878906 6.412109 L 349.729980 6.412109 L 349.729980 7.335938 L 346.738281 7.335938 L 346.738281 13.319336 Z " fill="rgb(0, 0, 0)" fill-opacity="1.000000" />
<path d="M 349.892578 7.335938 L 349.892578 6.412109 L 356.729980 6.412109 L 356.729980 7.335938 Z " fill="rgb(0, 0, 0)" fill-opacity="1.000000" />
<path d="M 356.892578 7.335938 L 356.892578 6.412109 L 363.729980 6.412109 L 363.729980 7.335938 Z " fill="rgb(0, 0, 0)" fill-opacity="1.000000" />
<path d="M 363.892578 7.335938 L 363.892578 6.412109 L 370.729980 6.412109 L 370.729980 7.335938 Z " fill="rgb(0, 0, 0)" fill-opacity="1.000000" />
<path d="M 370.892578 7.335938 L 370.892578 6.412109 L 377.729980 6.412109 L 377.729980 7.335938 Z " fill="rgb(0, 0, 0)" fill-opacity="1.000000" />
<path d="M 377.892578 7.335938 L 377.892578 6.412109 L 384.729980 6.412109 L 384.729980 7.335938 Z " fill="rgb(0, 0, 0)" fill-opacity="1.000000" />
<path d="M 384.892578 7.335938 L 384.892578 6.412109 L 391.729980 6.412109 L 391.729980 7.335938 Z " fill="rgb(0, 0, 0)" fill-opacity="1.000000" />
<path d="M 391.892578 7.335938 L 391.892578 6.412109 L 398.729980 6.412109 L 398.729980 7.335938 Z " fill="rgb(0, 0, 0)" fill-opacity="1.000000" />
<path d="M 398.892578 7.335938 L 398.892578 6.412109 L 405.729980 6.412109 L 405.729980 7.335938 Z " fill="rgb(0, 0, 0)" fill-opacity="1.000000" />
<path d="M 405.892578 7.335938 L 405.892578 6.412109 L 412.729980 6.412109 L 412.729980 7.335938 Z " fill="rgb(0, 0, 0)" fill-opacity="1.000000" />
<path d="M 412.892578 7.335938 L 412.892578 6.412109 L 419.729980 6.412109 L 419.729980 7.335938 Z " fill="rgb(0, 0, 0)" fill-opacity="1.000000" />
<path d="M 419.892578 7.335938 L 419.892578 6.412109 L 426.729980 6.412109 L 426.729980 7.335938 Z " fill="rgb(0, 0, 0)" fill-opacity="1.000000" />
<path d="M 426.892578 7.335938 L 426.892578 6.412109 L 433.729980 6.412109 L 433.729980 7.335938 Z " fill="rgb(0, 0, 0)" fill-opacity="1.000000" />
<path d="M 433.892578 7.335938 L 433.892578 6.412109 L 440.729980 6.412109 L 440.729980 7.335938 Z " fill="rgb(0, 0, 0)" fill-opacity="1.000000" />
<path d="M 440.892578 7.335938 L 440.892578 6.412109 L 447.729980 6.412109 L 447.729980 7.335938 Z " fill="rgb(0, 0, 0)" fill-opacity="1.000000" />
<path d="M 450.878906 13.319336 L 450.878906 7.335938 L 447.892578 7.335938 L 447.892578 6.412109 L 451.738281 6.412109 L 451.738281 13.319336 Z " fill="rgb(0, 0, 0)" fill-opacity="1.000000" />
</svg>