<svg xmlns="http://www.w3.org/2000/svg" version="1.1" width="456" height="209">
<path d="M 2.878906 13.319336 L 2.878906 6.412109 L 6.729980 6.412109 L 6.729980 7.335938 L 3.738281 7.335938 L 3.738281 13.319336 Z " fill="rgb(0, 0, 0)" fill-opacity="1.000000" />
<path d="M 2.878906 26.319336 L 2.878906 12.300781 L 3.738281 12.300781 L 3.738281 26.319336 Z " fill="rgb(0, 0, 0)" fill-opacity="1.000000" />
<path d="M 2.878906 39.319336 L 2.878906 25.300781 L 3.738281 25.300781 L 3.738281 39.319336 Z " fill="rgb(0, 0, 0)" fill-opacity="1.000000" />
<path d="M 2.878906 52.319336 L 2.878906 38.300781 L 3.738281 38.300781 L 3.738281 52.319336 Z " fill="rgb(0, 0, 0)" fill-opacity="1.000000" />
<path d="M 2.878906 65.319336 L 2.878906 51.300781 L 3.738281 51.300781 L 3.738281 65.319336 Z " fill="rgb(0, 0, 0)" fill-opacity="1.000000" />
<path d="M 2.878906 78.319336 L 2.878906 64.300781 L 3.738281 64.300781 L 3.738281 78.319336 Z " fill="rgb(0, 0, 0)" fill-opacity="1.000000" />
<path d="M 2.878906 91.319336 L 2.878906 77.300781 L 3.738281 77.300781 L 3.738281 91.319336 Z " fill="rgb(0, 0, 0)" fill-opacity="1.000000" />
<path d="M 2.878906 104.319336 L 2.878906 90.300781 L 3.738281 90.300781 L 3.738281 104.319336 Z " fill="rgb(0, 0, 0)" fill-opacity="1.000000" />
<path d="M 2.878906 117.319336 L 2.878906 103.300781 L 3.738281 103.300781 L 3.738281 117.319336 Z " fill="rgb(0, 0, 0)" fill-opacity="1.000000" />
<path d="M 2.878906 130.319336 L 2.878906 116.300781 L 3.738281 116.300781 L 3.738281 130.319336 Z " fill="rgb(0, 0, 0)" fill-opacity="1.000000" />
<path d="M 2.878906 143.319336 L 2.878906 129.300781 L 3.738281 129.300781 L 3.738281 143.319336 Z " fill="rgb(0, 0, 0)" fill-opacity="1.000000" />
<path d="M 2.878906 156.319336 L 2.878906 142.300781 L 3.738281 142.300781 L 3.738281 156.319336 Z " fill="rgb(0, 0, 0)" fill-opacity="1.000000" />
<path d="M 2.878906 163.335938 L 2.878906 155.300781 L 3.738281 155.300781 L 3.738281 162.412109 L 6.729980 162.412109 L 6.729980 163.335938 Z " fill="rgb(0, 0, 0)" fill-opacity="1.000000" />
<path d="M 170.878906 176.335938 L 170.878906 168.300781 L 171.738281 168.300781 L 171.738281 175.412109 L 174.729980 175.412109 L 174.729980 176.335938 Z " fill="rgb(0, 0, 0)" fill-opacity="1.000000" />
<path d="M 184.878906 189.335938 L 184.878906 181.300781 L 185.738281 181.300781 L 185.738281 188.412109 L 188.729980 188.412109 L 188.729980 189.335938 Z " fill="rgb(0, 0, 0)" fill-opacity="1.000000" />
<path d="M 198.878906 202.335938 L 198.878906 194.300781 L 199.738281 194.300781 L 199.738281 201.412109 L 202.729980 201.412109 L 202.729980 202.335938 Z " fill="rgb(0, 0, 0)" fill-opacity="1.000000" />
<path d="M 202.892578 202.335938 L 202.892578 201.412109 L 209.729980 201.412109 L 209.729980 202.335938 Z " fill="rgb(0, 0, 0)" fill-opacity="1.000000" />
<path d="M 209.892578 202.335938 L 209.892578 201.412109 L 216.729980 201.412109 L 216.729980 202.335938 Z " fill="rgb(0, 0, 0)" fill-opacity="1.000000" />
<path d="M 216.892578 202.335938 L 216.892578 201.412109 L 223.729980 201.412109 L 223.729980 202.335938 Z " fill="rgb(0, 0, 0)" fill-opacity="1.000000" />
<path d="M 223.892578 202.335938 L 223.892578 201.412109 L 230.729980 201.412109 L 230.729980 202.335938 Z " fill="rgb(0, 0, 0)" fill-opacity="1.000000" />
<path d="M 230.892578 202.335938 L 230.892578 201.412109 L 237.729980 201.412109 L 237.729980 202.335938 Z " fill="rgb(0, 0, 0)" fill-opacity="1.000000" />
<path d="M 237.892578 202.335938 L 237.892578 201.412109 L 244.729980 201.412109 L 244.729980 202.335938 Z " fill="rgb(0, 0, 0)" fill-opacity="1.000000" />
<path d="M 244.892578 202.335938 L 244.892578 201.412109 L 251.729980 201.412109 L 251.729980 202.335938 Z " fill="rgb(0, 0, 0)" fill-opacity="1.000000" />
<path d="M 251.892578 202.335938 L 251.892578 201.412109 L 258.729980 201.412109 L 258.729980 202.335938 Z " fill="rgb(0, 0, 0)" fill-opacity="1.000000" />
<path d="M 258.892578 202.335938 L 258.892578 201.412109 L 265.729980 201.412109 L 265.729980 202.335938 Z " fill="rgb(0, 0, 0)" fill-opacity="1.000000" />
<path d="M 265.892578 202.335938 L 265.892578 201.412109 L 272.729980 201.412109 L 272.729980 202.335938 Z " fill="rgb(0, 0, 0)" fill-opacity="1.000000" />
<path d="M 272.892578 202.335938 L 272.892578 201.412109 L 279.729980 201.412109 L 279.729980 202.335938 Z " fill="rgb(0, 0, 0)" fill-opacity="1.000000" />
<path d="M 279.892578 202.335938 L 279.892578 201.412109 L 286.729980 201.412109 L 286.729980 202.335938 Z " fill="rgb(0, 0, 0)" fill-opacity="1.000000" />
<path d="M 286.892578 202.335938 L 286.892578 201.412109 L 289.878906 201.412109 L 289.878906 194.300781 L 290.738281 194.300781 L 290.738281 202.335938 Z " fill="rgb(0, 0, 0)" fill-opacity="1.000000" />
<path d="M 188.892578 189.335938 L 188.892578 188.412109 L 195.729980 188.412109 L 195.729980 189.335938 Z " fill="rgb(0, 0, 0)" fill-opacity="1.000000" />
<path d="M 198.878906 195.319336 L 198.878906 189.335938 L 195.892578 189.335938 L 195.892578 188.412109 L 202.729980 188.412109 L 202.729980 189.335938 L 199.738281 189.335938 L 199.738281 195.319336 Z " fill="rgb(0, 0, 0)" fill-opacity="1.000000" />
<path d="M 202.892578 189.335938 L 202.892578 188.412109 L 209.729980 188.412109 L 209.729980 189.335938 Z " fill="rgb(0, 0, 0)" fill-opacity="1.000000" />
<path d="M 209.892578 189.335938 L 209.892578 188.412109 L 216.729980 188.412109 L 216.729980 189.335938 Z " fill="rgb(0, 0, 0)" fill-opacity="1.000000" />
<path d="M 216.892578 189.335938 L 216.892578 188.412109 L 223.729980 188.412109 L 223.729980 189.335938 Z " fill="rgb(0, 0, 0)" fill-opacity="1.000000" />
<path d="M 223.892578 189.335938 L 223.892578 188.412109 L 230.729980 188.412109 L 230.729980 189.335938 Z " fill="rgb(0, 0, 0)" fill-opacity="1.000000" />
<path d="M 230.892578 189.335938 L 230.892578 188.412109 L 237.729980 188.412109 L 237.729980 189.335938 Z " fill="rgb(0, 0, 0)" fill-opacity="1.000000" />
<path d="M 237.892578 189.335938 L 237.892578 188.412109 L 244.729980 188.412109 L 244.729980 189.335938 Z " fill="rgb(0, 0, 0)" fill-opacity="1.000000" />
<path d="M 244.892578 189.335938 L 244.892578 188.412109 L 251.729980 188.412109 L 251.729980 189.335938 Z " fill="rgb(0, 0, 0)" fill-opacity="1.000000" />
<path d="M 251.892578 189.335938 L 251.892578 188.412109 L 258.729980 188.412109 L 258.729980 189.335938 Z " fill="rgb(0, 0, 0)" fill-opacity="1.000000" />
<path d="M 258.892578 189.335938 L 258.892578 188.412109 L 265.729980 188.412109 L 265.729980 189.335938 Z " fill="rgb(0, 0, 0)" fill-opacity="1.000000" />
<path d="M 265.892578 189.335938 L 265.892578 188.412109 L 272.729980 188.412109 L 272.729980 189.335938 Z " fill="rgb(0, 0, 0)" fill-opacity="1.000000" />
<path d="M 272.892578 189.335938 L 272.892578 188.412109 L 275.878906 188.412109 L 275.878906 181.300781 L 276.738281 181.300781 L 276.738281 189.335938 Z " fill="rgb(0, 0, 0)" fill-opacity="1.000000" />
<path d="M 289.878906 195.319336 L 289.878906 181.300781 L 290.738281 181.300781 L 290.738281 195.319336 Z " fill="rgb(0, 0, 0)" fill-opacity="1.000000" />
<path d="M 174.892578 176.335938 L 174.892578 175.412109 L 181.729980 175.412109 L 181.729980 176.335938 Z " fill="rgb(0, 0, 0)" fill-opacity="1.000000" />
<path d="M 184.878906 182.319336 L 184.878906 176.335938 L 181.892578 176.335938 L 181.892578 175.412109 L 188.729980 175.412109 L 188.729980 176.335938 L 185.738281 176.335938 L 185.738281 182.319336 Z " fill="rgb(0, 0, 0)" fill-opacity="1.000000" />
<path d="M 188.892578 176.335938 L 188.892578 175.412109 L 195.729980 175.412109 L 195.729980 176.335938 Z " fill="rgb(0, 0, 0)" fill-opacity="1.000000" />
<path d="M 195.892578 176.335938 L 195.892578 175.412109 L 202.729980 175.412109 L 202.729980 176.335938 Z " fill="rgb(0, 0, 0)" fill-opacity="1.000000" />
<path d="M 202.892578 176.335938 L 202.892578 175.412109 L 209.729980 175.412109 L 209.729980 176.335938 Z " fill="rgb(0, 0, 0)" fill-opacity="1.000000" />
<path d="M 209.892578 176.335938 L 209.892578 175.412109 L 216.729980 175.412109 L 216.729980 176.335938 Z " fill="rgb(0, 0, 0)" fill-opacity="1.000000" />
<path d="M 216.892578 176.335938 L 216.892578 175.412109 L 223.729980 175.412109 L 223.729980 176.335938 Z " fill="rgb(0, 0, 0)" fill-opacity="1.000000" />
<path d="M 223.892578 176.335938 L 223.892578 175.412109 L 230.729980 175.412109 L 230.729980 176.335938 Z " fill="rgb(0, 0, 0)" fill-opacity="1.000000" />
<path d="M 230.892578 176.335938 L 230.892578 175.412109 L 237.729980 175.412109 L 237.729980 176.335938 Z " fill="rgb(0, 0, 0)" fill-opacity="1.000000" />
<path d="M 237.892578 176.335938 L 237.892578 175.412109 L 244.729980 175.412109 L 244.729980 176.335938 Z " fill="rgb(0, 0, 0)" fill-opacity="1.000000" />
<path d="M 244.892578 176.335938 L 244.892578 175.412109 L 251.729980 175.412109 L 251.729980 176.335938 Z " fill="rgb(0, 0, 0)" fill-opacity="1.000000" />
<path d="M 251.892578 176.335938 L 251.892578 175.412109 L 258.729980 175.412109 L 258.729980 176.335938 Z " fill="rgb(0, 0, 0)" fill-opacity="1.000000" />
<path d="M 258.892578 176.335938 L 258.892578 175.412109 L 261.878906 175.412109 L 261.878906 168.300781 L 262.738281 168.300781 L 262.738281 176.335938 Z " fill="rgb(0, 0, 0)" fill-opacity="1.000000" />
<path d="M 275.878906 182.319336 L 275.878906 168.300781 L 276.738281 168.300781 L 276.738281 182.319336 Z " fill="rgb(0, 0, 0)" fill-opacity="1.000000" />
<path d="M 289.878906 182.319336 L 289.878906 168.300781 L 290.738281 168.300781 L 290.738281 182.319336 Z " fill="rgb(0, 0, 0)" fill-opacity="1.000000" />
<path d="M 6.892578 163.335938 L 6.892578 162.412109 L 13.729980 162.412109 L 13.729980 163.335938 Z " fill="rgb(0, 0, 0)" fill-opacity="1.000000" />
<path d="M 13.892578 163.335938 L 13.892578 162.412109 L 20.729980 162.412109 L 20.729980 163.335938 Z " fill="rgb(0, 0, 0)" fill-opacity="1.000000" />
<path d="M 20.892578 163.335938 L 20.892578 162.412109 L 27.729980 162.412109 L 27.729980 163.335938 Z " fill="rgb(0, 0, 0)" fill-opacity="1.000000" />
<path d="M 27.892578 163.335938 L 27.892578 162.412109 L 34.729980 162.412109 L 34.729980 163.335938 Z " fill="rgb(0, 0, 0)" fill-opacity="1.000000" />
<path d="M 34.892578 163.335938 L 34.892578 162.412109 L 41.729980 162.412109 L 41.729980 163.335938 Z " fill="rgb(0, 0, 0)" fill-opacity="1.000000" />
<path d="M 41.892578 163.335938 L 41.892578 162.412109 L 48.729980 162.412109 L 48.729980 163.335938 Z " fill="rgb(0, 0, 0)" fill-opacity="1.000000" />
<path d="M 48.892578 163.335938 L 48.892578 162.412109 L 55.729980 162.412109 L 55.729980 163.335938 Z " fill="rgb(0, 0, 0)" fill-opacity="1.000000" />
<path d="M 55.892578 163.335938 L 55.892578 162.412109 L 62.729980 162.412109 L 62.729980 163.335938 Z " fill="rgb(0, 0, 0)" fill-opacity="1.000000" />
<path d="M 62.892578 163.335938 L 62.892578 162.412109 L 69.729980 162.412109 L 69.729980 163.335938 Z " fill="rgb(0, 0, 0)" fill-opacity="1.000000" />
<path d="M 69.892578 163.335938 L 69.892578 162.412109 L 76.729980 162.412109 L 76.729980 163.335938 Z " fill="rgb(0, 0, 0)" fill-opacity="1.000000" />
<path d="M 76.892578 163.335938 L 76.892578 162.412109 L 83.729980 162.412109 L 83.729980 163.335938 Z " fill="rgb(0, 0, 0)" fill-opacity="1.000000" />
<path d="M 83.892578 163.335938 L 83.892578 162.412109 L 90.729980 162.412109 L 90.729980 163.335938 Z " fill="rgb(0, 0, 0)" fill-opacity="1.000000" />
<path d="M 90.892578 163.335938 L 90.892578 162.412109 L 97.729980 162.412109 L 97.729980 163.335938 Z " fill="rgb(0, 0, 0)" fill-opacity="1.000000" />
<path d="M 97.892578 163.335938 L 97.892578 162.412109 L 104.729980 162.412109 L 104.729980 163.335938 Z " fill="rgb(0, 0, 0)" fill-opacity="1.000000" />
<path d="M 104.892578 163.335938 L 104.892578 162.412109 L 107.878906 162.412109 L 107.878906 155.300781 L 108.738281 155.300781 L 108.738281 163.335938 Z " fill="rgb(0, 0, 0)" fill-opacity="1.000000" />
<path d="M 170.878906 169.319336 L 170.878906 155.300781 L 171.738281 155.300781 L 171.738281 169.319336 Z " fill="rgb(0, 0, 0)" fill-opacity="1.000000" />
<path d="M 261.878906 169.319336 L 261.878906 155.300781 L 262.738281 155.300781 L 262.738281 169.319336 Z " fill="rgb(0, 0, 0)" fill-opacity="1.000000" />
<path d="M 275.878906 169.319336 L 275.878906 155.300781 L 276.738281 155.300781 L 276.738281 169.319336 Z " fill="rgb(0, 0, 0)" fill-opacity="1.000000" />
<path d="M 281.111816 157.980957 L 285.172363 157.980957 L 285.172363 158.894043 L 282.100098 158.894043 L 282.100098 160.865234 Q 282.331055 160.779297 282.564697 160.739014 Q 282.798340 160.698730 283.034668 160.698730 Q 284.280762 160.698730 285.011230 161.434570 Q 285.741699 162.170410 285.741699 163.427246 Q 285.741699 164.694824 284.976318 165.425293 Q 284.210938 166.155762 282.884277 166.155762 Q 282.245117 166.155762 281.716064 166.069824 Q 281.187012 165.983887 280.768066 165.812012 L 280.768066 164.710938 Q 281.262207 164.979492 281.761719 165.111084 Q 282.261230 165.242676 282.782227 165.242676 Q 283.679199 165.242676 284.165283 164.770020 Q 284.651367 164.297363 284.651367 163.427246 Q 284.651367 162.567871 284.149170 162.089844 Q 283.646973 161.611816 282.750000 161.611816 Q 282.314941 161.611816 281.901367 161.711182 Q 281.487793 161.810547 281.111816 162.009277 Z " fill="rgb(0, 0, 0)" fill-opacity="1.000000" />
<path d="M 289.878906 169.319336 L 289.878906 155.300781 L 290.738281 155.300781 L 290.738281 169.319336 Z " fill="rgb(0, 0, 0)" fill-opacity="1.000000" />
<path d="M 345.878906 163.335938 L 345.878906 155.300781 L 346.738281 155.300781 L 346.738281 162.412109 L 349.729980 162.412109 L 349.729980 163.335938 Z " fill="rgb(0, 0, 0)" fill-opacity="1.000000" />
<path d="M 349.892578 163.335938 L 349.892578 162.412109 L 356.729980 162.412109 L 356.729980 163.335938 Z " fill="rgb(0, 0, 0)" fill-opacity="1.000000" />
<path d="M 356.892578 163.335938 L 356.892578 162.412109 L 363.729980 162.412109 L 363.729980 163.335938 Z " fill="rgb(0, 0, 0)" fill-opacity="1.000000" />
<path d="M 363.892578 163.335938 L 363.892578 162.412109 L 370.729980 162.412109 L 370.729980 163.335938 Z " fill="rgb(0, 0, 0)" fill-opacity="1.000000" />
<path d="M 370.892578 163.335938 L 370.892578 162.412109 L 377.729980 162.412109 L 377.729980 163.335938 Z " fill="rgb(0, 0, 0)" fill-opacity="1.000000" />
<path d="M 377.892578 163.335938 L 377.892578 162.412109 L 384.729980 162.412109 L 384.729980 163.335938 Z " fill="rgb(0, 0, 0)" fill-opacity="1.000000" />
<path d="M 384.892578 163.335938 L 384.892578 162.412109 L 391.729980 162.412109 L 391.729980 163.335938 Z " fill="rgb(0, 0, 0)" fill-opacity="1.000000" />
<path d="M 391.892578 163.335938 L 391.892578 162.412109 L 398.729980 162.412109 L 398.729980 163.335938 Z " fill="rgb(0, 0, 0)" fill-opacity="1.000000" />
<path d="M 398.892578 163.335938 L 398.892578 162.412109 L 405.729980 162.412109 L 405.729980 163.335938 Z " fill="rgb(0, 0, 0)" fill-opacity="1.000000" />
<path d="M 405.892578 163.335938 L 405.892578 162.412109 L 412.729980 162.412109 L 412.729980 163.335938 Z " fill="rgb(0, 0, 0)" fill-opacity="1.000000" />
<path d="M 412.892578 163.335938 L 412.892578 162.412109 L 419.729980 162.412109 L 419.729980 163.335938 Z " fill="rgb(0, 0, 0)" fill-opacity="1.000000" />
<path d="M 419.892578 163.335938 L 419.892578 162.412109 L 426.729980 162.412109 L 426.729980 163.335938 Z " fill="rgb(0, 0, 0)" fill-opacity="1.000000" />
<path d="M 426.892578 163.335938 L 426.892578 162.412109 L 433.729980 162.412109 L 433.729980 163.335938 Z " fill="rgb(0, 0, 0)" fill-opacity="1.000000" />
<path d="M 433.892578 163.335938 L 433.892578 162.412109 L 440.729980 162.412109 L 440.729980 163.335938 Z " fill="rgb(0, 0, 0)" fill-opacity="1.000000" />
<path d="M 440.892578 163.335938 L 440.892578 162.412109 L 447.729980 162.412109 L 447.729980 163.335938 Z " fill="rgb(0, 0, 0)" fill-opacity="1.000000" />
<path d="M 447.892578 163.335938 L 447.892578 162.412109 L 450.878906 162.412109 L 450.878906 155.300781 L 451.738281 155.300781 L 451.738281 163.335938 Z " fill="rgb(0, 0, 0)" fill-opacity="1.000000" />
<path d="M 40.763184 87.715332 Q 40.349609 87.935547 39.914551 88.045654 Q 39.479492 88.155762 38.990723 88.155762 Q 37.449219 88.155762 36.597900 87.065430 Q 35.746582 85.975098 35.746582 83.998535 Q 35.746582 82.032715 36.603271 80.934326 Q 37.459961 79.835938 38.990723 79.835938 Q 39.479492 79.835938 39.914551 79.946045 Q 40.349609 80.056152 40.763184 80.276367 L 40.763184 81.388184 Q 40.365723 81.060547 39.909180 80.888672 Q 39.452637 80.716797 38.990723 80.716797 Q 37.932617 80.716797 37.406250 81.533203 Q 36.879883 82.349609 36.879883 83.998535 Q 36.879883 85.642090 37.406250 86.458496 Q 37.932617 87.274902 38.990723 87.274902 Q 39.463379 87.274902 39.917236 87.103027 Q 40.371094 86.931152 40.763184 86.603516 Z " fill="rgb(0, 0, 0)" fill-opacity="1.000000" />
<path d="M 93.878906 104.319336 L 93.878906 90.300781 L 94.738281 90.300781 L 94.738281 104.319336 Z " fill="rgb(0, 0, 0)" fill-opacity="1.000000" />
<path d="M 93.878906 111.335938 L 93.878906 103.300781 L 94.738281 103.300781 L 94.738281 110.412109 L 97.729980 110.412109 L 97.729980 111.335938 Z " fill="rgb(0, 0, 0)" fill-opacity="1.000000" />
<path d="M 107.878906 130.319336 L 107.878906 116.300781 L 108.738281 116.300781 L 108.738281 130.319336 Z " fill="rgb(0, 0, 0)" fill-opacity="1.000000" />
<path d="M 107.878906 143.319336 L 107.878906 129.300781 L 108.738281 129.300781 L 108.738281 143.319336 Z " fill="rgb(0, 0, 0)" fill-opacity="1.000000" />
<path d="M 107.878906 156.319336 L 107.878906 142.300781 L 108.738281 142.300781 L 108.738281 156.319336 Z " fill="rgb(0, 0, 0)" fill-opacity="1.000000" />
<path d="M 170.878906 130.319336 L 170.878906 123.412109 L 174.729980 123.412109 L 174.729980 124.335938 L 171.738281 124.335938 L 171.738281 130.319336 Z " fill="rgb(0, 0, 0)" fill-opacity="1.000000" />
<path d="M 170.878906 143.319336 L 170.878906 129.300781 L 171.738281 129.300781 L 171.738281 143.319336 Z " fill="rgb(0, 0, 0)" fill-opacity="1.000000" />
<path d="M 170.878906 156.319336 L 170.878906 142.300781 L 171.738281 142.300781 L 171.738281 156.319336 Z " fill="rgb(0, 0, 0)" fill-opacity="1.000000" />
<path d="M 179.608398 134.752441 L 179.608398 131.642578 L 180.596680 131.642578 L 180.596680 140.000000 L 179.608398 140.000000 L 179.608398 139.242676 Q 179.361328 139.688477 178.950439 139.922119 Q 178.539551 140.155762 178.002441 140.155762 Q 176.912109 140.155762 176.286377 139.309814 Q 175.660645 138.463867 175.660645 136.976074 Q 175.660645 135.509766 176.289062 134.674561 Q 176.917480 133.839355 178.002441 133.839355 Q 178.544922 133.839355 178.958496 134.072998 Q 179.372070 134.306641 179.608398 134.752441 Z M 176.702637 136.997559 Q 176.702637 138.146973 177.067871 138.732422 Q 177.433105 139.317871 178.147461 139.317871 Q 178.861816 139.317871 179.235107 138.727051 Q 179.608398 138.136230 179.608398 136.997559 Q 179.608398 135.853516 179.235107 135.265381 Q 178.861816 134.677246 178.147461 134.677246 Q 177.433105 134.677246 177.067871 135.262695 Q 176.702637 135.848145 176.702637 136.997559 Z " fill="rgb(0, 0, 0)" fill-opacity="1.000000" />
<path d="M 176.697266 147.005859 L 179.227051 147.005859 L 179.227051 152.231934 L 181.187500 152.231934 L 181.187500 153.000000 L 176.278320 153.000000 L 176.278320 152.231934 L 178.238770 152.231934 L 178.238770 147.773926 L 176.697266 147.773926 Z M 178.238770 144.669434 L 179.227051 144.669434 L 179.227051 145.915527 L 178.238770 145.915527 Z " fill="rgb(0, 0, 0)" fill-opacity="1.000000" />
<path d="M 186.608398 147.752441 L 186.608398 144.642578 L 187.596680 144.642578 L 187.596680 153.000000 L 186.608398 153.000000 L 186.608398 152.242676 Q 186.361328 152.688477 185.950439 152.922119 Q 185.539551 153.155762 185.002441 153.155762 Q 183.912109 153.155762 183.286377 152.309814 Q 182.660645 151.463867 182.660645 149.976074 Q 182.660645 148.509766 183.289062 147.674561 Q 183.917480 146.839355 185.002441 146.839355 Q 185.544922 146.839355 185.958496 147.072998 Q 186.372070 147.306641 186.608398 147.752441 Z M 183.702637 149.997559 Q 183.702637 151.146973 184.067871 151.732422 Q 184.433105 152.317871 185.147461 152.317871 Q 185.861816 152.317871 186.235107 151.727051 Q 186.608398 151.136230 186.608398 149.997559 Q 186.608398 148.853516 186.235107 148.265381 Q 185.861816 147.677246 185.147461 147.677246 Q 184.433105 147.677246 184.067871 148.262695 Q 183.702637 148.848145 183.702637 149.997559 Z " fill="rgb(0, 0, 0)" fill-opacity="1.000000" />
<path d="M 191.304199 146.989746 L 192.979980 146.989746 L 192.979980 148.928711 L 191.304199 148.928711 Z M 191.304199 151.044922 L 192.979980 151.044922 L 192.979980 153.000000 L 191.304199 153.000000 Z " fill="rgb(0, 0, 0)" fill-opacity="1.000000" />
<path d="M 206.947754 145.969238 L 204.417969 150.207031 L 206.947754 150.207031 Z M 206.770508 144.980957 L 208.027344 144.980957 L 208.027344 150.207031 L 209.096191 150.207031 L 209.096191 151.087891 L 208.027344 151.087891 L 208.027344 153.000000 L 206.947754 153.000000 L 206.947754 151.087891 L 203.547852 151.087891 L 203.547852 150.062012 Z " fill="rgb(0, 0, 0)" fill-opacity="1.000000" />
<path d="M 214.167969 148.708496 Q 214.957520 148.917969 215.376465 149.452393 Q 215.795410 149.986816 215.795410 150.787109 Q 215.795410 151.893555 215.051514 152.524658 Q 214.307617 153.155762 212.991699 153.155762 Q 212.438477 153.155762 211.863770 153.053711 Q 211.289062 152.951660 210.735840 152.758301 L 210.735840 151.678711 Q 211.283691 151.963379 211.815430 152.103027 Q 212.347168 152.242676 212.873535 152.242676 Q 213.765137 152.242676 214.243164 151.839844 Q 214.721191 151.437012 214.721191 150.679688 Q 214.721191 149.981445 214.243164 149.570557 Q 213.765137 149.159668 212.948730 149.159668 L 212.121582 149.159668 L 212.121582 148.268066 L 212.948730 148.268066 Q 213.695312 148.268066 214.114258 147.940430 Q 214.533203 147.612793 214.533203 147.027344 Q 214.533203 146.409668 214.143799 146.079346 Q 213.754395 145.749023 213.034668 145.749023 Q 212.556641 145.749023 212.046387 145.856445 Q 211.536133 145.963867 210.977539 146.178711 L 210.977539 145.179688 Q 211.627441 145.007812 212.135010 144.921875 Q 212.642578 144.835938 213.034668 144.835938 Q 214.205566 144.835938 214.906494 145.424072 Q 215.607422 146.012207 215.607422 146.984375 Q 215.607422 147.645020 215.239502 148.085449 Q 214.871582 148.525879 214.167969 148.708496 Z " fill="rgb(0, 0, 0)" fill-opacity="1.000000" />
<path d="M 261.878906 156.319336 L 261.878906 142.300781 L 262.738281 142.300781 L 262.738281 156.319336 Z " fill="rgb(0, 0, 0)" fill-opacity="1.000000" />
<path d="M 269.947754 145.969238 L 267.417969 150.207031 L 269.947754 150.207031 Z M 269.770508 144.980957 L 271.027344 144.980957 L 271.027344 150.207031 L 272.096191 150.207031 L 272.096191 151.087891 L 271.027344 151.087891 L 271.027344 153.000000 L 269.947754 153.000000 L 269.947754 151.087891 L 266.547852 151.087891 L 266.547852 150.062012 Z " fill="rgb(0, 0, 0)" fill-opacity="1.000000" />
<path d="M 275.878906 156.319336 L 275.878906 142.300781 L 276.738281 142.300781 L 276.738281 149.412109 L 279.729980 149.412109 L 279.729980 150.335938 L 276.738281 150.335938 L 276.738281 156.319336 Z " fill="rgb(0, 0, 0)" fill-opacity="1.000000" />
<path d="M 279.892578 150.335938 L 279.892578 149.412109 L 286.729980 149.412109 L 286.729980 150.335938 Z " fill="rgb(0, 0, 0)" fill-opacity="1.000000" />
<path d="M 289.878906 156.319336 L 289.878906 150.335938 L 286.892578 150.335938 L 286.892578 149.412109 L 290.738281 149.412109 L 290.738281 156.319336 Z " fill="rgb(0, 0, 0)" fill-opacity="1.000000" />
<path d="M 345.878906 156.319336 L 345.878906 142.300781 L 346.738281 142.300781 L 346.738281 156.319336 Z " fill="rgb(0, 0, 0)" fill-opacity="1.000000" />
<path d="M 450.878906 156.319336 L 450.878906 142.300781 L 451.738281 142.300781 L 451.738281 156.319336 Z " fill="rgb(0, 0, 0)" fill-opacity="1.000000" />
<path d="M 185.770508 136.976074 L 185.442871 136.976074 Q 184.578125 136.976074 184.140381 137.279541 Q 183.702637 137.583008 183.702637 138.184570 Q 183.702637 138.727051 184.030273 139.027832 Q 184.357910 139.328613 184.937988 139.328613 Q 185.754395 139.328613 186.221680 138.761963 Q 186.688965 138.195312 186.694336 137.196289 L 186.694336 136.976074 Z M 187.687988 136.567871 L 187.687988 140.000000 L 186.694336 140.000000 L 186.694336 139.108398 Q 186.377441 139.645508 185.896729 139.900635 Q 185.416016 140.155762 184.728516 140.155762 Q 183.810059 140.155762 183.262207 139.637451 Q 182.714355 139.119141 182.714355 138.249023 Q 182.714355 137.244629 183.388428 136.723633 Q 184.062500 136.202637 185.367676 136.202637 L 186.694336 136.202637 L 186.694336 136.046875 Q 186.688965 135.327148 186.329102 135.002197 Q 185.969238 134.677246 185.179688 134.677246 Q 184.674805 134.677246 184.159180 134.822266 Q 183.643555 134.967285 183.154785 135.246582 L 183.154785 134.258301 Q 183.702637 134.048828 184.204834 133.944092 Q 184.707031 133.839355 185.179688 133.839355 Q 185.926270 133.839355 186.455322 134.059570 Q 186.984375 134.279785 187.312012 134.720215 Q 187.516113 134.988770 187.602051 135.383545 Q 187.687988 135.778320 187.687988 136.567871 Z " fill="rgb(0, 0, 0)" fill-opacity="1.000000" />
<path d="M 192.297852 132.276367 L 192.297852 133.984375 L 194.542969 133.984375 L 194.542969 134.752441 L 192.297852 134.752441 L 192.297852 138.018066 Q 192.297852 138.684082 192.550293 138.947266 Q 192.802734 139.210449 193.431152 139.210449 L 194.542969 139.210449 L 194.542969 140.000000 L 193.334473 140.000000 Q 192.222656 140.000000 191.766113 139.554199 Q 191.309570 139.108398 191.309570 138.018066 L 191.309570 134.752441 L 189.703613 134.752441 L 189.703613 133.984375 L 191.309570 133.984375 L 191.309570 132.276367 Z " fill="rgb(0, 0, 0)" fill-opacity="1.000000" />
<path d="M 199.770508 136.976074 L 199.442871 136.976074 Q 198.578125 136.976074 198.140381 137.279541 Q 197.702637 137.583008 197.702637 138.184570 Q 197.702637 138.727051 198.030273 139.027832 Q 198.357910 139.328613 198.937988 139.328613 Q 199.754395 139.328613 200.221680 138.761963 Q 200.688965 138.195312 200.694336 137.196289 L 200.694336 136.976074 Z M 201.687988 136.567871 L 201.687988 140.000000 L 200.694336 140.000000 L 200.694336 139.108398 Q 200.377441 139.645508 199.896729 139.900635 Q 199.416016 140.155762 198.728516 140.155762 Q 197.810059 140.155762 197.262207 139.637451 Q 196.714355 139.119141 196.714355 138.249023 Q 196.714355 137.244629 197.388428 136.723633 Q 198.062500 136.202637 199.367676 136.202637 L 200.694336 136.202637 L 200.694336 136.046875 Q 200.688965 135.327148 200.329102 135.002197 Q 199.969238 134.677246 199.179688 134.677246 Q 198.674805 134.677246 198.159180 134.822266 Q 197.643555 134.967285 197.154785 135.246582 L 197.154785 134.258301 Q 197.702637 134.048828 198.204834 133.944092 Q 198.707031 133.839355 199.179688 133.839355 Q 199.926270 133.839355 200.455322 134.059570 Q 200.984375 134.279785 201.312012 134.720215 Q 201.516113 134.988770 201.602051 135.383545 Q 201.687988 135.778320 201.687988 136.567871 Z " fill="rgb(0, 0, 0)" fill-opacity="1.000000" />
<path d="M 205.304199 133.989746 L 206.979980 133.989746 L 206.979980 135.928711 L 205.304199 135.928711 Z M 205.304199 138.044922 L 206.979980 138.044922 L 206.979980 140.000000 L 205.304199 140.000000 Z " fill="rgb(0, 0, 0)" fill-opacity="1.000000" />
<path d="M 222.435547 132.254883 L 222.435547 133.355957 Q 221.941406 133.039062 221.444580 132.877930 Q 220.947754 132.716797 220.442871 132.716797 Q 219.674805 132.716797 219.229004 133.073975 Q 218.783203 133.431152 218.783203 134.038086 Q 218.783203 134.569824 219.075928 134.849121 Q 219.368652 135.128418 220.168945 135.316406 L 220.738281 135.445312 Q 221.866211 135.708496 222.381836 136.272461 Q 222.897461 136.836426 222.897461 137.808594 Q 222.897461 138.952637 222.188477 139.554199 Q 221.479492 140.155762 220.125977 140.155762 Q 219.562012 140.155762 218.992676 140.034912 Q 218.423340 139.914062 217.848633 139.672363 L 217.848633 138.517578 Q 218.466309 138.909668 219.016846 139.092285 Q 219.567383 139.274902 220.125977 139.274902 Q 220.947754 139.274902 221.404297 138.906982 Q 221.860840 138.539062 221.860840 137.878418 Q 221.860840 137.276855 221.546631 136.959961 Q 221.232422 136.643066 220.453613 136.471191 L 219.873535 136.336914 Q 218.756348 136.084473 218.251465 135.574219 Q 217.746582 135.063965 217.746582 134.204590 Q 217.746582 133.130371 218.468994 132.483154 Q 219.191406 131.835938 220.389160 131.835938 Q 220.851074 131.835938 221.361328 131.940674 Q 221.871582 132.045410 222.435547 132.254883 Z " fill="rgb(0, 0, 0)" fill-opacity="1.000000" />
<path d="M 229.435547 132.254883 L 229.435547 133.355957 Q 228.941406 133.039062 228.444580 132.877930 Q 227.947754 132.716797 227.442871 132.716797 Q 226.674805 132.716797 226.229004 133.073975 Q 225.783203 133.431152 225.783203 134.038086 Q 225.783203 134.569824 226.075928 134.849121 Q 226.368652 135.128418 227.168945 135.316406 L 227.738281 135.445312 Q 228.866211 135.708496 229.381836 136.272461 Q 229.897461 136.836426 229.897461 137.808594 Q 229.897461 138.952637 229.188477 139.554199 Q 228.479492 140.155762 227.125977 140.155762 Q 226.562012 140.155762 225.992676 140.034912 Q 225.423340 139.914062 224.848633 139.672363 L 224.848633 138.517578 Q 225.466309 138.909668 226.016846 139.092285 Q 226.567383 139.274902 227.125977 139.274902 Q 227.947754 139.274902 228.404297 138.906982 Q 228.860840 138.539062 228.860840 137.878418 Q 228.860840 137.276855 228.546631 136.959961 Q 228.232422 136.643066 227.453613 136.471191 L 226.873535 136.336914 Q 225.756348 136.084473 225.251465 135.574219 Q 224.746582 135.063965 224.746582 134.204590 Q 224.746582 133.130371 225.468994 132.483154 Q 226.191406 131.835938 227.389160 131.835938 Q 227.851074 131.835938 228.361328 131.940674 Q 228.871582 132.045410 229.435547 132.254883 Z " fill="rgb(0, 0, 0)" fill-opacity="1.000000" />
<path d="M 232.058105 131.980957 L 236.816895 131.980957 L 236.816895 132.894043 L 233.143066 132.894043 L 233.143066 135.053223 L 236.655762 135.053223 L 236.655762 135.966309 L 233.143066 135.966309 L 233.143066 139.086914 L 236.918945 139.086914 L 236.918945 140.000000 L 232.058105 140.000000 Z " fill="rgb(0, 0, 0)" fill-opacity="1.000000" />
<path d="M 238.547852 136.111328 L 244.241211 136.111328 L 244.241211 137.019043 L 238.547852 137.019043 Z " fill="rgb(0, 0, 0)" fill-opacity="1.000000" />
<path d="M 248.947754 132.969238 L 246.417969 137.207031 L 248.947754 137.207031 Z M 248.770508 131.980957 L 250.027344 131.980957 L 250.027344 137.207031 L 251.096191 137.207031 L 251.096191 138.087891 L 250.027344 138.087891 L 250.027344 140.000000 L 248.947754 140.000000 L 248.947754 138.087891 L 245.547852 138.087891 L 245.547852 137.062012 Z " fill="rgb(0, 0, 0)" fill-opacity="1.000000" />
<path d="M 256.167969 135.708496 Q 256.957520 135.917969 257.376465 136.452393 Q 257.795410 136.986816 257.795410 137.787109 Q 257.795410 138.893555 257.051514 139.524658 Q 256.307617 140.155762 254.991699 140.155762 Q 254.438477 140.155762 253.863770 140.053711 Q 253.289062 139.951660 252.735840 139.758301 L 252.735840 138.678711 Q 253.283691 138.963379 253.815430 139.103027 Q 254.347168 139.242676 254.873535 139.242676 Q 255.765137 139.242676 256.243164 138.839844 Q 256.721191 138.437012 256.721191 137.679688 Q 256.721191 136.981445 256.243164 136.570557 Q 255.765137 136.159668 254.948730 136.159668 L 254.121582 136.159668 L 254.121582 135.268066 L 254.948730 135.268066 Q 255.695312 135.268066 256.114258 134.940430 Q 256.533203 134.612793 256.533203 134.027344 Q 256.533203 133.409668 256.143799 133.079346 Q 255.754395 132.749023 255.034668 132.749023 Q 254.556641 132.749023 254.046387 132.856445 Q 253.536133 132.963867 252.977539 133.178711 L 252.977539 132.179688 Q 253.627441 132.007812 254.135010 131.921875 Q 254.642578 131.835938 255.034668 131.835938 Q 256.205566 131.835938 256.906494 132.424072 Q 257.607422 133.012207 257.607422 133.984375 Q 257.607422 134.645020 257.239502 135.085449 Q 256.871582 135.525879 256.167969 135.708496 Z " fill="rgb(0, 0, 0)" fill-opacity="1.000000" />
<path d="M 261.878906 143.319336 L 261.878906 129.300781 L 262.738281 129.300781 L 262.738281 136.412109 L 265.729980 136.412109 L 265.729980 137.335938 L 262.738281 137.335938 L 262.738281 143.319336 Z " fill="rgb(0, 0, 0)" fill-opacity="1.000000" />
<path d="M 265.892578 137.335938 L 265.892578 136.412109 L 272.729980 136.412109 L 272.729980 137.335938 Z " fill="rgb(0, 0, 0)" fill-opacity="1.000000" />
<path d="M 275.878906 143.319336 L 275.878906 137.335938 L 272.892578 137.335938 L 272.892578 136.412109 L 276.738281 136.412109 L 276.738281 143.319336 Z " fill="rgb(0, 0, 0)" fill-opacity="1.000000" />
<path d="M 345.878906 143.319336 L 345.878906 129.300781 L 346.738281 129.300781 L 346.738281 143.319336 Z " fill="rgb(0, 0, 0)" fill-opacity="1.000000" />
<path d="M 450.878906 143.319336 L 450.878906 129.300781 L 451.738281 129.300781 L 451.738281 143.319336 Z " fill="rgb(0, 0, 0)" fill-opacity="1.000000" />
<path d="M 174.892578 124.335938 L 174.892578 123.412109 L 181.729980 123.412109 L 181.729980 124.335938 Z " fill="rgb(0, 0, 0)" fill-opacity="1.000000" />
<path d="M 181.892578 124.335938 L 181.892578 123.412109 L 188.729980 123.412109 L 188.729980 124.335938 Z " fill="rgb(0, 0, 0)" fill-opacity="1.000000" />
<path d="M 188.892578 124.335938 L 188.892578 123.412109 L 195.729980 123.412109 L 195.729980 124.335938 Z " fill="rgb(0, 0, 0)" fill-opacity="1.000000" />
<path d="M 195.892578 124.335938 L 195.892578 123.412109 L 202.729980 123.412109 L 202.729980 124.335938 Z " fill="rgb(0, 0, 0)" fill-opacity="1.000000" />
<path d="M 202.892578 124.335938 L 202.892578 123.412109 L 209.729980 123.412109 L 209.729980 124.335938 Z " fill="rgb(0, 0, 0)" fill-opacity="1.000000" />
<path d="M 209.892578 124.335938 L 209.892578 123.412109 L 216.729980 123.412109 L 216.729980 124.335938 Z " fill="rgb(0, 0, 0)" fill-opacity="1.000000" />
<path d="M 216.892578 124.335938 L 216.892578 123.412109 L 223.729980 123.412109 L 223.729980 124.335938 Z " fill="rgb(0, 0, 0)" fill-opacity="1.000000" />
<path d="M 223.892578 124.335938 L 223.892578 123.412109 L 230.729980 123.412109 L 230.729980 124.335938 Z " fill="rgb(0, 0, 0)" fill-opacity="1.000000" />
<path d="M 230.892578 124.335938 L 230.892578 123.412109 L 237.729980 123.412109 L 237.729980 124.335938 Z " fill="rgb(0, 0, 0)" fill-opacity="1.000000" />
<path d="M 237.892578 124.335938 L 237.892578 123.412109 L 244.729980 123.412109 L 244.729980 124.335938 Z " fill="rgb(0, 0, 0)" fill-opacity="1.000000" />
<path d="M 244.892578 124.335938 L 244.892578 123.412109 L 251.729980 123.412109 L 251.729980 124.335938 Z " fill="rgb(0, 0, 0)" fill-opacity="1.000000" />
<path d="M 251.892578 124.335938 L 251.892578 123.412109 L 258.729980 123.412109 L 258.729980 124.335938 Z " fill="rgb(0, 0, 0)" fill-opacity="1.000000" />
<path d="M 261.878906 130.319336 L 261.878906 124.335938 L 258.892578 124.335938 L 258.892578 123.412109 L 262.738281 123.412109 L 262.738281 130.319336 Z " fill="rgb(0, 0, 0)" fill-opacity="1.000000" />
<path d="M 345.878906 130.319336 L 345.878906 116.300781 L 346.738281 116.300781 L 346.738281 130.319336 Z " fill="rgb(0, 0, 0)" fill-opacity="1.000000" />
<path d="M 450.878906 130.319336 L 450.878906 116.300781 L 451.738281 116.300781 L 451.738281 130.319336 Z " fill="rgb(0, 0, 0)" fill-opacity="1.000000" />
<path d="M 97.892578 111.335938 L 97.892578 110.412109 L 104.729980 110.412109 L 104.729980 111.335938 Z " fill="rgb(0, 0, 0)" fill-opacity="1.000000" />
<path d="M 107.878906 117.319336 L 107.878906 103.300781 L 108.738281 103.300781 L 108.738281 117.319336 Z " fill="rgb(0, 0, 0)" fill-opacity="1.000000" />
<path d="M 112.032227 111.142578 L 118.590332 107.866211 L 118.590332 114.418945 Z " fill="rgb(0, 0, 0)" fill-opacity="1.000000" />
<path d="M 118.892578 111.335938 L 118.892578 110.412109 L 125.729980 110.412109 L 125.729980 111.335938 Z " fill="rgb(0, 0, 0)" fill-opacity="1.000000" />
<path d="M 125.892578 111.335938 L 125.892578 110.412109 L 132.729980 110.412109 L 132.729980 111.335938 Z " fill="rgb(0, 0, 0)" fill-opacity="1.000000" />
<path d="M 132.892578 111.335938 L 132.892578 110.412109 L 139.729980 110.412109 L 139.729980 111.335938 Z " fill="rgb(0, 0, 0)" fill-opacity="1.000000" />
<path d="M 139.892578 111.335938 L 139.892578 110.412109 L 146.729980 110.412109 L 146.729980 111.335938 Z " fill="rgb(0, 0, 0)" fill-opacity="1.000000" />
<path d="M 146.892578 111.335938 L 146.892578 110.412109 L 153.729980 110.412109 L 153.729980 111.335938 Z " fill="rgb(0, 0, 0)" fill-opacity="1.000000" />
<path d="M 153.892578 111.335938 L 153.892578 110.412109 L 160.729980 110.412109 L 160.729980 111.335938 Z " fill="rgb(0, 0, 0)" fill-opacity="1.000000" />
<path d="M 160.892578 111.335938 L 160.892578 110.412109 L 167.729980 110.412109 L 167.729980 111.335938 Z " fill="rgb(0, 0, 0)" fill-opacity="1.000000" />
<path d="M 167.892578 111.335938 L 167.892578 110.412109 L 174.729980 110.412109 L 174.729980 111.335938 Z " fill="rgb(0, 0, 0)" fill-opacity="1.000000" />
<path d="M 174.892578 111.335938 L 174.892578 110.412109 L 181.729980 110.412109 L 181.729980 111.335938 Z " fill="rgb(0, 0, 0)" fill-opacity="1.000000" />
<path d="M 181.892578 111.335938 L 181.892578 110.412109 L 188.729980 110.412109 L 188.729980 111.335938 Z " fill="rgb(0, 0, 0)" fill-opacity="1.000000" />
<path d="M 188.892578 111.335938 L 188.892578 110.412109 L 195.729980 110.412109 L 195.729980 111.335938 Z " fill="rgb(0, 0, 0)" fill-opacity="1.000000" />
<path d="M 195.892578 111.335938 L 195.892578 110.412109 L 202.729980 110.412109 L 202.729980 111.335938 Z " fill="rgb(0, 0, 0)" fill-opacity="1.000000" />
<path d="M 202.892578 111.335938 L 202.892578 110.412109 L 209.729980 110.412109 L 209.729980 111.335938 Z " fill="rgb(0, 0, 0)" fill-opacity="1.000000" />
<path d="M 209.892578 111.335938 L 209.892578 110.412109 L 216.729980 110.412109 L 216.729980 111.335938 Z " fill="rgb(0, 0, 0)" fill-opacity="1.000000" />
<path d="M 216.892578 111.335938 L 216.892578 110.412109 L 223.729980 110.412109 L 223.729980 111.335938 Z " fill="rgb(0, 0, 0)" fill-opacity="1.000000" />
<path d="M 223.892578 111.335938 L 223.892578 110.412109 L 230.729980 110.412109 L 230.729980 111.335938 Z " fill="rgb(0, 0, 0)" fill-opacity="1.000000" />
<path d="M 230.892578 111.335938 L 230.892578 110.412109 L 237.729980 110.412109 L 237.729980 111.335938 Z " fill="rgb(0, 0, 0)" fill-opacity="1.000000" />
<path d="M 237.892578 111.335938 L 237.892578 110.412109 L 244.729980 110.412109 L 244.729980 111.335938 Z " fill="rgb(0, 0, 0)" fill-opacity="1.000000" />
<path d="M 244.892578 111.335938 L 244.892578 110.412109 L 251.729980 110.412109 L 251.729980 111.335938 Z " fill="rgb(0, 0, 0)" fill-opacity="1.000000" />
<path d="M 251.892578 111.335938 L 251.892578 110.412109 L 258.729980 110.412109 L 258.729980 111.335938 Z " fill="rgb(0, 0, 0)" fill-opacity="1.000000" />
<path d="M 258.892578 111.335938 L 258.892578 110.412109 L 265.729980 110.412109 L 265.729980 111.335938 Z " fill="rgb(0, 0, 0)" fill-opacity="1.000000" />
<path d="M 265.892578 111.335938 L 265.892578 110.412109 L 272.729980 110.412109 L 272.729980 111.335938 Z " fill="rgb(0, 0, 0)" fill-opacity="1.000000" />
<path d="M 272.892578 111.335938 L 272.892578 110.412109 L 279.729980 110.412109 L 279.729980 111.335938 Z " fill="rgb(0, 0, 0)" fill-opacity="1.000000" />
<path d="M 279.892578 111.335938 L 279.892578 110.412109 L 286.729980 110.412109 L 286.729980 111.335938 Z " fill="rgb(0, 0, 0)" fill-opacity="1.000000" />
<path d="M 286.892578 111.335938 L 286.892578 110.412109 L 293.729980 110.412109 L 293.729980 111.335938 Z " fill="rgb(0, 0, 0)" fill-opacity="1.000000" />
<path d="M 293.892578 111.335938 L 293.892578 110.412109 L 300.729980 110.412109 L 300.729980 111.335938 Z " fill="rgb(0, 0, 0)" fill-opacity="1.000000" />
<path d="M 300.892578 111.335938 L 300.892578 110.412109 L 307.729980 110.412109 L 307.729980 111.335938 Z " fill="rgb(0, 0, 0)" fill-opacity="1.000000" />
<path d="M 307.892578 111.335938 L 307.892578 110.412109 L 314.729980 110.412109 L 314.729980 111.335938 Z " fill="rgb(0, 0, 0)" fill-opacity="1.000000" />
<path d="M 314.892578 111.335938 L 314.892578 110.412109 L 321.729980 110.412109 L 321.729980 111.335938 Z " fill="rgb(0, 0, 0)" fill-opacity="1.000000" />
<path d="M 321.892578 111.335938 L 321.892578 110.412109 L 328.729980 110.412109 L 328.729980 111.335938 Z " fill="rgb(0, 0, 0)" fill-opacity="1.000000" />
<path d="M 328.892578 111.335938 L 328.892578 110.412109 L 335.729980 110.412109 L 335.729980 111.335938 Z " fill="rgb(0, 0, 0)" fill-opacity="1.000000" />
<path d="M 335.892578 111.335938 L 335.892578 110.412109 L 342.729980 110.412109 L 342.729980 111.335938 Z " fill="rgb(0, 0, 0)" fill-opacity="1.000000" />
<path d="M 345.878906 117.319336 L 345.878906 103.300781 L 346.738281 103.300781 L 346.738281 117.319336 Z " fill="rgb(0, 0, 0)" fill-opacity="1.000000" />
<path d="M 450.878906 117.319336 L 450.878906 103.300781 L 451.738281 103.300781 L 451.738281 117.319336 Z " fill="rgb(0, 0, 0)" fill-opacity="1.000000" />
<path d="M 107.878906 104.319336 L 107.878906 90.300781 L 108.738281 90.300781 L 108.738281 104.319336 Z " fill="rgb(0, 0, 0)" fill-opacity="1.000000" />
<path d="M 345.878906 104.319336 L 345.878906 90.300781 L 346.738281 90.300781 L 346.738281 104.319336 Z " fill="rgb(0, 0, 0)" fill-opacity="1.000000" />
<path d="M 450.878906 104.319336 L 450.878906 90.300781 L 451.738281 90.300781 L 451.738281 104.319336 Z " fill="rgb(0, 0, 0)" fill-opacity="1.000000" />
<path d="M 45.861816 85.824707 Q 45.861816 86.490723 46.106201 86.829102 Q 46.350586 87.167480 46.828613 87.167480 L 47.983398 87.167480 L 47.983398 88.000000 L 46.731934 88.000000 Q 45.845703 88.000000 45.359619 87.433350 Q 44.873535 86.866699 44.873535 85.824707 L 44.873535 80.383789 L 43.289062 80.383789 L 43.289062 79.610352 L 45.861816 79.610352 Z " fill="rgb(0, 0, 0)" fill-opacity="1.000000" />
<path d="M 50.697266 82.005859 L 53.227051 82.005859 L 53.227051 87.231934 L 55.187500 87.231934 L 55.187500 88.000000 L 50.278320 88.000000 L 50.278320 87.231934 L 52.238770 87.231934 L 52.238770 82.773926 L 50.697266 82.773926 Z M 52.238770 79.669434 L 53.227051 79.669434 L 53.227051 80.915527 L 52.238770 80.915527 Z " fill="rgb(0, 0, 0)" fill-opacity="1.000000" />
<path d="M 62.015625 84.498047 L 62.015625 84.981445 L 57.734863 84.981445 L 57.734863 85.013672 Q 57.691895 86.243652 58.204834 86.780762 Q 58.717773 87.317871 59.652344 87.317871 Q 60.125000 87.317871 60.640625 87.167480 Q 61.156250 87.017090 61.741699 86.710938 L 61.741699 87.693848 Q 61.177734 87.924805 60.654053 88.040283 Q 60.130371 88.155762 59.641602 88.155762 Q 58.239746 88.155762 57.450195 87.315186 Q 56.660645 86.474609 56.660645 84.997559 Q 56.660645 83.558105 57.434082 82.698730 Q 58.207520 81.839355 59.496582 81.839355 Q 60.645996 81.839355 61.309326 82.618164 Q 61.972656 83.396973 62.015625 84.498047 Z M 61.027344 84.208008 Q 60.962891 83.584961 60.573486 83.131104 Q 60.184082 82.677246 59.453613 82.677246 Q 58.739258 82.677246 58.277344 83.149902 Q 57.815430 83.622559 57.772461 84.213379 Z " fill="rgb(0, 0, 0)" fill-opacity="1.000000" />
<path d="M 68.645020 84.272461 L 68.645020 88.000000 L 67.651367 88.000000 L 67.651367 84.272461 Q 67.651367 83.461426 67.366699 83.080078 Q 67.082031 82.698730 66.475098 82.698730 Q 65.782227 82.698730 65.408936 83.190186 Q 65.035645 83.681641 65.035645 84.600098 L 65.035645 88.000000 L 64.047363 88.000000 L 64.047363 81.984375 L 65.035645 81.984375 L 65.035645 82.886719 Q 65.298828 82.371094 65.750000 82.105225 Q 66.201172 81.839355 66.818848 81.839355 Q 67.737305 81.839355 68.191162 82.443604 Q 68.645020 83.047852 68.645020 84.272461 Z " fill="rgb(0, 0, 0)" fill-opacity="1.000000" />
<path d="M 73.297852 80.276367 L 73.297852 81.984375 L 75.542969 81.984375 L 75.542969 82.752441 L 73.297852 82.752441 L 73.297852 86.018066 Q 73.297852 86.684082 73.550293 86.947266 Q 73.802734 87.210449 74.431152 87.210449 L 75.542969 87.210449 L 75.542969 88.000000 L 74.334473 88.000000 Q 73.222656 88.000000 72.766113 87.554199 Q 72.309570 87.108398 72.309570 86.018066 L 72.309570 82.752441 L 70.703613 82.752441 L 70.703613 81.984375 L 72.309570 81.984375 L 72.309570 80.276367 Z " fill="rgb(0, 0, 0)" fill-opacity="1.000000" />
<path d="M 93.878906 91.319336 L 93.878906 77.300781 L 94.738281 77.300781 L 94.738281 91.319336 Z " fill="rgb(0, 0, 0)" fill-opacity="1.000000" />
<path d="M 107.878906 91.319336 L 107.878906 77.300781 L 108.738281 77.300781 L 108.738281 91.319336 Z " fill="rgb(0, 0, 0)" fill-opacity="1.000000" />
<path d="M 345.878906 91.319336 L 345.878906 77.300781 L 346.738281 77.300781 L 346.738281 91.319336 Z " fill="rgb(0, 0, 0)" fill-opacity="1.000000" />
<path d="M 383.435547 80.254883 L 383.435547 81.355957 Q 382.941406 81.039062 382.444580 80.877930 Q 381.947754 80.716797 381.442871 80.716797 Q 380.674805 80.716797 380.229004 81.073975 Q 379.783203 81.431152 379.783203 82.038086 Q 379.783203 82.569824 380.075928 82.849121 Q 380.368652 83.128418 381.168945 83.316406 L 381.738281 83.445312 Q 382.866211 83.708496 383.381836 84.272461 Q 383.897461 84.836426 383.897461 85.808594 Q 383.897461 86.952637 383.188477 87.554199 Q 382.479492 88.155762 381.125977 88.155762 Q 380.562012 88.155762 379.992676 88.034912 Q 379.423340 87.914062 378.848633 87.672363 L 378.848633 86.517578 Q 379.466309 86.909668 380.016846 87.092285 Q 380.567383 87.274902 381.125977 87.274902 Q 381.947754 87.274902 382.404297 86.906982 Q 382.860840 86.539062 382.860840 85.878418 Q 382.860840 85.276855 382.546631 84.959961 Q 382.232422 84.643066 381.453613 84.471191 L 380.873535 84.336914 Q 379.756348 84.084473 379.251465 83.574219 Q 378.746582 83.063965 378.746582 82.204590 Q 378.746582 81.130371 379.468994 80.483154 Q 380.191406 79.835938 381.389160 79.835938 Q 381.851074 79.835938 382.361328 79.940674 Q 382.871582 80.045410 383.435547 80.254883 Z " fill="rgb(0, 0, 0)" fill-opacity="1.000000" />
<path d="M 391.015625 84.498047 L 391.015625 84.981445 L 386.734863 84.981445 L 386.734863 85.013672 Q 386.691895 86.243652 387.204834 86.780762 Q 387.717773 87.317871 388.652344 87.317871 Q 389.125000 87.317871 389.640625 87.167480 Q 390.156250 87.017090 390.741699 86.710938 L 390.741699 87.693848 Q 390.177734 87.924805 389.654053 88.040283 Q 389.130371 88.155762 388.641602 88.155762 Q 387.239746 88.155762 386.450195 87.315186 Q 385.660645 86.474609 385.660645 84.997559 Q 385.660645 83.558105 386.434082 82.698730 Q 387.207520 81.839355 388.496582 81.839355 Q 389.645996 81.839355 390.309326 82.618164 Q 390.972656 83.396973 391.015625 84.498047 Z M 390.027344 84.208008 Q 389.962891 83.584961 389.573486 83.131104 Q 389.184082 82.677246 388.453613 82.677246 Q 387.739258 82.677246 387.277344 83.149902 Q 386.815430 83.622559 386.772461 84.213379 Z " fill="rgb(0, 0, 0)" fill-opacity="1.000000" />
<path d="M 398.203613 83.225098 Q 397.886719 82.978027 397.559082 82.865234 Q 397.231445 82.752441 396.839355 82.752441 Q 395.915527 82.752441 395.426758 83.332520 Q 394.937988 83.912598 394.937988 85.008301 L 394.937988 88.000000 L 393.944336 88.000000 L 393.944336 81.984375 L 394.937988 81.984375 L 394.937988 83.160645 Q 395.185059 82.521484 395.697998 82.180420 Q 396.210938 81.839355 396.914551 81.839355 Q 397.279785 81.839355 397.596680 81.930664 Q 397.913574 82.021973 398.203613 82.215332 Z " fill="rgb(0, 0, 0)" fill-opacity="1.000000" />
<path d="M 399.537109 81.984375 L 400.562988 81.984375 L 402.308594 87.033203 L 404.059570 81.984375 L 405.085449 81.984375 L 402.947754 88.000000 L 401.674805 88.000000 Z " fill="rgb(0, 0, 0)" fill-opacity="1.000000" />
<path d="M 412.015625 84.498047 L 412.015625 84.981445 L 407.734863 84.981445 L 407.734863 85.013672 Q 407.691895 86.243652 408.204834 86.780762 Q 408.717773 87.317871 409.652344 87.317871 Q 410.125000 87.317871 410.640625 87.167480 Q 411.156250 87.017090 411.741699 86.710938 L 411.741699 87.693848 Q 411.177734 87.924805 410.654053 88.040283 Q 410.130371 88.155762 409.641602 88.155762 Q 408.239746 88.155762 407.450195 87.315186 Q 406.660645 86.474609 406.660645 84.997559 Q 406.660645 83.558105 407.434082 82.698730 Q 408.207520 81.839355 409.496582 81.839355 Q 410.645996 81.839355 411.309326 82.618164 Q 411.972656 83.396973 412.015625 84.498047 Z M 411.027344 84.208008 Q 410.962891 83.584961 410.573486 83.131104 Q 410.184082 82.677246 409.453613 82.677246 Q 408.739258 82.677246 408.277344 83.149902 Q 407.815430 83.622559 407.772461 84.213379 Z " fill="rgb(0, 0, 0)" fill-opacity="1.000000" />
<path d="M 419.203613 83.225098 Q 418.886719 82.978027 418.559082 82.865234 Q 418.231445 82.752441 417.839355 82.752441 Q 416.915527 82.752441 416.426758 83.332520 Q 415.937988 83.912598 415.937988 85.008301 L 415.937988 88.000000 L 414.944336 88.000000 L 414.944336 81.984375 L 415.937988 81.984375 L 415.937988 83.160645 Q 416.185059 82.521484 416.697998 82.180420 Q 417.210938 81.839355 417.914551 81.839355 Q 418.279785 81.839355 418.596680 81.930664 Q 418.913574 82.021973 419.203613 82.215332 Z " fill="rgb(0, 0, 0)" fill-opacity="1.000000" />
<path d="M 450.878906 91.319336 L 450.878906 77.300781 L 451.738281 77.300781 L 451.738281 91.319336 Z " fill="rgb(0, 0, 0)" fill-opacity="1.000000" />
<path d="M 93.878906 65.319336 L 93.878906 58.412109 L 97.729980 58.412109 L 97.729980 59.335938 L 94.738281 59.335938 L 94.738281 65.319336 Z " fill="rgb(0, 0, 0)" fill-opacity="1.000000" />
<path d="M 93.878906 78.319336 L 93.878906 64.300781 L 94.738281 64.300781 L 94.738281 78.319336 Z " fill="rgb(0, 0, 0)" fill-opacity="1.000000" />
<path d="M 107.878906 78.319336 L 107.878906 64.300781 L 108.738281 64.300781 L 108.738281 78.319336 Z " fill="rgb(0, 0, 0)" fill-opacity="1.000000" />
<path d="M 345.878906 78.319336 L 345.878906 64.300781 L 346.738281 64.300781 L 346.738281 78.319336 Z " fill="rgb(0, 0, 0)" fill-opacity="1.000000" />
<path d="M 450.878906 78.319336 L 450.878906 64.300781 L 451.738281 64.300781 L 451.738281 78.319336 Z " fill="rgb(0, 0, 0)" fill-opacity="1.000000" />
<path d="M 98.032227 62.418945 L 98.032227 55.866211 L 104.590332 59.142578 Z " fill="rgb(0, 0, 0)" fill-opacity="1.000000" />
<path d="M 107.878906 65.319336 L 107.878906 51.300781 L 108.738281 51.300781 L 108.738281 65.319336 Z " fill="rgb(0, 0, 0)" fill-opacity="1.000000" />
<path d="M 111.892578 59.335938 L 111.892578 58.412109 L 118.729980 58.412109 L 118.729980 59.335938 Z " fill="rgb(0, 0, 0)" fill-opacity="1.000000" />
<path d="M 118.892578 59.335938 L 118.892578 58.412109 L 125.729980 58.412109 L 125.729980 59.335938 Z " fill="rgb(0, 0, 0)" fill-opacity="1.000000" />
<path d="M 125.892578 59.335938 L 125.892578 58.412109 L 132.729980 58.412109 L 132.729980 59.335938 Z " fill="rgb(0, 0, 0)" fill-opacity="1.000000" />
<path d="M 132.892578 59.335938 L 132.892578 58.412109 L 139.729980 58.412109 L 139.729980 59.335938 Z " fill="rgb(0, 0, 0)" fill-opacity="1.000000" />
<path d="M 139.892578 59.335938 L 139.892578 58.412109 L 146.729980 58.412109 L 146.729980 59.335938 Z " fill="rgb(0, 0, 0)" fill-opacity="1.000000" />
<path d="M 146.892578 59.335938 L 146.892578 58.412109 L 153.729980 58.412109 L 153.729980 59.335938 Z " fill="rgb(0, 0, 0)" fill-opacity="1.000000" />
<path d="M 153.892578 59.335938 L 153.892578 58.412109 L 160.729980 58.412109 L 160.729980 59.335938 Z " fill="rgb(0, 0, 0)" fill-opacity="1.000000" />
<path d="M 160.892578 59.335938 L 160.892578 58.412109 L 167.729980 58.412109 L 167.729980 59.335938 Z " fill="rgb(0, 0, 0)" fill-opacity="1.000000" />
<path d="M 167.892578 59.335938 L 167.892578 58.412109 L 174.729980 58.412109 L 174.729980 59.335938 Z " fill="rgb(0, 0, 0)" fill-opacity="1.000000" />
<path d="M 174.892578 59.335938 L 174.892578 58.412109 L 181.729980 58.412109 L 181.729980 59.335938 Z " fill="rgb(0, 0, 0)" fill-opacity="1.000000" />
<path d="M 181.892578 59.335938 L 181.892578 58.412109 L 188.729980 58.412109 L 188.729980 59.335938 Z " fill="rgb(0, 0, 0)" fill-opacity="1.000000" />
<path d="M 188.892578 59.335938 L 188.892578 58.412109 L 195.729980 58.412109 L 195.729980 59.335938 Z " fill="rgb(0, 0, 0)" fill-opacity="1.000000" />
<path d="M 195.892578 59.335938 L 195.892578 58.412109 L 202.729980 58.412109 L 202.729980 59.335938 Z " fill="rgb(0, 0, 0)" fill-opacity="1.000000" />
<path d="M 202.892578 59.335938 L 202.892578 58.412109 L 209.729980 58.412109 L 209.729980 59.335938 Z " fill="rgb(0, 0, 0)" fill-opacity="1.000000" />
<path d="M 209.892578 59.335938 L 209.892578 58.412109 L 216.729980 58.412109 L 216.729980 59.335938 Z " fill="rgb(0, 0, 0)" fill-opacity="1.000000" />
<path d="M 216.892578 59.335938 L 216.892578 58.412109 L 223.729980 58.412109 L 223.729980 59.335938 Z " fill="rgb(0, 0, 0)" fill-opacity="1.000000" />
<path d="M 223.892578 59.335938 L 223.892578 58.412109 L 230.729980 58.412109 L 230.729980 59.335938 Z " fill="rgb(0, 0, 0)" fill-opacity="1.000000" />
<path d="M 230.892578 59.335938 L 230.892578 58.412109 L 237.729980 58.412109 L 237.729980 59.335938 Z " fill="rgb(0, 0, 0)" fill-opacity="1.000000" />
<path d="M 237.892578 59.335938 L 237.892578 58.412109 L 244.729980 58.412109 L 244.729980 59.335938 Z " fill="rgb(0, 0, 0)" fill-opacity="1.000000" />
<path d="M 244.892578 59.335938 L 244.892578 58.412109 L 251.729980 58.412109 L 251.729980 59.335938 Z " fill="rgb(0, 0, 0)" fill-opacity="1.000000" />
<path d="M 251.892578 59.335938 L 251.892578 58.412109 L 258.729980 58.412109 L 258.729980 59.335938 Z " fill="rgb(0, 0, 0)" fill-opacity="1.000000" />
<path d="M 258.892578 59.335938 L 258.892578 58.412109 L 265.729980 58.412109 L 265.729980 59.335938 Z " fill="rgb(0, 0, 0)" fill-opacity="1.000000" />
<path d="M 265.892578 59.335938 L 265.892578 58.412109 L 272.729980 58.412109 L 272.729980 59.335938 Z " fill="rgb(0, 0, 0)" fill-opacity="1.000000" />
<path d="M 272.892578 59.335938 L 272.892578 58.412109 L 279.729980 58.412109 L 279.729980 59.335938 Z " fill="rgb(0, 0, 0)" fill-opacity="1.000000" />
<path d="M 279.892578 59.335938 L 279.892578 58.412109 L 286.729980 58.412109 L 286.729980 59.335938 Z " fill="rgb(0, 0, 0)" fill-opacity="1.000000" />
<path d="M 286.892578 59.335938 L 286.892578 58.412109 L 293.729980 58.412109 L 293.729980 59.335938 Z " fill="rgb(0, 0, 0)" fill-opacity="1.000000" />
<path d="M 293.892578 59.335938 L 293.892578 58.412109 L 300.729980 58.412109 L 300.729980 59.335938 Z " fill="rgb(0, 0, 0)" fill-opacity="1.000000" />
<path d="M 300.892578 59.335938 L 300.892578 58.412109 L 307.729980 58.412109 L 307.729980 59.335938 Z " fill="rgb(0, 0, 0)" fill-opacity="1.000000" />
<path d="M 307.892578 59.335938 L 307.892578 58.412109 L 314.729980 58.412109 L 314.729980 59.335938 Z " fill="rgb(0, 0, 0)" fill-opacity="1.000000" />
<path d="M 314.892578 59.335938 L 314.892578 58.412109 L 321.729980 58.412109 L 321.729980 59.335938 Z " fill="rgb(0, 0, 0)" fill-opacity="1.000000" />
<path d="M 321.892578 59.335938 L 321.892578 58.412109 L 328.729980 58.412109 L 328.729980 59.335938 Z " fill="rgb(0, 0, 0)" fill-opacity="1.000000" />
<path d="M 328.892578 59.335938 L 328.892578 58.412109 L 335.729980 58.412109 L 335.729980 59.335938 Z " fill="rgb(0, 0, 0)" fill-opacity="1.000000" />
<path d="M 336.032227 62.418945 L 336.032227 55.866211 L 342.590332 59.142578 Z " fill="rgb(0, 0, 0)" fill-opacity="1.000000" />
<path d="M 345.878906 65.319336 L 345.878906 51.300781 L 346.738281 51.300781 L 346.738281 65.319336 Z " fill="rgb(0, 0, 0)" fill-opacity="1.000000" />
<path d="M 450.878906 65.319336 L 450.878906 51.300781 L 451.738281 51.300781 L 451.738281 65.319336 Z " fill="rgb(0, 0, 0)" fill-opacity="1.000000" />
<path d="M 107.878906 26.319336 L 107.878906 12.300781 L 108.738281 12.300781 L 108.738281 26.319336 Z " fill="rgb(0, 0, 0)" fill-opacity="1.000000" />
<path d="M 107.878906 39.319336 L 107.878906 25.300781 L 108.738281 25.300781 L 108.738281 39.319336 Z " fill="rgb(0, 0, 0)" fill-opacity="1.000000" />
<path d="M 107.878906 52.319336 L 107.878906 38.300781 L 108.738281 38.300781 L 108.738281 52.319336 Z " fill="rgb(0, 0, 0)" fill-opacity="1.000000" />
<path d="M 163.878906 26.319336 L 163.878906 12.300781 L 164.738281 12.300781 L 164.738281 26.319336 Z " fill="rgb(0, 0, 0)" fill-opacity="1.000000" />
<path d="M 163.878906 39.319336 L 163.878906 25.300781 L 164.738281 25.300781 L 164.738281 39.319336 Z " fill="rgb(0, 0, 0)" fill-opacity="1.000000" />
<path d="M 163.878906 46.335938 L 163.878906 38.300781 L 164.738281 38.300781 L 164.738281 45.412109 L 167.729980 45.412109 L 167.729980 46.335938 Z " fill="rgb(0, 0, 0)" fill-opacity="1.000000" />
<path d="M 167.892578 46.335938 L 167.892578 45.412109 L 174.729980 45.412109 L 174.729980 46.335938 Z " fill="rgb(0, 0, 0)" fill-opacity="1.000000" />
<path d="M 174.892578 46.335938 L 174.892578 45.412109 L 181.729980 45.412109 L 181.729980 46.335938 Z " fill="rgb(0, 0, 0)" fill-opacity="1.000000" />
<path d="M 181.892578 46.335938 L 181.892578 45.412109 L 188.729980 45.412109 L 188.729980 46.335938 Z " fill="rgb(0, 0, 0)" fill-opacity="1.000000" />
<path d="M 188.892578 46.335938 L 188.892578 45.412109 L 195.729980 45.412109 L 195.729980 46.335938 Z " fill="rgb(0, 0, 0)" fill-opacity="1.000000" />
<path d="M 195.892578 46.335938 L 195.892578 45.412109 L 202.729980 45.412109 L 202.729980 46.335938 Z " fill="rgb(0, 0, 0)" fill-opacity="1.000000" />
<path d="M 202.892578 46.335938 L 202.892578 45.412109 L 209.729980 45.412109 L 209.729980 46.335938 Z " fill="rgb(0, 0, 0)" fill-opacity="1.000000" />
<path d="M 209.892578 46.335938 L 209.892578 45.412109 L 216.729980 45.412109 L 216.729980 46.335938 Z " fill="rgb(0, 0, 0)" fill-opacity="1.000000" />
<path d="M 216.892578 46.335938 L 216.892578 45.412109 L 223.729980 45.412109 L 223.729980 46.335938 Z " fill="rgb(0, 0, 0)" fill-opacity="1.000000" />
<path d="M 223.892578 46.335938 L 223.892578 45.412109 L 230.729980 45.412109 L 230.729980 46.335938 Z " fill="rgb(0, 0, 0)" fill-opacity="1.000000" />
<path d="M 230.892578 46.335938 L 230.892578 45.412109 L 237.729980 45.412109 L 237.729980 46.335938 Z " fill="rgb(0, 0, 0)" fill-opacity="1.000000" />
<path d="M 237.892578 46.335938 L 237.892578 45.412109 L 244.729980 45.412109 L 244.729980 46.335938 Z " fill="rgb(0, 0, 0)" fill-opacity="1.000000" />
<path d="M 244.892578 46.335938 L 244.892578 45.412109 L 251.729980 45.412109 L 251.729980 46.335938 Z " fill="rgb(0, 0, 0)" fill-opacity="1.000000" />
<path d="M 251.892578 46.335938 L 251.892578 45.412109 L 258.729980 45.412109 L 258.729980 46.335938 Z " fill="rgb(0, 0, 0)" fill-opacity="1.000000" />
<path d="M 258.892578 46.335938 L 258.892578 45.412109 L 265.729980 45.412109 L 265.729980 46.335938 Z " fill="rgb(0, 0, 0)" fill-opacity="1.000000" />
<path d="M 265.892578 46.335938 L 265.892578 45.412109 L 272.729980 45.412109 L 272.729980 46.335938 Z " fill="rgb(0, 0, 0)" fill-opacity="1.000000" />
<path d="M 272.892578 46.335938 L 272.892578 45.412109 L 279.729980 45.412109 L 279.729980 46.335938 Z " fill="rgb(0, 0, 0)" fill-opacity="1.000000" />
<path d="M 279.892578 46.335938 L 279.892578 45.412109 L 286.729980 45.412109 L 286.729980 46.335938 Z " fill="rgb(0, 0, 0)" fill-opacity="1.000000" />
<path d="M 286.892578 46.335938 L 286.892578 45.412109 L 289.878906 45.412109 L 289.878906 38.300781 L 290.738281 38.300781 L 290.738281 46.335938 Z " fill="rgb(0, 0, 0)" fill-opacity="1.000000" />
<path d="M 345.878906 52.319336 L 345.878906 38.300781 L 346.738281 38.300781 L 346.738281 52.319336 Z " fill="rgb(0, 0, 0)" fill-opacity="1.000000" />
<path d="M 450.878906 52.319336 L 450.878906 38.300781 L 451.738281 38.300781 L 451.738281 52.319336 Z " fill="rgb(0, 0, 0)" fill-opacity="1.000000" />
<path d="M 173.929688 22.339355 Q 173.494629 22.742188 172.949463 22.948975 Q 172.404297 23.155762 171.770508 23.155762 Q 170.245117 23.155762 169.396484 22.062744 Q 168.547852 20.969727 168.547852 18.998535 Q 168.547852 17.032715 169.407227 15.934326 Q 170.266602 14.835938 171.797363 14.835938 Q 172.302246 14.835938 172.764160 14.978271 Q 173.226074 15.120605 173.655762 15.410645 L 173.655762 16.522461 Q 173.220703 16.108887 172.764160 15.912842 Q 172.307617 15.716797 171.797363 15.716797 Q 170.739258 15.716797 170.210205 16.535889 Q 169.681152 17.354980 169.681152 18.998535 Q 169.681152 20.668945 170.194092 21.471924 Q 170.707031 22.274902 171.770508 22.274902 Q 172.130371 22.274902 172.401611 22.191650 Q 172.672852 22.108398 172.893066 21.931152 L 172.893066 19.777344 L 171.727539 19.777344 L 171.727539 18.885742 L 173.929688 18.885742 Z " fill="rgb(0, 0, 0)" fill-opacity="1.000000" />
<path d="M 169.154785 27.980957 L 170.245117 27.980957 L 170.245117 35.086914 L 174.117676 35.086914 L 174.117676 36.000000 L 169.154785 36.000000 Z " fill="rgb(0, 0, 0)" fill-opacity="1.000000" />
<path d="M 178.770508 32.976074 L 178.442871 32.976074 Q 177.578125 32.976074 177.140381 33.279541 Q 176.702637 33.583008 176.702637 34.184570 Q 176.702637 34.727051 177.030273 35.027832 Q 177.357910 35.328613 177.937988 35.328613 Q 178.754395 35.328613 179.221680 34.761963 Q 179.688965 34.195312 179.694336 33.196289 L 179.694336 32.976074 Z M 180.687988 32.567871 L 180.687988 36.000000 L 179.694336 36.000000 L 179.694336 35.108398 Q 179.377441 35.645508 178.896729 35.900635 Q 178.416016 36.155762 177.728516 36.155762 Q 176.810059 36.155762 176.262207 35.637451 Q 175.714355 35.119141 175.714355 34.249023 Q 175.714355 33.244629 176.388428 32.723633 Q 177.062500 32.202637 178.367676 32.202637 L 179.694336 32.202637 L 179.694336 32.046875 Q 179.688965 31.327148 179.329102 31.002197 Q 178.969238 30.677246 178.179688 30.677246 Q 177.674805 30.677246 177.159180 30.822266 Q 176.643555 30.967285 176.154785 31.246582 L 176.154785 30.258301 Q 176.702637 30.048828 177.204834 29.944092 Q 177.707031 29.839355 178.179688 29.839355 Q 178.926270 29.839355 179.455322 30.059570 Q 179.984375 30.279785 180.312012 30.720215 Q 180.516113 30.988770 180.602051 31.383545 Q 180.687988 31.778320 180.687988 32.567871 Z " fill="rgb(0, 0, 0)" fill-opacity="1.000000" />
<path d="M 187.226074 30.193848 L 187.226074 31.160645 Q 186.801758 30.913574 186.372070 30.790039 Q 185.942383 30.666504 185.496582 30.666504 Q 184.825195 30.666504 184.494873 30.884033 Q 184.164551 31.101562 184.164551 31.547363 Q 184.164551 31.950195 184.411621 32.148926 Q 184.658691 32.347656 185.641602 32.535645 L 186.039062 32.610840 Q 186.774902 32.750488 187.153564 33.169434 Q 187.532227 33.588379 187.532227 34.259766 Q 187.532227 35.151367 186.898438 35.653564 Q 186.264648 36.155762 185.136719 36.155762 Q 184.690918 36.155762 184.202148 36.061768 Q 183.713379 35.967773 183.144043 35.779785 L 183.144043 34.759277 Q 183.697266 35.043945 184.202148 35.186279 Q 184.707031 35.328613 185.158203 35.328613 Q 185.813477 35.328613 186.173340 35.062744 Q 186.533203 34.796875 186.533203 34.318848 Q 186.533203 33.631348 185.217285 33.368164 L 185.174316 33.357422 L 184.803711 33.282227 Q 183.949707 33.115723 183.557617 32.720947 Q 183.165527 32.326172 183.165527 31.644043 Q 183.165527 30.779297 183.750977 30.309326 Q 184.336426 29.839355 185.421387 29.839355 Q 185.904785 29.839355 186.350586 29.927979 Q 186.796387 30.016602 187.226074 30.193848 Z " fill="rgb(0, 0, 0)" fill-opacity="1.000000" />
<path d="M 192.297852 28.276367 L 192.297852 29.984375 L 194.542969 29.984375 L 194.542969 30.752441 L 192.297852 30.752441 L 192.297852 34.018066 Q 192.297852 34.684082 192.550293 34.947266 Q 192.802734 35.210449 193.431152 35.210449 L 194.542969 35.210449 L 194.542969 36.000000 L 193.334473 36.000000 Q 192.222656 36.000000 191.766113 35.554199 Q 191.309570 35.108398 191.309570 34.018066 L 191.309570 30.752441 L 189.703613 30.752441 L 189.703613 29.984375 L 191.309570 29.984375 L 191.309570 28.276367 Z " fill="rgb(0, 0, 0)" fill-opacity="1.000000" />
<path d="M 196.547852 32.111328 L 202.241211 32.111328 L 202.241211 33.019043 L 196.547852 33.019043 Z " fill="rgb(0, 0, 0)" fill-opacity="1.000000" />
<path d="M 204.058105 27.980957 L 208.816895 27.980957 L 208.816895 28.894043 L 205.143066 28.894043 L 205.143066 31.053223 L 208.655762 31.053223 L 208.655762 31.966309 L 205.143066 31.966309 L 205.143066 35.086914 L 208.918945 35.086914 L 208.918945 36.000000 L 204.058105 36.000000 Z " fill="rgb(0, 0, 0)" fill-opacity="1.000000" />
<path d="M 210.537109 29.984375 L 211.562988 29.984375 L 213.308594 35.033203 L 215.059570 29.984375 L 216.085449 29.984375 L 213.947754 36.000000 L 212.674805 36.000000 Z " fill="rgb(0, 0, 0)" fill-opacity="1.000000" />
<path d="M 223.015625 32.498047 L 223.015625 32.981445 L 218.734863 32.981445 L 218.734863 33.013672 Q 218.691895 34.243652 219.204834 34.780762 Q 219.717773 35.317871 220.652344 35.317871 Q 221.125000 35.317871 221.640625 35.167480 Q 222.156250 35.017090 222.741699 34.710938 L 222.741699 35.693848 Q 222.177734 35.924805 221.654053 36.040283 Q 221.130371 36.155762 220.641602 36.155762 Q 219.239746 36.155762 218.450195 35.315186 Q 217.660645 34.474609 217.660645 32.997559 Q 217.660645 31.558105 218.434082 30.698730 Q 219.207520 29.839355 220.496582 29.839355 Q 221.645996 29.839355 222.309326 30.618164 Q 222.972656 31.396973 223.015625 32.498047 Z M 222.027344 32.208008 Q 221.962891 31.584961 221.573486 31.131104 Q 221.184082 30.677246 220.453613 30.677246 Q 219.739258 30.677246 219.277344 31.149902 Q 218.815430 31.622559 218.772461 32.213379 Z " fill="rgb(0, 0, 0)" fill-opacity="1.000000" />
<path d="M 229.645020 32.272461 L 229.645020 36.000000 L 228.651367 36.000000 L 228.651367 32.272461 Q 228.651367 31.461426 228.366699 31.080078 Q 228.082031 30.698730 227.475098 30.698730 Q 226.782227 30.698730 226.408936 31.190186 Q 226.035645 31.681641 226.035645 32.600098 L 226.035645 36.000000 L 225.047363 36.000000 L 225.047363 29.984375 L 226.035645 29.984375 L 226.035645 30.886719 Q 226.298828 30.371094 226.750000 30.105225 Q 227.201172 29.839355 227.818848 29.839355 Q 228.737305 29.839355 229.191162 30.443604 Q 229.645020 31.047852 229.645020 32.272461 Z " fill="rgb(0, 0, 0)" fill-opacity="1.000000" />
<path d="M 234.297852 28.276367 L 234.297852 29.984375 L 236.542969 29.984375 L 236.542969 30.752441 L 234.297852 30.752441 L 234.297852 34.018066 Q 234.297852 34.684082 234.550293 34.947266 Q 234.802734 35.210449 235.431152 35.210449 L 236.542969 35.210449 L 236.542969 36.000000 L 235.334473 36.000000 Q 234.222656 36.000000 233.766113 35.554199 Q 233.309570 35.108398 233.309570 34.018066 L 233.309570 30.752441 L 231.703613 30.752441 L 231.703613 29.984375 L 233.309570 29.984375 L 233.309570 28.276367 Z " fill="rgb(0, 0, 0)" fill-opacity="1.000000" />
<path d="M 238.547852 32.111328 L 244.241211 32.111328 L 244.241211 33.019043 L 238.547852 33.019043 Z " fill="rgb(0, 0, 0)" fill-opacity="1.000000" />
<path d="M 246.079590 27.980957 L 250.532227 27.980957 L 250.532227 28.894043 L 248.851074 28.894043 L 248.851074 35.086914 L 250.532227 35.086914 L 250.532227 36.000000 L 246.079590 36.000000 L 246.079590 35.086914 L 247.760742 35.086914 L 247.760742 28.894043 L 246.079590 28.894043 Z " fill="rgb(0, 0, 0)" fill-opacity="1.000000" />
<path d="M 254.341797 35.108398 Q 255.711426 35.108398 256.253906 34.434326 Q 256.796387 33.760254 256.796387 31.998535 Q 256.796387 30.220703 256.256592 29.546631 Q 255.716797 28.872559 254.341797 28.872559 L 253.826172 28.872559 L 253.826172 35.108398 Z M 254.363281 27.980957 Q 256.200195 27.980957 257.070312 28.958496 Q 257.940430 29.936035 257.940430 31.998535 Q 257.940430 34.050293 257.070312 35.025146 Q 256.200195 36.000000 254.363281 36.000000 L 252.735840 36.000000 L 252.735840 27.980957 Z " fill="rgb(0, 0, 0)" fill-opacity="1.000000" />
<path d="M 261.304199 29.989746 L 262.979980 29.989746 L 262.979980 31.928711 L 261.304199 31.928711 Z M 261.304199 34.044922 L 262.979980 34.044922 L 262.979980 36.000000 L 261.304199 36.000000 Z " fill="rgb(0, 0, 0)" fill-opacity="1.000000" />
<path d="M 276.947754 28.969238 L 274.417969 33.207031 L 276.947754 33.207031 Z M 276.770508 27.980957 L 278.027344 27.980957 L 278.027344 33.207031 L 279.096191 33.207031 L 279.096191 34.087891 L 278.027344 34.087891 L 278.027344 36.000000 L 276.947754 36.000000 L 276.947754 34.087891 L 273.547852 34.087891 L 273.547852 33.062012 Z " fill="rgb(0, 0, 0)" fill-opacity="1.000000" />
<path d="M 282.003418 35.086914 L 285.687988 35.086914 L 285.687988 36.000000 L 280.816406 36.000000 L 280.816406 35.086914 Q 281.820801 34.028809 282.572754 33.217773 Q 283.324707 32.406738 283.609375 32.073730 Q 284.146484 31.418457 284.334473 31.012939 Q 284.522461 30.607422 284.522461 30.183105 Q 284.522461 29.511719 284.127686 29.130371 Q 283.732910 28.749023 283.045410 28.749023 Q 282.556641 28.749023 282.019531 28.926270 Q 281.482422 29.103516 280.880859 29.463379 L 280.880859 28.367676 Q 281.434082 28.104492 281.968506 27.970215 Q 282.502930 27.835938 283.023926 27.835938 Q 284.200195 27.835938 284.917236 28.461670 Q 285.634277 29.087402 285.634277 30.102539 Q 285.634277 30.618164 285.395264 31.133789 Q 285.156250 31.649414 284.619141 32.272461 Q 284.318359 32.621582 283.746338 33.239258 Q 283.174316 33.856934 282.003418 35.086914 Z " fill="rgb(0, 0, 0)" fill-opacity="1.000000" />
<path d="M 289.878906 39.319336 L 289.878906 25.300781 L 290.738281 25.300781 L 290.738281 39.319336 Z " fill="rgb(0, 0, 0)" fill-opacity="1.000000" />
<path d="M 345.878906 39.319336 L 345.878906 25.300781 L 346.738281 25.300781 L 346.738281 39.319336 Z " fill="rgb(0, 0, 0)" fill-opacity="1.000000" />
<path d="M 450.878906 39.319336 L 450.878906 25.300781 L 451.738281 25.300781 L 451.738281 39.319336 Z " fill="rgb(0, 0, 0)" fill-opacity="1.000000" />
<path d="M 176.058105 14.980957 L 180.816895 14.980957 L 180.816895 15.894043 L 177.143066 15.894043 L 177.143066 18.053223 L 180.655762 18.053223 L 180.655762 18.966309 L 177.143066 18.966309 L 177.143066 22.086914 L 180.918945 22.086914 L 180.918945 23.000000 L 176.058105 23.000000 Z " fill="rgb(0, 0, 0)" fill-opacity="1.000000" />
<path d="M 182.252441 14.980957 L 188.370117 14.980957 L 188.370117 15.894043 L 185.861816 15.894043 L 185.861816 23.000000 L 184.771484 23.000000 L 184.771484 15.894043 L 182.252441 15.894043 Z " fill="rgb(0, 0, 0)" fill-opacity="1.000000" />
<path d="M 200.774902 14.980957 L 201.795410 14.980957 L 197.573730 24.020508 L 196.547852 24.020508 Z " fill="rgb(0, 0, 0)" fill-opacity="1.000000" />
<path d="M 289.878906 26.319336 L 289.878906 12.300781 L 290.738281 12.300781 L 290.738281 26.319336 Z " fill="rgb(0, 0, 0)" fill-opacity="1.000000" />
<path d="M 345.878906 26.319336 L 345.878906 12.300781 L 346.738281 12.300781 L 346.738281 26.319336 Z " fill="rgb(0, 0, 0)" fill-opacity="1.000000" />
<path d="M 450.878906 26.319336 L 450.878906 12.300781 L 451.738281 12.300781 L 451.738281 26.319336 Z " fill="rgb(0, 0, 0)" fill-opacity="1.000000" />
<path d="M 6.892578 7.335938 L 6.892578 6.412109 L 13.729980 6.412109 L 13.729980 7.335938 Z " fill="rgb(0, 0, 0)" fill-opacity="1.000000" />
<path d="M 13.892578 7.335938 L 13.892578 6.412109 L 20.729980 6.412109 L 20.729980 7.335938 Z " fill="rgb(0, 0, 0)" fill-opacity="1.000000" />
<path d="M 20.892578 7.335938 L 20.892578 6.412109 L 27.729980 6.412109 L 27.729980 7.335938 Z " fill="rgb(0, 0, 0)" fill-opacity="1.000000" />
<path d="M 27.892578 7.335938 L 27.892578 6.412109 L 34.729980 6.412109 L 34.729980 7.335938 Z " fill="rgb(0, 0, 0)" fill-opacity="1.000000" />
<path d="M 34.892578 7.335938 L 34.892578 6.412109 L 41.729980 6.412109 L 41.729980 7.335938 Z " fill="rgb(0, 0, 0)" fill-opacity="1.000000" />
<path d="M 41.892578 7.335938 L 41.892578 6.412109 L 48.729980 6.412109 L 48.729980 7.335938 Z " fill="rgb(0, 0, 0)" fill-opacity="1.000000" />
<path d="M 48.892578 7.335938 L 48.892578 6.412109 L 55.729980 6.412109 L 55.729980 7.335938 Z " fill="rgb(0, 0, 0)" fill-opacity="1.000000" />
<path d="M 55.892578 7.335938 L 55.892578 6.412109 L 62.729980 6.412109 L 62.729980 7.335938 Z " fill="rgb(0, 0, 0)" fill-opacity="1.000000" />
<path d="M 62.892578 7.335938 L 62.892578 6.412109 L 69.729980 6.412109 L 69.729980 7.335938 Z " fill="rgb(0, 0, 0)" fill-opacity="1.000000" />
<path d="M 69.892578 7.335938 L 69.892578 6.412109 L 76.729980 6.412109 L 76.729980 7.335938 Z " fill="rgb(0, 0, 0)" fill-opacity="1.000000" />
<path d="M 76.892578 7.335938 L 76.892578 6.412109 L 83.729980 6.412109 L 83.729980 7.335938 Z " fill="rgb(0, 0, 0)" fill-opacity="1.000000" />
<path d="M 83.892578 7.335938 L 83.892578 6.412109 L 90.729980 6.412109 L 90.729980 7.335938 Z " fill="rgb(0, 0, 0)" fill-opacity="1.000000" />
<path d="M 90.892578 7.335938 L 90.892578 6.412109 L 97.729980 6.412109 L 97.729980 7.335938 Z " fill="rgb(0, 0, 0)" fill-opacity="1.000000" />
<path d="M 97.892578 7.335938 L 97.892578 6.412109 L 104.729980 6.412109 L 104.729980 7.335938 Z " fill="rgb(0, 0, 0)" fill-opacity="1.000000" />
<path d="M 107.878906 13.319336 L 107.878906 7.335938 L 104.892578 7.335938 L 104.892578 6.412109 L 108.738281 6.412109 L 108.738281 13.319336 Z " fill="rgb(0, 0, 0)" fill-opacity="1.000000" />
<path d="M 163.878906 13.319336 L 163.878906 6.412109 L 167.729980 6.412109 L 167.729980 7.335938 L 164.738281 7.335938 L 164.738281 13.319336 Z " fill="rgb(0, 0, 0)" fill-opacity="1.000000" />
<path d="M 167.892578 7.335938 L 167.892578 6.412109 L 174.729980 6.412109 L 174.729980 7.335938 Z " fill="rgb(0, 0, 0)" fill-opacity="1.000000" />
<path d="M 174.892578 7.335938 L 174.892578 6.412109 L 181.729980 6.412109 L 181.729980 7.335938 Z " fill="rgb(0, 0, 0)" fill-opacity="1.000000" />
<path d="M 181.892578 7.335938 L 181.892578 6.412109 L 188.729980 6.412109 L 188.729980 7.335938 Z " fill="rgb(0, 0, 0)" fill-opacity="1.000000" />
<path d="M 188.892578 7.335938 L 188.892578 6.412109 L 195.729980 6.412109 L 195.729980 7.335938 Z " fill="rgb(0, 0, 0)" fill-opacity="1.000000" />
<path d="M 195.892578 7.335938 L 195.892578 6.412109 L 202.729980 6.412109 L 202.729980 7.335938 Z " fill="rgb(0, 0, 0)" fill-opacity="1.000000" />
<path d="M 202.892578 7.335938 L 202.892578 6.412109 L 209.729980 6.412109 L 209.729980 7.335938 Z " fill="rgb(0, 0, 0)" fill-opacity="1.000000" />
<path d="M 209.892578 7.335938 L 209.892578 6.412109 L 216.729980 6.412109 L 216.729980 7.335938 Z " fill="rgb(0, 0, 0)" fill-opacity="1.000000" />
<path d="M 216.892578 7.335938 L 216.892578 6.412109 L 223.729980 6.412109 L 223.729980 7.335938 Z " fill="rgb(0, 0, 0)" fill-opacity="1.000000" />
<path d="M 223.892578 7.335938 L 223.892578 6.412109 L 230.729980 6.412109 L 230.729980 7.335938 Z " fill="rgb(0, 0, 0)" fill-opacity="1.000000" />
<path d="M 230.892578 7.335938 L 230.892578 6.412109 L 237.729980 6.412109 L 237.729980 7.335938 Z " fill="rgb(0, 0, 0)" fill-opacity="1.000000" />
<path d="M 237.892578 7.335938 L 237.892578 6.412109 L 244.729980 6.412109 L 244.729980 7.335938 Z " fill="rgb(0, 0, 0)" fill-opacity="1.000000" />
<path d="M 244.892578 7.335938 L 244.892578 6.412109 L 251.729980 6.412109 L 251.729980 7.335938 Z " fill="rgb(0, 0, 0)" fill-opacity="1.000000" />
<path d="M 251.892578 7.335938 L 251.892578 6.412109 L 258.729980 6.412109 L 258.729980 7.335938 Z " fill="rgb(0, 0, 0)" fill-opacity="1.000000" />
<path d="M 258.892578 7.335938 L 258.892578 6.412109 L 265.729980 6.412109 L 265.729980 7.335938 Z " fill="rgb(0, 0, 0)" fill-opacity="1.000000" />
<path d="M 265.892578 7.335938 L 265.892578 6.412109 L 272.729980 6.412109 L 272.729980 7.335938 Z " fill="rgb(0, 0, 0)" fill-opacity="1.000000" />
<path d="M 272.892578 7.335938 L 272.892578 6.412109 L 279.729980 6.412109 L 279.729980 7.335938 Z " fill="rgb(0, 0, 0)" fill-opacity="1.000000" />
<path d="M 279.892578 7.335938 L 279.892578 6.412109 L 286.729980 6.412109 L 286.729980 7.335938 Z " fill="rgb(0, 0, 0)" fill-opacity="1.000000" />
<path d="M 289.878906 13.319336 L 289.878906 7.335938 L 286.892578 7.335938 L 286.892578 6.412109 L 290.738281 6.412109 L 290.738281 13.319336 Z " fill="rgb(0, 0, 0)" fill-opacity="1.000000" />
<path d="M 345.878906 13.319336 L 345.878906 6.412109 L 349.729980 6.412109 L 349.729980 7.335938 L 346.738281 7.335938 L 346.738281 13.319336 Z " fill="rgb(0, 0, 0)" fill-opacity="1.000000" />
<path d="M 349.892578 7.335938 L 349.892578 6.412109 L 356.729980 6.412109 L 356.729980 7.335938 Z " fill="rgb(0, 0, 0)" fill-opacity="1.000000" />
<path d="M 356.892578 7.335938 L 356.892578 6.412109 L 363.729980 6.412109 L 363.729980 7.335938 Z " fill="rgb(0, 0, 0)" fill-opacity="1.000000" />
<path d="M 363.892578 7.335938 L 363.892578 6.412109 L 370.729980 6.412109 L 370.729980 7.335938 Z " fill="rgb(0, 0, 0)" fill-opacity="1.000000" />
<path d="M 370.892578 7.335938 L 370.892578 6.412109 L 377.729980 6.412109 L 377.729980 7.335938 Z " fill="rgb(0, 0, 0)" fill-opacity="1.000000" />
<path d="M 377.892578 7.335938 L 377.892578 6.412109 L 384.729980 6.412109 L 384.729980 7.335938 Z " fill="rgb(0, 0, 0)" fill-opacity="1.000000" />
<path d="M 384.892578 7.335938 L 384.892578 6.412109 L 391.729980 6.412109 L 391.729980 7.335938 Z " fill="rgb(0, 0, 0)" fill-opacity="1.000000" />
<path d="M 391.892578 7.335938 L 391.892578 6.412109 L 398.729980 6.412109 L 398.729980 7.335938 Z " fill="rgb(0, 0, 0)" fill-opacity="1.000000" />
<path d="M 398.892578 7.335938 L 398.892578 6.412109 L 405.729980 6.412109 L 405.729980 7.335938 Z " fill="rgb(0, 0, 0)" fill-opacity="1.000000" />
<path d="M 405.892578 7.335938 L 405.892578 6.412109 L 412.729980 6.412109 L 412.729980 7.335938 Z " fill="rgb(0, 0, 0)" fill-opacity="1.000000" />
<path d="M 412.892578 7.335938 L 412.892578 6.412109 L 419.729980 6.412109 L 419.729980 7.335938 Z " fill="rgb(0, 0, 0)" fill-opacity="1.000000" />
<path d="M 419.892578 7.335938 L 419.892578 6.412109 L 426.729980 6.412109 L 426.729980 7.335938 Z " fill="rgb(0, 0, 0)" fill-opacity="1.000000" />
<path d="M 426.892578 7.335938 L 426.892578 6.412109 L 433.729980 6.412109 L 433.729980 7.335938 Z " fill="rgb(0, 0, 0)" fill-opacity="1.000000" />
<path d="M 433.892578 7.335938 L 433.892578 6.412109 L 440.729980 6.412109 L 440.729980 7.335938 Z " fill="rgb(0, 0, 0)" fill-opacity="1.000000" />
<path d="M 440.892578 7.335938 L 440.892578 6.412109 L 447.729980 6.412109 L 447.729980 7.335938 Z " fill="rgb(0, 0, 0)" fill-opacity="1.000000" />
<path d="M 450.878906 13.319336 L 450.878906 7.335938 L 447.892578 7.335938 L 447.892578 6.412109 L 451.738281 6.412109 L 451.738281 13.319336 Z " fill="rgb(0, 0, 0)" fill-opacity="1.000000" />
</svg>